<?xml version="1.0" encoding="utf-8"?>
<!-- Generator: Adobe Illustrator 16.0.0, SVG Export Plug-In . SVG Version: 6.00 Build 0)  -->
<!DOCTYPE svg PUBLIC "-//W3C//DTD SVG 1.1//EN" "http://www.w3.org/Graphics/SVG/1.1/DTD/svg11.dtd">
<svg version="1.1" id="Capa_1" xmlns="http://www.w3.org/2000/svg" xmlns:xlink="http://www.w3.org/1999/xlink" x="0px" y="0px"
	 width="50px" height="70px" viewBox="0 0 50 70" enable-background="new 0 0 50 70" xml:space="preserve">
<path fill="#BFD017" d="M25.105,27.02c-0.908-1.387-2.18-2.007-3.741-2.117c-2.689-0.183-4.868,2.007-4.614,4.671
	c0.146,1.389,0.872,2.411,1.889,3.287c0.763,0.656,1.562,1.205,2.361,1.86c0.872,0.729,1.562,1.57,1.78,2.739
	c0.036,0.146,0.218,0.291,0.363,0.328c0.109,0.036,0.327-0.182,0.327-0.293c0.036-0.438,0.109-0.911,0-1.313
	c-0.327-1.315-1.271-2.227-2.289-3.029c-0.618-0.475-1.344-0.912-1.889-1.497c-0.581-0.62-1.09-1.349-1.489-2.082
	c-0.436-0.802-0.182-1.568,0.472-2.225c1.417-1.424,3.997-1.534,5.377-0.109c0.654,0.692,1.126,0.838,2.07,0.62
	c2.471-0.548,4.36,1.167,3.961,3.504c-0.074,0.438-0.256,0.876-0.438,1.276c-0.764,1.57-1.816,2.885-3.232,3.979
	c-0.909,0.694-1.708,1.531-2.543,2.336c-0.399,0.401-0.545,0.912-0.363,1.458c0.073,0.186,0.218,0.33,0.327,0.477
	c0.146-0.11,0.364-0.22,0.473-0.366c0.327-0.473,0.582-0.986,0.944-1.386c1.09-1.168,2.216-2.262,3.343-3.358
	c1.162-1.168,2.252-2.334,2.906-3.869c0.871-2.042,0.471-4.308-2.326-5.109C27.539,26.399,26.34,26.582,25.105,27.02z"/>
<path fill="#FFFFFF" d="M24.379,52.568c1.271-0.036,2.578,0.145,3.85,0.182c0.801,0.037,0.982-0.218,0.801-1.022
	c-0.473-2.191-1.055-4.378-1.309-6.604c-0.291-2.665,0.4-5.183,2.436-7.08c0.943-0.915,2.105-1.605,3.232-2.336
	c3.742-2.481,7.119-5.292,9.771-8.941c1.344-1.862,2.398-3.868,2.652-6.204c0.617-5.438-2.18-10.146-7.303-12.19
	c-2.941-1.168-6.066-1.496-9.191-1.423c-5.012,0.073-9.808,1.058-14.312,3.321c-4.904,2.482-8.464,6.241-10.644,11.277
	c-0.727,1.643-1.053,3.358-0.727,5.183c0.399,2.226,1.816,3.687,3.669,4.783c1.344,0.802,2.797,1.314,4.359,1.642
	c3.524,0.73,5.812,2.918,6.939,6.277c0.727,2.152,1.162,4.344,1.162,6.641c0,0.475-0.036,0.951-0.108,1.389
	c-0.109,0.837-0.582,1.167-1.49,1.204c-0.762,0.036-1.38-0.367-1.417-1.167c-0.036-1.06,0.109-2.155,0.291-3.175
	c0.218-1.242,0.364-2.446,0-3.651c-0.653-2.116-2.18-3.285-4.25-3.76c-2.725-0.619-5.341-1.494-7.666-3.102
	c-3.378-2.336-4.868-5.621-4.795-9.671c0.073-3.65,1.344-6.825,3.524-9.708C8.976,7.642,15.841,3.882,24.051,2.459
	c5.16-0.912,10.355-0.876,15.404,0.657c3.16,0.985,5.885,2.591,7.811,5.365c1.49,2.153,2.18,4.562,2.361,7.153
	c0.398,5.875-1.816,10.802-5.703,15.037c-1.744,1.934-3.852,3.43-6.068,4.78c-1.889,1.168-3.633,2.592-5.23,4.125
	c-1.852,1.788-2.543,3.867-2.07,6.46c0.326,1.969,0.654,3.94,1.344,5.838c0.219,0.658,0.291,1.424,0.254,2.155
	c-0.035,1.276-0.871,1.969-2.18,1.935c-1.816-0.075-3.633-0.221-5.449-0.257c-1.525-0.037-3.088-0.037-4.578,0.475
	c-1.126,0.401-2.034-0.037-2.289-1.06c-0.218-0.766,0.073-1.46,0.908-1.788c0.727-0.293,1.526-0.511,2.289-0.584
	C22.126,52.604,24.125,52.568,24.379,52.568z"/>
<path fill="#FFFFFF" d="M26.377,62.021c1.344,0,2.689-0.037,4.031,0c0.982,0.038,1.709,0.841,1.672,1.787
	c-0.037,0.805-0.908,1.461-1.816,1.461c-2.834,0-5.667-0.037-8.501,0.036c-0.98,0-1.925,0.184-2.906,0.328
	c-1.38,0.184-2.325-0.803-1.961-2.079c0.218-0.692,0.727-1.022,1.38-1.06C20.964,62.276,26.377,61.983,26.377,62.021z"/>
<path fill="#FFFFFF" d="M30.809,58.334c-0.145,0-0.291,0-0.4,0.037c-3.16,0.146-6.029-0.146-9.372-0.583
	c-0.945-0.075-1.526-0.075-1.998-0.036l0,0c-0.981,0-1.562,0.181-1.89,0.362c-0.145,0.075-0.254,0.146-0.363,0.257
	c-0.109,0.109-0.146,0.183-0.146,0.183l0,0c-0.217,0.365-0.253,0.839-0.181,1.277c0.108,0.655,0.618,1.021,1.417,1.059
	c0.29,0,0.581,0,0.872-0.038c2.18-0.147,5.704-0.328,6.54-0.328c0.764,0,1.562,0,2.324,0c0.764,0,1.562,0.038,2.324,0.038
	c0.873,0,1.6-0.584,1.709-1.313C31.752,58.554,31.498,58.298,30.809,58.334z"/>
</svg>
