<?xml version="1.0" encoding="utf-8"?>
<!-- Generator: Adobe Illustrator 16.0.0, SVG Export Plug-In . SVG Version: 6.00 Build 0)  -->
<!DOCTYPE svg PUBLIC "-//W3C//DTD SVG 1.1//EN" "http://www.w3.org/Graphics/SVG/1.1/DTD/svg11.dtd">
<svg version="1.1" xmlns="http://www.w3.org/2000/svg" xmlns:xlink="http://www.w3.org/1999/xlink" x="0px" y="0px" width="1326px"
	 height="919px" viewBox="0 0 1326 919" enable-background="new 0 0 1326 919" xml:space="preserve">
<g id="Capa_1" display="none">
	<rect x="-0.5" y="0.5" fill="#BCBCBC" stroke="#000000" stroke-miterlimit="10" width="1326" height="919"/>
	<image overflow="visible" width="1326" height="919" xlink:href="bg.png"  transform="matrix(0.9999 0 0 0.9999 0 0)">
	</image>
</g>
<g id="Capa_2" opacity="0.05">
	<g>
		<path d="M553.894,685.264c-0.501-0.996-1.303-1.509-2.339-1.701c-1.783-0.328-3.407,0.969-3.441,2.768
			c-0.01,0.939,0.398,1.678,1.011,2.342c0.459,0.496,0.952,0.925,1.436,1.425c0.526,0.554,0.924,1.169,0.979,1.967
			c0.014,0.101,0.124,0.212,0.218,0.247c0.069,0.033,0.233-0.096,0.241-0.171c0.059-0.289,0.143-0.601,0.101-0.878
			c-0.118-0.904-0.679-1.585-1.297-2.199c-0.376-0.364-0.828-0.713-1.147-1.146c-0.341-0.458-0.626-0.985-0.836-1.506
			c-0.23-0.569-0.001-1.062,0.486-1.45c1.056-0.844,2.789-0.719,3.602,0.339c0.385,0.513,0.689,0.646,1.336,0.572
			c1.693-0.177,2.824,1.114,2.377,2.646c-0.083,0.286-0.237,0.565-0.389,0.819c-0.63,0.991-1.435,1.788-2.466,2.411
			c-0.66,0.395-1.258,0.893-1.878,1.366c-0.297,0.237-0.434,0.568-0.354,0.947c0.035,0.129,0.121,0.236,0.182,0.344
			c0.105-0.062,0.26-0.12,0.344-0.209c0.255-0.292,0.465-0.614,0.737-0.854c0.818-0.697,1.655-1.343,2.491-1.988
			c0.867-0.691,1.684-1.389,2.239-2.363c0.739-1.298,0.646-2.842-1.162-3.593C555.568,685.037,554.752,685.066,553.894,685.264z"/>
		<path d="M551.45,702.284c0.852,0.072,1.712,0.294,2.56,0.415c0.532,0.087,0.672-0.069,0.613-0.62
			c-0.148-1.502-0.369-3.008-0.368-4.515c0.01-1.804,0.664-3.434,2.169-4.547c0.702-0.538,1.531-0.91,2.34-1.312
			c2.691-1.372,5.164-2.991,7.216-5.228c1.041-1.141,1.899-2.401,2.248-3.942c0.829-3.588-0.679-6.948-3.946-8.707
			c-1.876-1.006-3.94-1.464-6.034-1.655c-3.355-0.335-6.636-0.044-9.82,1.123c-3.468,1.283-6.135,3.521-7.978,6.722
			c-0.612,1.041-0.961,2.163-0.883,3.408c0.096,1.518,0.931,2.602,2.085,3.477c0.837,0.639,1.77,1.093,2.788,1.433
			c2.299,0.757,3.661,2.396,4.156,4.726c0.321,1.494,0.444,2.992,0.268,4.527c-0.037,0.317-0.098,0.633-0.179,0.92
			c-0.137,0.552-0.479,0.736-1.088,0.69c-0.513-0.034-0.894-0.351-0.858-0.889c0.057-0.711,0.238-1.432,0.438-2.1
			c0.241-0.813,0.43-1.606,0.279-2.44c-0.274-1.464-1.205-2.361-2.552-2.838c-1.774-0.622-3.455-1.408-4.886-2.66
			c-2.079-1.821-2.822-4.13-2.463-6.831c0.329-2.435,1.421-4.459,3.099-6.218c3.946-4.145,8.822-6.132,14.418-6.453
			c3.518-0.215,6.987,0.207,10.244,1.618c2.038,0.901,3.735,2.184,4.81,4.185c0.83,1.553,1.107,3.217,1.029,4.961
			c-0.183,3.958-2.042,7.08-4.963,9.613c-1.314,1.158-2.836,1.996-4.421,2.729c-1.352,0.636-2.626,1.454-3.812,2.356
			c-1.375,1.054-1.996,2.39-1.879,4.158c0.068,1.342,0.135,2.684,0.452,4.006c0.095,0.455,0.085,0.973,0.004,1.459
			c-0.122,0.851-0.733,1.249-1.604,1.127c-1.208-0.189-2.411-0.427-3.623-0.59c-1.017-0.142-2.061-0.262-3.095-0.034
			c-0.784,0.182-1.357-0.181-1.448-0.883c-0.087-0.528,0.161-0.971,0.744-1.126c0.508-0.14,1.059-0.225,1.575-0.215
			C549.942,702.134,551.28,702.265,551.45,702.284z"/>
		<path d="M552.061,708.753c0.899,0.104,1.8,0.182,2.695,0.31c0.653,0.101,1.077,0.692,0.979,1.322
			c-0.085,0.535-0.718,0.907-1.325,0.838c-1.894-0.218-3.785-0.459-5.684-0.627c-0.656-0.075-1.301-0.025-1.968-0.004
			c-0.937,0.017-1.492-0.714-1.152-1.54c0.199-0.445,0.564-0.627,1.003-0.601C548.423,708.51,552.063,708.729,552.061,708.753z"/>
		<path d="M555.306,706.629c-0.098-0.011-0.194-0.021-0.271-0.006c-2.124-0.145-4.019-0.559-6.219-1.107
			c-0.626-0.122-1.014-0.167-1.333-0.178l0,0c-0.656-0.075-1.058,0.002-1.291,0.098c-0.103,0.039-0.181,0.078-0.263,0.144
			c-0.082,0.065-0.111,0.112-0.111,0.112l0,0c-0.173,0.227-0.234,0.541-0.219,0.839c0.022,0.446,0.334,0.729,0.866,0.815
			c0.194,0.023,0.388,0.045,0.586,0.042c1.468,0.069,3.836,0.218,4.395,0.281c0.51,0.06,1.044,0.12,1.554,0.179
			s1.041,0.146,1.551,0.203c0.583,0.067,1.114-0.268,1.242-0.746C555.919,706.849,555.77,706.658,555.306,706.629z"/>
	</g>
	<g>
		<path d="M674.356,742.005c-0.858-4.065-3.26-6.674-6.81-8.355c-6.114-2.877-13.198,0.252-15.035,6.702
			c-0.927,3.375-0.16,6.425,1.416,9.397c1.184,2.228,2.549,4.239,3.818,6.499c1.371,2.497,2.217,5.092,1.66,8.02
			c-0.047,0.375,0.246,0.881,0.549,1.098c0.22,0.184,0.93-0.123,1.034-0.387c0.483-0.988,1.081-2.028,1.196-3.068
			c0.435-3.369-0.942-6.355-2.582-9.158c-1.01-1.668-2.307-3.355-3.047-5.22c-0.792-1.973-1.316-4.144-1.579-6.221
			c-0.291-2.268,1.004-3.824,3.129-4.76c4.607-2.036,10.73,0.061,12.655,4.645c0.897,2.215,1.868,2.983,4.271,3.336
			c6.267,0.97,9.114,6.696,6.051,11.793c-0.573,0.953-1.393,1.813-2.183,2.583c-3.216,2.972-6.87,5.079-11.177,6.343
			c-2.754,0.794-5.383,2.02-8.069,3.137c-1.297,0.57-2.104,1.635-2.18,3.075c0.004,0.498,0.21,0.97,0.331,1.409
			c0.438-0.123,1.051-0.184,1.438-0.426c1.195-0.807,2.257-1.769,3.468-2.371c3.61-1.736,7.238-3.265,10.867-4.794
			c3.78-1.671,7.389-3.401,10.314-6.388c3.896-3.975,5.028-9.628-0.77-14.05C680.602,742.779,677.636,742.109,674.356,742.005z"/>
		<path d="M649.363,801.007c3.002,1.074,5.89,2.689,8.826,3.935c1.834,0.816,2.49,0.387,2.799-1.654
			c0.894-5.552,1.532-11.189,2.97-16.619c1.753-6.486,5.656-11.738,12.138-14.315c3.039-1.274,6.38-1.828,9.68-2.507
			c11.002-2.382,21.453-5.868,30.972-11.973c4.837-3.121,9.13-6.847,11.854-12.067c6.399-12.139,4.158-25.683-5.936-35.126
			c-5.812-5.409-12.81-9.023-20.172-11.704c-11.771-4.397-23.869-6.468-36.452-5.293c-13.716,1.325-25.454,6.857-35.139,16.634
			c-3.194,3.171-5.52,6.879-6.423,11.438c-1.096,5.563,0.88,10.263,4.207,14.511c2.409,3.1,5.336,5.622,8.684,7.814
			c7.563,4.913,10.914,12.115,10.479,20.981c-0.264,5.688-1.245,11.203-3.34,16.567c-0.433,1.107-0.953,2.188-1.518,3.144
			c-1.019,1.857-2.424,2.194-4.578,1.453c-1.814-0.61-2.888-2.113-2.246-4.018c0.881-2.508,2.218-4.931,3.573-7.15
			c1.642-2.703,3.078-5.379,3.328-8.524c0.404-5.539-2.095-9.659-6.497-12.654c-5.799-3.928-11.11-8.362-15.074-14.23
			c-5.758-8.542-6.241-17.567-2.38-26.957c3.501-8.46,9.364-14.717,17.081-19.458c18.158-11.182,37.619-13.703,58.088-9.54
			c12.881,2.572,24.978,7.391,35.371,15.572c6.489,5.186,11.382,11.421,13.351,19.653c1.517,6.382,0.931,12.643-1.005,18.855
			c-4.428,14.084-14.091,23.567-27.031,29.915c-5.832,2.927-12.117,4.499-18.524,5.63c-5.477,1.009-10.845,2.745-15.979,4.867
			c-5.956,2.487-9.466,6.712-10.727,13.193c-1.03,4.9-2.064,9.801-2.182,14.864c-0.091,1.733-0.621,3.585-1.376,5.263
			c-1.247,2.947-3.828,3.803-6.851,2.532c-4.172-1.83-8.283-3.83-12.491-5.571c-3.53-1.477-7.177-2.9-11.122-3.065
			c-2.995-0.089-4.717-1.938-4.377-4.558c0.188-1.986,1.501-3.346,3.749-3.348c1.964-0.021,4.029,0.198,5.878,0.721
			C644.072,799.035,648.771,800.778,649.363,801.007z"/>
		<path d="M645.411,824.899c3.141,1.228,6.313,2.366,9.416,3.677c2.254,0.984,3.222,3.521,2.271,5.696
			c-0.817,1.847-3.451,2.587-5.573,1.757c-6.616-2.584-13.199-5.25-19.884-7.663c-2.291-0.895-4.665-1.328-7.085-1.884
			c-3.392-0.832-4.698-3.994-2.687-6.646c1.142-1.414,2.629-1.721,4.186-1.211C632.537,820.564,645.444,824.814,645.411,824.899z"/>
		<path d="M659.124,820.332c-0.341-0.13-0.678-0.264-0.969-0.278c-7.514-2.541-13.949-5.834-21.354-9.905
			c-2.14-1.034-3.495-1.566-4.632-1.907l0,0c-2.291-0.895-3.814-1.001-4.743-0.876c-0.409,0.044-0.726,0.112-1.083,0.269
			c-0.356,0.159-0.506,0.298-0.506,0.298l0,0c-0.838,0.65-1.358,1.729-1.589,2.817c-0.345,1.628,0.511,2.941,2.344,3.761
			c0.678,0.266,1.356,0.529,2.072,0.706c5.225,1.647,13.616,4.435,15.57,5.195c1.78,0.697,3.648,1.425,5.429,2.121
			c1.779,0.694,3.613,1.514,5.394,2.207c2.037,0.796,4.269,0.094,5.184-1.509C661.127,821.705,660.767,820.875,659.124,820.332z"/>
	</g>
	<g>
		<path d="M775.111,609.6c-0.867-1.726-2.257-2.613-4.051-2.946c-3.087-0.567-5.898,1.677-5.958,4.793
			c-0.017,1.627,0.689,2.905,1.75,4.054c0.796,0.859,1.647,1.603,2.485,2.467c0.912,0.96,1.6,2.024,1.696,3.406
			c0.023,0.174,0.215,0.366,0.377,0.428c0.12,0.057,0.402-0.166,0.418-0.296c0.102-0.501,0.246-1.039,0.174-1.521
			c-0.205-1.565-1.176-2.744-2.245-3.808c-0.651-0.63-1.435-1.234-1.988-1.984c-0.589-0.793-1.083-1.706-1.447-2.606
			c-0.398-0.985-0.002-1.838,0.843-2.511c1.827-1.461,4.828-1.245,6.234,0.586c0.667,0.889,1.193,1.119,2.315,0.992
			c2.931-0.307,4.89,1.929,4.117,4.581c-0.145,0.496-0.411,0.979-0.674,1.419c-1.093,1.716-2.485,3.097-4.271,4.175
			c-1.143,0.684-2.178,1.546-3.252,2.366c-0.517,0.41-0.753,0.983-0.615,1.64c0.061,0.224,0.209,0.41,0.315,0.595
			c0.184-0.108,0.45-0.208,0.597-0.362c0.44-0.504,0.804-1.062,1.276-1.477c1.416-1.208,2.864-2.324,4.313-3.442
			c1.501-1.198,2.916-2.405,3.875-4.092c1.281-2.248,1.119-4.922-2.011-6.222C778.01,609.206,776.597,609.257,775.111,609.6z"/>
		<path d="M770.879,639.069c1.476,0.126,2.966,0.509,4.433,0.72c0.92,0.149,1.164-0.121,1.061-1.075
			c-0.256-2.599-0.639-5.208-0.636-7.817c0.018-3.122,1.147-5.944,3.754-7.871c1.216-0.932,2.651-1.577,4.053-2.273
			c4.66-2.375,8.942-5.18,12.494-9.052c1.802-1.975,3.289-4.157,3.894-6.825c1.436-6.213-1.178-12.031-6.832-15.076
			c-3.251-1.741-6.823-2.536-10.449-2.867c-5.811-0.579-11.49-0.075-17.003,1.944c-6.006,2.223-10.622,6.099-13.815,11.639
			c-1.058,1.804-1.663,3.746-1.527,5.901c0.166,2.629,1.611,4.506,3.61,6.02c1.449,1.106,3.062,1.894,4.826,2.48
			c3.98,1.312,6.34,4.148,7.196,8.184c0.557,2.587,0.769,5.181,0.465,7.839c-0.063,0.549-0.169,1.097-0.311,1.593
			c-0.238,0.955-0.829,1.273-1.885,1.195c-0.888-0.059-1.548-0.606-1.485-1.539c0.1-1.23,0.413-2.479,0.758-3.635
			c0.418-1.409,0.746-2.781,0.485-4.226c-0.477-2.535-2.088-4.09-4.42-4.914c-3.071-1.077-5.982-2.438-8.46-4.605
			c-3.599-3.154-4.886-7.151-4.265-11.828c0.569-4.216,2.461-7.722,5.365-10.767c6.832-7.176,15.274-10.617,24.965-11.174
			c6.093-0.371,12.099,0.359,17.737,2.803c3.529,1.56,6.468,3.781,8.328,7.245c1.438,2.688,1.917,5.569,1.784,8.59
			c-0.319,6.853-3.536,12.259-8.596,16.645c-2.273,2.007-4.911,3.458-7.654,4.727c-2.341,1.102-4.548,2.519-6.604,4.081
			c-2.379,1.824-3.455,4.137-3.253,7.199c0.117,2.323,0.233,4.647,0.782,6.936c0.164,0.789,0.146,1.685,0.007,2.527
			c-0.212,1.473-1.27,2.162-2.779,1.95c-2.092-0.328-4.175-0.738-6.271-1.021c-1.761-0.245-3.569-0.452-5.359-0.059
			c-1.357,0.315-2.351-0.312-2.508-1.528c-0.15-0.914,0.278-1.681,1.287-1.949c0.88-0.242,1.834-0.389,2.727-0.373
			C768.269,638.81,770.586,639.035,770.879,639.069z"/>
		<path d="M771.937,650.271c1.558,0.178,3.116,0.314,4.667,0.534c1.13,0.175,1.864,1.2,1.696,2.29
			c-0.148,0.928-1.245,1.571-2.296,1.451c-3.278-0.377-6.552-0.795-9.842-1.086c-1.136-0.13-2.253-0.043-3.407-0.007
			c-1.622,0.029-2.584-1.236-1.994-2.666c0.345-0.771,0.978-1.086,1.738-1.04C765.64,649.85,771.941,650.229,771.937,650.271z"/>
		<path d="M777.556,646.593c-0.168-0.019-0.337-0.038-0.47-0.01c-3.675-0.25-6.958-0.967-10.766-1.917
			c-1.085-0.213-1.757-0.29-2.308-0.309l0,0c-1.136-0.13-1.833,0.003-2.235,0.169c-0.178,0.068-0.312,0.136-0.454,0.249
			s-0.192,0.193-0.192,0.193l0,0c-0.299,0.393-0.404,0.938-0.38,1.454c0.039,0.772,0.579,1.261,1.499,1.411
			c0.336,0.04,0.673,0.078,1.015,0.072c2.543,0.12,6.644,0.378,7.612,0.487c0.882,0.103,1.807,0.208,2.688,0.31
			c0.884,0.101,1.804,0.251,2.686,0.353c1.01,0.115,1.93-0.464,2.149-1.293C778.618,646.973,778.357,646.643,777.556,646.593z"/>
	</g>
	<g>
		<path d="M971.337,739.331c-1.911-1.581-4.001-1.907-6.281-1.372c-3.923,0.93-6.067,5.02-4.528,8.713
			c0.821,1.919,2.312,3.057,4.151,3.86c1.378,0.599,2.765,1.031,4.196,1.615c1.567,0.656,2.925,1.553,3.753,3.127
			c0.116,0.192,0.441,0.319,0.663,0.309c0.171,0.003,0.388-0.404,0.339-0.565c-0.141-0.641-0.248-1.349-0.58-1.877
			c-1.05-1.733-2.801-2.617-4.607-3.313c-1.091-0.405-2.323-0.711-3.36-1.306c-1.104-0.627-2.154-1.446-3.048-2.317
			c-0.978-0.952-0.952-2.159-0.308-3.385c1.395-2.661,5.031-3.957,7.632-2.532c1.241,0.699,1.979,0.698,3.232-0.03
			c3.285-1.874,6.743-0.259,7.204,3.258c0.088,0.657,0.024,1.362-0.059,2.015c-0.396,2.581-1.32,4.924-2.86,7.114
			c-0.991,1.394-1.763,2.942-2.602,4.461c-0.394,0.747-0.375,1.544,0.126,2.243c0.187,0.232,0.457,0.375,0.677,0.537
			c0.158-0.223,0.422-0.478,0.514-0.732c0.259-0.822,0.396-1.666,0.737-2.397c1.041-2.15,2.166-4.211,3.291-6.273
			c1.146-2.184,2.185-4.332,2.441-6.812c0.344-3.303-1.227-6.361-5.577-6.271C974.54,737.371,972.906,738.16,971.337,739.331z"/>
		<path d="M981.588,776.152c1.798-0.614,3.747-0.934,5.58-1.443c1.159-0.301,1.305-0.743,0.691-1.812
			c-1.646-2.922-3.44-5.79-4.786-8.859c-1.592-3.679-1.721-7.58,0.348-11.191c0.944-1.722,2.299-3.222,3.587-4.765
			c4.25-5.197,7.833-10.707,10.008-17.093c1.1-3.252,1.718-6.585,1.051-10.032c-1.523-8.045-7.598-13.533-15.818-14.191
			c-4.719-0.366-9.329,0.546-13.761,2.029c-7.128,2.32-13.544,5.846-18.98,11.07c-5.909,5.712-9.333,12.654-10.224,20.814
			c-0.312,2.666-0.02,5.261,1.253,7.724c1.554,3.004,4.222,4.464,7.353,5.211c2.275,0.552,4.578,0.642,6.955,0.421
			c5.355-0.515,9.594,1.601,12.685,5.901c1.99,2.753,3.58,5.692,4.595,8.973c0.21,0.679,0.368,1.376,0.459,2.032
			c0.215,1.245-0.315,1.926-1.597,2.378c-1.073,0.39-2.134,0.087-2.542-1.041c-0.519-1.497-0.795-3.125-0.986-4.664
			c-0.237-1.87-0.562-3.652-1.614-5.215c-1.868-2.734-4.564-3.729-7.732-3.494c-4.166,0.321-8.29,0.225-12.321-1.043
			c-5.859-1.847-9.438-5.879-11.123-11.697c-1.509-5.249-1.096-10.347,0.744-15.427c4.322-11.963,12.469-20.369,23.568-26.028
			c6.969-3.583,14.404-5.827,22.295-5.869c4.954,0.011,9.555,1.104,13.53,4.214c3.079,2.416,5.131,5.555,6.534,9.174
			c3.166,8.219,2.177,16.236-1.504,24.003c-1.637,3.532-3.984,6.601-6.555,9.509c-2.184,2.505-4.044,5.31-5.651,8.207
			c-1.854,3.373-1.926,6.648-0.105,10.143c1.338,2.67,2.677,5.341,4.501,7.747c0.603,0.843,1.044,1.904,1.313,2.967
			c0.514,1.84-0.375,3.197-2.257,3.728c-2.628,0.695-5.288,1.29-7.898,2.04c-2.196,0.621-4.429,1.312-6.33,2.699
			c-1.432,1.071-2.922,0.849-3.736-0.5c-0.65-0.997-0.542-2.119,0.506-2.957c0.909-0.739,1.954-1.403,3.012-1.846
			C978.385,777.196,981.225,776.265,981.588,776.152z"/>
		<path d="M988.617,788.771c1.921-0.595,3.826-1.24,5.76-1.781c1.419-0.378,2.811,0.445,3.177,1.815
			c0.305,1.165-0.651,2.487-1.948,2.89c-4.048,1.252-8.11,2.45-12.129,3.81c-1.4,0.433-2.669,1.111-4.006,1.752
			c-1.892,0.871-3.676-0.12-3.723-2.104c0.008-1.084,0.589-1.781,1.505-2.121C980.998,791.53,988.6,788.719,988.617,788.771z"/>
		<path d="M993.319,781.546c-0.207,0.064-0.413,0.13-0.555,0.23c-4.45,1.605-8.678,2.458-13.646,3.309
			c-1.384,0.31-2.213,0.566-2.871,0.831l0,0c-1.401,0.433-2.151,0.948-2.539,1.351c-0.174,0.173-0.298,0.322-0.405,0.529
			c-0.107,0.205-0.126,0.326-0.126,0.326l0,0c-0.149,0.616,0.009,1.311,0.305,1.903c0.444,0.889,1.332,1.185,2.491,0.886
			c0.416-0.127,0.83-0.255,1.229-0.439c3.051-1.171,8.003-2.988,9.197-3.359c1.09-0.334,2.232-0.689,3.321-1.026
			c1.089-0.336,2.248-0.635,3.339-0.973c1.246-0.385,2.025-1.541,1.858-2.63C994.765,781.443,994.29,781.189,993.319,781.546z"/>
	</g>
	<g>
		<path d="M840.268,775.446c-2.099-0.943-4.049-0.718-5.957,0.32c-3.28,1.797-4.192,5.983-1.905,8.909
			c1.206,1.516,2.82,2.166,4.664,2.431c1.381,0.197,2.728,0.242,4.152,0.411c1.562,0.202,2.998,0.669,4.126,1.873
			c0.151,0.145,0.474,0.178,0.67,0.112c0.153-0.037,0.247-0.456,0.164-0.589c-0.283-0.537-0.554-1.144-0.982-1.534
			c-1.366-1.293-3.149-1.652-4.938-1.832c-1.074-0.094-2.253-0.062-3.326-0.34c-1.142-0.289-2.284-0.763-3.297-1.322
			c-1.11-0.61-1.384-1.696-1.109-2.953c0.592-2.723,3.527-4.778,6.203-4.144c1.283,0.321,1.943,0.138,2.884-0.822
			c2.478-2.485,5.969-1.893,7.248,1.139c0.239,0.567,0.357,1.214,0.443,1.819c0.28,2.407,0.032,4.729-0.809,7.067
			c-0.542,1.489-0.851,3.065-1.227,4.63c-0.169,0.767,0.044,1.475,0.665,1.978c0.223,0.16,0.5,0.222,0.737,0.312
			c0.087-0.236,0.261-0.53,0.278-0.782c0.029-0.798-0.055-1.587,0.07-2.325c0.4-2.181,0.9-4.301,1.398-6.422
			c0.487-2.236,0.889-4.414,0.508-6.695c-0.506-3.039-2.666-5.388-6.534-4.236C842.65,772.904,841.383,774.013,840.268,775.446z"/>
		<path d="M858.504,805.861c1.459-0.993,3.122-1.757,4.637-2.664c0.962-0.555,0.983-0.987,0.172-1.792
			c-2.189-2.209-4.502-4.334-6.463-6.746c-2.33-2.898-3.405-6.357-2.444-10.096c0.422-1.774,1.264-3.45,2.035-5.146
			c2.522-5.696,4.372-11.508,4.745-17.755c0.182-3.18-0.086-6.314-1.532-9.234c-3.343-6.82-10.128-10.234-17.644-8.798
			c-4.312,0.832-8.211,2.784-11.811,5.202c-5.804,3.83-10.675,8.564-14.253,14.576c-3.879,6.564-5.234,13.619-4.02,21.138
			c0.376,2.462,1.275,4.711,3.021,6.602c2.13,2.303,4.876,2.952,7.861,2.851c2.172-0.067,4.252-0.553,6.325-1.336
			c4.663-1.779,8.976-0.931,12.8,2.156c2.458,1.972,4.603,4.209,6.319,6.895c0.355,0.556,0.668,1.141,0.912,1.705
			c0.497,1.061,0.191,1.8-0.845,2.521c-0.863,0.613-1.886,0.603-2.529-0.307c-0.832-1.211-1.481-2.6-2.031-3.928
			c-0.673-1.617-1.402-3.13-2.728-4.269c-2.345-1.986-5.002-2.212-7.777-1.221c-3.647,1.312-7.36,2.241-11.28,2.101
			c-5.696-0.21-9.89-2.937-12.829-7.726c-2.643-4.323-3.53-8.985-3.134-13.983c0.922-11.766,6.139-21.291,14.676-29.088
			c5.352-4.92,11.45-8.759,18.498-10.739c4.435-1.21,8.819-1.365,13.141,0.438c3.35,1.404,5.959,3.705,8.104,6.599
			c4.856,6.571,5.944,13.986,4.564,21.841c-0.593,3.563-1.938,6.886-3.521,10.12c-1.336,2.777-2.311,5.745-3.035,8.733
			c-0.829,3.475-0.085,6.422,2.403,9.099c1.854,2.059,3.709,4.119,5.935,5.822c0.746,0.606,1.402,1.446,1.905,2.331
			c0.911,1.52,0.452,2.953-1.102,3.89c-2.18,1.269-4.413,2.455-6.564,3.771c-1.812,1.096-3.638,2.263-4.996,3.973
			c-1.017,1.311-2.406,1.478-3.466,0.472c-0.828-0.731-1.006-1.762-0.275-2.769c0.63-0.885,1.402-1.737,2.238-2.393
			C855.896,807.583,858.205,806.051,858.504,805.861z"/>
		<path d="M867.9,815.419c1.572-1.005,3.116-2.051,4.712-3.012c1.177-0.688,2.626-0.293,3.289,0.842
			c0.56,0.969,0.031,2.386-1.03,3.065c-3.312,2.116-6.652,4.189-9.912,6.393c-1.146,0.733-2.114,1.653-3.152,2.555
			c-1.478,1.246-3.317,0.799-3.849-0.966c-0.26-0.972,0.089-1.737,0.824-2.267C861.762,819.763,867.872,815.376,867.9,815.419z"/>
		<path d="M870.327,807.799c-0.17,0.108-0.339,0.217-0.44,0.343c-3.584,2.53-7.157,4.334-11.391,6.318
			c-1.162,0.619-1.842,1.052-2.364,1.45l0,0c-1.148,0.733-1.691,1.378-1.939,1.834c-0.112,0.197-0.187,0.361-0.232,0.573
			c-0.044,0.21-0.032,0.322-0.032,0.322l0,0c0.019,0.588,0.332,1.171,0.741,1.629c0.617,0.686,1.482,0.731,2.446,0.179
			c0.341-0.217,0.681-0.435,0.992-0.697c2.439-1.798,6.425-4.643,7.4-5.268c0.893-0.568,1.826-1.167,2.719-1.737
			c0.891-0.568,1.854-1.121,2.746-1.691c1.02-0.651,1.434-1.878,1.015-2.811C871.596,807.351,871.107,807.24,870.327,807.799z"/>
	</g>
	<g>
		<path d="M1056.124,635.056c-0.683-0.507-1.404-0.58-2.174-0.355c-1.326,0.391-1.984,1.829-1.391,3.063
			c0.316,0.643,0.847,1.005,1.491,1.245c0.482,0.18,0.965,0.303,1.466,0.477c0.548,0.195,1.028,0.478,1.341,1.001
			c0.044,0.063,0.157,0.102,0.233,0.094c0.058-0.002,0.125-0.146,0.104-0.2c-0.061-0.217-0.109-0.456-0.232-0.632
			c-0.392-0.573-1.007-0.844-1.638-1.05c-0.38-0.118-0.808-0.2-1.173-0.385c-0.39-0.194-0.764-0.455-1.085-0.736
			c-0.353-0.309-0.366-0.722-0.168-1.153c0.429-0.937,1.649-1.446,2.564-1.006c0.438,0.218,0.691,0.202,1.105-0.069
			c1.09-0.701,2.302-0.211,2.524,0.983c0.043,0.223,0.034,0.466,0.017,0.689c-0.088,0.892-0.36,1.71-0.848,2.486
			c-0.313,0.495-0.55,1.04-0.809,1.574c-0.12,0.264-0.1,0.535,0.084,0.767c0.068,0.074,0.163,0.118,0.241,0.17
			c0.051-0.078,0.137-0.171,0.162-0.26c0.074-0.286,0.105-0.576,0.21-0.834c0.316-0.755,0.663-1.48,1.01-2.206
			c0.353-0.768,0.669-1.523,0.712-2.376c0.056-1.136-0.537-2.153-2.024-2.044C1057.184,634.325,1056.64,634.625,1056.124,635.056z"
			/>
		<path d="M1060.306,647.466c0.604-0.244,1.265-0.389,1.882-0.596c0.392-0.125,0.433-0.279,0.204-0.633
			c-0.617-0.97-1.283-1.919-1.8-2.944c-0.612-1.229-0.727-2.562-0.086-3.835c0.291-0.606,0.728-1.145,1.14-1.695
			c1.358-1.857,2.484-3.807,3.111-6.031c0.316-1.134,0.467-2.285,0.176-3.453c-0.668-2.724-2.848-4.49-5.672-4.565
			c-1.621-0.039-3.182,0.357-4.671,0.946c-2.396,0.924-4.526,2.248-6.291,4.135c-1.918,2.063-2.962,4.501-3.116,7.31
			c-0.059,0.918,0.088,1.8,0.569,2.62c0.586,0.999,1.526,1.449,2.61,1.647c0.79,0.147,1.578,0.137,2.388,0.017
			c1.823-0.274,3.312,0.373,4.448,1.787c0.73,0.906,1.328,1.882,1.736,2.985c0.084,0.229,0.15,0.464,0.194,0.688
			c0.097,0.422-0.073,0.663-0.503,0.843c-0.36,0.153-0.728,0.068-0.889-0.31c-0.205-0.503-0.33-1.055-0.424-1.578
			c-0.115-0.636-0.259-1.239-0.647-1.755c-0.688-0.901-1.629-1.192-2.71-1.053c-1.419,0.185-2.832,0.228-4.234-0.132
			c-2.038-0.525-3.336-1.839-4.02-3.799c-0.611-1.769-0.563-3.52-0.027-5.292c1.26-4.171,3.893-7.196,7.588-9.337
			c2.317-1.353,4.821-2.257,7.521-2.416c1.694-0.087,3.288,0.202,4.705,1.194c1.099,0.771,1.858,1.807,2.403,3.02
			c1.235,2.754,1.043,5.515-0.074,8.239c-0.496,1.239-1.242,2.331-2.069,3.374c-0.701,0.896-1.286,1.89-1.782,2.91
			c-0.574,1.189-0.538,2.311,0.148,3.473c0.508,0.89,1.015,1.777,1.683,2.568c0.222,0.277,0.392,0.633,0.503,0.992
			c0.21,0.619-0.068,1.101-0.703,1.315c-0.886,0.285-1.786,0.538-2.666,0.843c-0.739,0.253-1.49,0.529-2.115,1.04
			c-0.47,0.392-0.984,0.343-1.288-0.104c-0.24-0.329-0.224-0.715,0.119-1.021c0.298-0.27,0.643-0.516,0.997-0.688
			C1059.229,647.882,1060.183,647.51,1060.306,647.466z"/>
		<path d="M1062.941,651.654c0.646-0.238,1.286-0.495,1.938-0.715c0.479-0.155,0.97,0.101,1.12,0.563
			c0.126,0.393-0.177,0.862-0.613,1.023c-1.361,0.503-2.73,0.987-4.079,1.525c-0.472,0.175-0.895,0.43-1.34,0.673
			c-0.631,0.333-1.259,0.026-1.312-0.651c-0.018-0.371,0.169-0.62,0.476-0.754C1060.385,652.737,1062.935,651.637,1062.941,651.654z
			"/>
		<path d="M1064.418,649.097c-0.07,0.025-0.14,0.051-0.186,0.088c-1.493,0.631-2.925,1-4.609,1.382
			c-0.467,0.132-0.745,0.234-0.966,0.337l0,0c-0.472,0.174-0.719,0.364-0.844,0.51c-0.057,0.062-0.096,0.115-0.129,0.188
			c-0.034,0.072-0.037,0.113-0.037,0.113l0,0c-0.04,0.214,0.026,0.45,0.139,0.646c0.168,0.296,0.478,0.381,0.869,0.258
			c0.14-0.053,0.278-0.103,0.412-0.174c1.021-0.457,2.684-1.168,3.085-1.316c0.366-0.135,0.751-0.277,1.118-0.412
			c0.365-0.136,0.758-0.26,1.124-0.395c0.419-0.154,0.664-0.563,0.588-0.935C1064.911,649.035,1064.744,648.956,1064.418,649.097z"
			/>
	</g>
	<g>
		<path d="M1175.792,668.571c-0.754-1.5-1.961-2.271-3.521-2.562c-2.685-0.493-5.128,1.458-5.181,4.167
			c-0.014,1.414,0.6,2.525,1.521,3.524c0.691,0.747,1.433,1.393,2.16,2.145c0.793,0.834,1.391,1.76,1.476,2.961
			c0.021,0.151,0.187,0.318,0.327,0.372c0.105,0.049,0.351-0.145,0.363-0.258c0.088-0.436,0.215-0.903,0.152-1.321
			c-0.179-1.361-1.023-2.386-1.953-3.311c-0.566-0.548-1.246-1.073-1.728-1.725c-0.513-0.689-0.941-1.483-1.258-2.267
			c-0.347-0.856-0.002-1.598,0.731-2.183c1.59-1.27,4.197-1.082,5.421,0.51c0.579,0.772,1.037,0.973,2.013,0.862
			c2.547-0.267,4.25,1.677,3.578,3.982c-0.125,0.432-0.356,0.852-0.586,1.233c-0.949,1.492-2.159,2.692-3.711,3.63
			c-0.994,0.594-1.895,1.344-2.828,2.057c-0.448,0.356-0.653,0.855-0.534,1.426c0.053,0.194,0.182,0.356,0.274,0.517
			c0.158-0.094,0.391-0.181,0.518-0.314c0.384-0.438,0.699-0.924,1.109-1.284c1.232-1.05,2.491-2.021,3.75-2.992
			c1.305-1.042,2.535-2.091,3.37-3.558c1.112-1.954,0.972-4.278-1.749-5.408C1178.312,668.229,1177.084,668.273,1175.792,668.571z"
			/>
		<path d="M1172.113,694.19c1.282,0.109,2.577,0.442,3.853,0.626c0.801,0.13,1.012-0.105,0.922-0.935
			c-0.223-2.26-0.555-4.527-0.553-6.796c0.016-2.715,0.999-5.168,3.265-6.843c1.056-0.811,2.304-1.371,3.522-1.977
			c4.051-2.064,7.773-4.503,10.861-7.869c1.567-1.717,2.859-3.614,3.385-5.934c1.248-5.401-1.022-10.459-5.939-13.106
			c-2.825-1.514-5.932-2.204-9.083-2.492c-5.051-0.504-9.989-0.065-14.782,1.69c-5.221,1.932-9.234,5.302-12.01,10.118
			c-0.92,1.567-1.445,3.256-1.328,5.13c0.145,2.285,1.401,3.917,3.139,5.233c1.26,0.962,2.663,1.646,4.196,2.156
			c3.46,1.14,5.511,3.606,6.256,7.114c0.483,2.249,0.669,4.504,0.403,6.814c-0.055,0.478-0.146,0.953-0.27,1.385
			c-0.206,0.83-0.72,1.107-1.638,1.039c-0.771-0.051-1.346-0.527-1.292-1.338c0.086-1.069,0.359-2.154,0.659-3.16
			c0.362-1.225,0.647-2.418,0.421-3.673c-0.413-2.204-1.813-3.556-3.842-4.272c-2.67-0.937-5.201-2.12-7.354-4.004
			c-3.129-2.742-4.248-6.217-3.709-10.282c0.496-3.665,2.141-6.713,4.665-9.36c5.938-6.238,13.279-9.229,21.703-9.714
			c5.296-0.322,10.517,0.312,15.42,2.437c3.067,1.356,5.622,3.287,7.239,6.299c1.25,2.337,1.667,4.842,1.551,7.468
			c-0.276,5.957-3.074,10.657-7.473,14.47c-1.977,1.744-4.269,3.006-6.654,4.108c-2.035,0.958-3.953,2.189-5.739,3.548
			c-2.069,1.586-3.005,3.597-2.829,6.259c0.103,2.02,0.204,4.04,0.68,6.029c0.144,0.687,0.128,1.465,0.006,2.197
			c-0.184,1.28-1.104,1.88-2.415,1.695c-1.818-0.285-3.63-0.642-5.452-0.888c-1.531-0.213-3.103-0.394-4.66-0.051
			c-1.179,0.273-2.042-0.271-2.18-1.329c-0.131-0.795,0.242-1.461,1.119-1.694c0.766-0.211,1.594-0.338,2.371-0.324
			C1169.843,693.965,1171.858,694.161,1172.113,694.19z"/>
		<path d="M1173.032,703.929c1.354,0.155,2.71,0.273,4.057,0.465c0.982,0.152,1.621,1.043,1.475,1.991
			c-0.129,0.806-1.082,1.365-1.995,1.261c-2.851-0.327-5.696-0.69-8.556-0.943c-0.987-0.113-1.959-0.038-2.962-0.006
			c-1.41,0.025-2.246-1.075-1.733-2.318c0.299-0.67,0.85-0.943,1.51-0.904C1167.558,703.562,1173.036,703.892,1173.032,703.929z"/>
		<path d="M1177.917,700.731c-0.146-0.017-0.292-0.033-0.407-0.009c-3.196-0.218-6.05-0.841-9.36-1.667
			c-0.942-0.185-1.526-0.252-2.006-0.268l0,0c-0.986-0.113-1.593,0.002-1.942,0.146c-0.155,0.06-0.272,0.118-0.396,0.217
			s-0.167,0.168-0.167,0.168l0,0c-0.261,0.341-0.353,0.815-0.33,1.264c0.034,0.672,0.503,1.097,1.304,1.228
			c0.292,0.034,0.584,0.067,0.882,0.062c2.21,0.104,5.774,0.328,6.616,0.424c0.768,0.089,1.572,0.181,2.339,0.269
			s1.567,0.219,2.334,0.307c0.878,0.101,1.677-0.403,1.869-1.124C1178.841,701.062,1178.615,700.774,1177.917,700.731z"/>
	</g>
	<g>
		<path d="M1215.608,809.849c1.557-5.52,0.29-10.246-2.973-14.571c-5.631-7.431-16.289-8.143-22.664-1.434
			c-3.295,3.531-4.309,7.748-4.287,12.391c0.021,3.479,0.401,6.812,0.504,10.388c0.078,3.929-0.55,7.642-3.104,10.863
			c-0.299,0.428-0.264,1.233-0.033,1.692c0.153,0.365,1.218,0.443,1.512,0.188c1.226-0.896,2.621-1.785,3.427-2.982
			c2.689-3.843,2.919-8.372,2.707-12.847c-0.164-2.686-0.67-5.578-0.38-8.329c0.296-2.92,1.045-5.909,2.052-8.613
			c1.099-2.959,3.678-4.032,6.875-3.816c6.932,0.462,13.075,6.945,12.491,13.778c-0.319,3.282,0.374,4.843,3.086,6.812
			c7.037,5.198,6.852,14.023-0.156,18.288c-1.31,0.8-2.862,1.325-4.319,1.759c-5.832,1.574-11.648,1.812-17.724,0.599
			c-3.874-0.795-7.872-0.979-11.868-1.333c-1.952-0.135-3.619,0.651-4.633,2.363c-0.314,0.611-0.364,1.317-0.499,1.935
			c0.615,0.128,1.402,0.445,2.03,0.4c1.978-0.22,3.892-0.718,5.757-0.679c5.524,0.191,10.937,0.646,16.349,1.098
			c5.691,0.38,11.211,0.571,16.696-1.202c7.309-2.363,12.311-8.548,8.056-17.666
			C1222.747,814.795,1219.552,812.076,1215.608,809.849z"/>
		<path d="M1147.289,865.959c2.981,3.232,5.478,7.056,8.27,10.458c1.72,2.171,2.794,2.065,4.479-0.231
			c4.646-6.211,9.036-12.692,14.268-18.408c6.297-6.808,14.43-10.726,24.001-9.728c4.53,0.391,8.969,1.854,13.437,3.136
			c14.971,4.131,29.976,6.563,45.519,5.194c7.909-0.717,15.538-2.522,22.209-7.159c15.595-10.741,21.527-28.725,15.232-46.731
			c-3.634-10.327-9.874-19.228-17.155-27.217c-11.572-12.91-25.033-23.187-41.163-29.808c-17.612-7.161-35.5-7.916-53.597-2.168
			c-5.933,1.829-11.15,4.875-15.172,9.871c-4.901,6.095-5.495,13.104-4.149,20.427c0.961,5.329,2.922,10.287,5.61,15.108
			c6.098,10.848,5.582,21.794-0.624,32.354c-3.966,6.783-8.695,12.895-14.69,18.109c-1.237,1.078-2.565,2.065-3.869,2.871
			c-2.434,1.616-4.367,1.132-6.524-1.156c-1.828-1.906-2.177-4.432-0.172-6.35c2.68-2.498,5.868-4.605,8.944-6.449
			c3.735-2.252,7.204-4.604,9.524-8.289c4.038-6.51,3.623-13.144,0.161-19.626c-4.572-8.515-8.225-17.331-9.312-27.043
			c-1.568-14.125,3.619-25.464,14.351-34.468c9.694-8.101,20.865-11.993,33.332-12.849c29.35-2.039,54.749,7.337,77.104,25.529
			c14.093,11.395,25.791,25.026,33.259,41.682c4.606,10.489,6.599,21.244,3.733,32.564c-2.234,8.772-6.955,16.049-13.301,22.401
			c-14.426,14.381-32.312,19.782-52.188,19.258c-9.002-0.159-17.688-2.26-26.245-4.979c-7.338-2.275-15.012-3.592-22.646-4.284
			c-8.872-0.771-15.865,2.144-21.558,9.259c-4.396,5.328-8.796,10.656-12.182,16.768c-1.221,2.062-3.054,3.987-5.05,5.554
			c-3.413,2.805-7.114,2.194-9.995-1.293c-3.928-4.91-7.671-9.982-11.702-14.804c-3.368-4.065-6.913-8.143-11.628-10.866
			c-3.604-2.029-4.522-5.393-2.432-8.375c1.501-2.308,3.977-3.126,6.726-1.692c2.414,1.23,4.796,2.821,6.724,4.645
			C1142.086,860.158,1146.714,865.297,1147.289,865.959z"/>
		<path d="M1127.164,892.629c3.053,3.511,6.2,6.935,9.153,10.521c2.127,2.648,1.684,6.364-0.872,8.419
			c-2.181,1.733-5.872,0.948-7.935-1.42c-6.433-7.395-12.769-14.869-19.396-22.099c-2.228-2.56-4.85-4.609-7.453-6.839
			c-3.613-3.187-3.184-7.888,0.973-9.842c2.3-0.998,4.315-0.42,5.892,1.202C1114.204,879.087,1127.258,892.545,1127.164,892.629z"/>
		<path d="M1146.846,895.825c-0.332-0.379-0.659-0.757-1.007-0.962c-7.556-7.913-13.312-16.06-19.757-25.773
			c-1.95-2.638-3.267-4.154-4.439-5.298l0,0c-2.228-2.56-4.021-3.666-5.234-4.108c-0.527-0.206-0.959-0.33-1.497-0.364
			c-0.536-0.034-0.809,0.038-0.809,0.038l0,0c-1.441,0.26-2.767,1.244-3.744,2.426c-1.464,1.771-1.26,3.924,0.455,6.099
			c0.66,0.76,1.32,1.517,2.081,2.19c5.331,5.357,13.804,14.137,15.704,16.317c1.729,1.992,3.545,4.078,5.277,6.067
			c1.73,1.989,3.446,4.162,5.177,6.152c1.981,2.275,5.157,2.848,7.304,1.474C1148.414,898.787,1148.507,897.543,1146.846,895.825z"
			/>
	</g>
	<g>
		<path d="M1199.742,492.987c-2.616-1.801-5.321-1.979-8.171-1.039c-4.901,1.626-7.177,7.089-4.795,11.63
			c1.266,2.356,3.294,3.641,5.733,4.457c1.827,0.61,3.645,1.005,5.535,1.59c2.075,0.66,3.91,1.652,5.146,3.566
			c0.17,0.231,0.597,0.358,0.881,0.318c0.22-0.015,0.448-0.559,0.366-0.758c-0.25-0.803-0.466-1.694-0.95-2.331
			c-1.536-2.095-3.871-3.023-6.254-3.71c-1.439-0.393-3.044-0.645-4.438-1.286c-1.479-0.677-2.912-1.604-4.15-2.613
			c-1.355-1.104-1.459-2.647-0.775-4.286c1.479-3.555,5.974-5.618,9.455-4.094c1.662,0.753,2.605,0.67,4.124-0.402
			c3.979-2.762,8.574-1.093,9.562,3.345c0.186,0.829,0.184,1.736,0.15,2.578c-0.214,3.34-1.128,6.433-2.847,9.401
			c-1.106,1.891-1.918,3.953-2.816,5.988c-0.42,0.999-0.305,2.013,0.412,2.851c0.265,0.274,0.627,0.424,0.926,0.606
			c0.176-0.301,0.482-0.655,0.572-0.993c0.236-1.077,0.317-2.169,0.671-3.141c1.087-2.864,2.29-5.62,3.493-8.379
			c1.214-2.916,2.3-5.777,2.347-8.971c0.064-4.254-2.286-7.979-7.827-7.375C1203.61,490.126,1201.614,491.317,1199.742,492.987z"/>
		<path d="M1216.982,538.827c2.226-0.986,4.676-1.614,6.959-2.473c1.446-0.514,1.581-1.096,0.678-2.389
			c-2.43-3.545-5.046-7.003-7.108-10.768c-2.447-4.518-3.052-9.481-0.82-14.322c1.014-2.307,2.571-4.372,4.041-6.487
			c4.838-7.113,8.791-14.549,10.845-22.943c1.035-4.275,1.45-8.601,0.208-12.925c-2.85-10.096-11.226-16.415-21.79-16.327
			c-6.064,0.064-11.846,1.749-17.334,4.144c-8.837,3.765-16.626,8.992-22.977,16.269c-6.898,7.96-10.484,17.205-10.699,27.722
			c-0.099,3.437,0.57,6.715,2.471,9.718c2.322,3.658,5.893,5.218,9.973,5.818c2.966,0.448,5.915,0.303,8.924-0.246
			c6.777-1.262,12.426,0.961,16.856,6.1c2.851,3.289,5.212,6.859,6.878,10.934c0.344,0.843,0.624,1.713,0.814,2.543
			c0.414,1.563-0.186,2.491-1.771,3.215c-1.324,0.619-2.712,0.352-3.36-1.043c-0.832-1.852-1.366-3.898-1.787-5.84
			c-0.513-2.36-1.127-4.602-2.646-6.476c-2.695-3.278-6.247-4.245-10.265-3.586c-5.28,0.879-10.559,1.224-15.844,0.06
			c-7.687-1.698-12.708-6.439-15.517-13.673c-2.517-6.532-2.566-13.083-0.79-19.774c4.165-15.755,13.613-27.405,27.143-35.882
			c8.489-5.359,17.726-9.062,27.792-10.007c6.322-0.544,12.318,0.331,17.745,3.853c4.2,2.735,7.175,6.51,9.374,10.971
			c4.97,10.131,4.609,20.476,0.79,30.805c-1.689,4.692-4.342,8.873-7.293,12.875c-2.503,3.442-4.562,7.233-6.286,11.112
			c-1.988,4.517-1.707,8.702,1.008,12.958c2.012,3.254,4.02,6.514,6.621,9.379c0.864,1.009,1.546,2.313,2.011,3.64
			c0.863,2.29-0.116,4.122-2.46,5.011c-3.275,1.184-6.604,2.243-9.85,3.495c-2.735,1.04-5.505,2.175-7.776,4.161
			c-1.704,1.529-3.632,1.41-4.825-0.218c-0.942-1.2-0.929-2.645,0.312-3.831c1.076-1.046,2.336-2.011,3.637-2.697
			C1213.01,540.521,1216.531,539.011,1216.982,538.827z"/>
		<path d="M1227.377,554.139c2.387-0.974,4.744-2.014,7.151-2.924c1.768-0.644,3.639,0.254,4.259,1.959
			c0.521,1.455-0.55,3.251-2.16,3.909c-5.024,2.055-10.075,4.044-15.049,6.228c-1.739,0.714-3.282,1.723-4.915,2.69
			c-2.317,1.327-4.705,0.264-4.988-2.265c-0.115-1.384,0.551-2.338,1.68-2.876C1217.963,558.52,1227.35,554.075,1227.377,554.139z"
			/>
		<path d="M1232.565,544.387c-0.259,0.105-0.515,0.212-0.683,0.357c-5.5,2.551-10.8,4.116-17.044,5.763
			c-1.73,0.552-2.761,0.972-3.569,1.385l0,0c-1.738,0.71-2.641,1.453-3.089,2.011c-0.203,0.24-0.344,0.444-0.457,0.72
			c-0.113,0.276-0.124,0.431-0.124,0.431l0,0c-0.123,0.804,0.158,1.674,0.604,2.397c0.668,1.081,1.833,1.359,3.28,0.848
			c0.516-0.208,1.029-0.42,1.52-0.699c3.76-1.842,9.875-4.716,11.358-5.325c1.354-0.551,2.771-1.133,4.123-1.686
			c1.353-0.552,2.799-1.065,4.15-1.616c1.549-0.634,2.414-2.197,2.076-3.568C1234.397,544.093,1233.763,543.822,1232.565,544.387z"
			/>
	</g>
	<g>
		<path d="M947.198,434.969c-1.625-3.233-4.228-4.896-7.588-5.521c-5.786-1.063-11.053,3.142-11.166,8.98
			c-0.03,3.048,1.293,5.443,3.279,7.597c1.49,1.61,3.088,3.001,4.657,4.622c1.709,1.797,2.997,3.793,3.179,6.382
			c0.043,0.326,0.402,0.686,0.705,0.802c0.227,0.104,0.756-0.312,0.784-0.556c0.188-0.939,0.461-1.947,0.326-2.848
			c-0.384-2.934-2.204-5.142-4.208-7.135c-1.22-1.181-2.687-2.313-3.724-3.717c-1.104-1.486-2.029-3.197-2.711-4.885
			c-0.748-1.846-0.004-3.443,1.576-4.704c3.426-2.736,9.047-2.332,11.684,1.099c1.248,1.665,2.235,2.096,4.337,1.858
			c5.49-0.575,9.161,3.614,7.713,8.583c-0.27,0.93-0.768,1.835-1.263,2.658c-2.046,3.216-4.653,5.803-7.999,7.823
			c-2.142,1.28-4.082,2.896-6.095,4.433c-0.966,0.769-1.407,1.844-1.151,3.073c0.114,0.419,0.392,0.768,0.591,1.113
			c0.342-0.202,0.844-0.39,1.116-0.678c0.827-0.945,1.508-1.991,2.393-2.768c2.654-2.263,5.368-4.354,8.081-6.449
			c2.812-2.246,5.464-4.506,7.264-7.667c2.397-4.211,2.094-9.221-3.77-11.656C952.628,434.232,949.982,434.327,947.198,434.969z"/>
		<path d="M939.27,490.186c2.765,0.235,5.555,0.953,8.304,1.349c1.725,0.28,2.18-0.228,1.987-2.015
			c-0.48-4.87-1.195-9.757-1.192-14.646c0.034-5.852,2.153-11.139,7.036-14.748c2.275-1.747,4.966-2.955,7.592-4.26
			c8.73-4.449,16.754-9.705,23.409-16.96c3.379-3.7,6.163-7.79,7.295-12.789c2.69-11.642-2.203-22.542-12.801-28.248
			c-6.089-3.262-12.784-4.75-19.576-5.371c-10.886-1.086-21.528-0.141-31.859,3.643c-11.252,4.163-19.903,11.427-25.884,21.808
			c-1.984,3.378-3.117,7.017-2.863,11.056c0.312,4.925,3.02,8.442,6.765,11.279c2.716,2.073,5.739,3.547,9.044,4.647
			c7.458,2.456,11.878,7.773,13.483,15.333c1.041,4.848,1.44,9.707,0.869,14.688c-0.118,1.029-0.316,2.054-0.58,2.984
			c-0.445,1.789-1.553,2.387-3.531,2.239c-1.662-0.109-2.899-1.137-2.783-2.884c0.186-2.305,0.772-4.643,1.42-6.811
			c0.782-2.64,1.396-5.212,0.907-7.916c-0.891-4.751-3.909-7.664-8.28-9.208c-5.755-2.019-11.209-4.569-15.85-8.629
			c-6.744-5.91-9.156-13.399-7.992-22.161c1.067-7.899,4.612-14.468,10.054-20.174c12.8-13.445,28.62-19.892,46.776-20.936
			c11.414-0.694,22.666,0.674,33.234,5.251c6.61,2.923,12.116,7.084,15.602,13.576c2.694,5.037,3.594,10.436,3.343,16.095
			c-0.596,12.839-6.626,22.969-16.105,31.186c-4.26,3.759-9.2,6.479-14.342,8.855c-4.387,2.065-8.521,4.719-12.37,7.647
			c-4.46,3.418-6.477,7.751-6.098,13.489c0.222,4.353,0.44,8.707,1.465,12.994c0.31,1.48,0.276,3.157,0.014,4.736
			c-0.396,2.759-2.379,4.052-5.205,3.653c-3.92-0.614-7.823-1.383-11.752-1.913c-3.3-0.459-6.687-0.848-10.042-0.109
			c-2.542,0.59-4.402-0.585-4.698-2.864c-0.283-1.714,0.521-3.149,2.412-3.652c1.648-0.454,3.436-0.728,5.108-0.698
			C934.377,489.699,938.719,490.122,939.27,490.186z"/>
		<path d="M941.251,511.174c2.916,0.335,5.84,0.589,8.742,1.002c2.117,0.328,3.494,2.248,3.178,4.291
			c-0.277,1.737-2.33,2.943-4.3,2.718c-6.144-0.705-12.276-1.488-18.44-2.033c-2.127-0.244-4.222-0.082-6.383-0.013
			c-3.039,0.055-4.841-2.317-3.737-4.997c0.646-1.443,1.831-2.033,3.255-1.948C929.45,510.385,941.26,511.094,941.251,511.174z"/>
		<path d="M951.778,504.283c-0.316-0.036-0.63-0.072-0.878-0.02c-6.888-0.469-13.038-1.812-20.174-3.593
			c-2.031-0.397-3.29-0.543-4.323-0.576l0,0c-2.127-0.245-3.434,0.004-4.187,0.315c-0.334,0.128-0.587,0.255-0.853,0.467
			c-0.264,0.213-0.36,0.362-0.36,0.362l0,0c-0.561,0.734-0.759,1.758-0.711,2.724c0.072,1.448,1.084,2.363,2.809,2.646
			c0.631,0.074,1.26,0.146,1.901,0.135c4.764,0.226,12.447,0.707,14.26,0.913c1.653,0.192,3.388,0.39,5.041,0.579
			c1.652,0.189,3.377,0.472,5.03,0.661c1.892,0.217,3.614-0.869,4.029-2.423C953.77,504.994,953.283,504.375,951.778,504.283z"/>
	</g>
	<g>
		<path d="M1190.447,158.669c1.021-7.268-1.4-13.049-6.286-17.969c-8.425-8.455-22.067-7.52-28.994,2.093
			c-3.569,5.047-4.129,10.573-3.299,16.457c0.626,4.407,1.687,8.574,2.433,13.088c0.776,4.971,0.623,9.787-2.062,14.318
			c-0.304,0.593-0.122,1.61,0.252,2.152c0.256,0.436,1.618,0.351,1.949-0.021c1.396-1.349,3.017-2.715,3.83-4.376
			c2.748-5.337,2.259-11.124,1.217-16.76c-0.673-3.378-1.812-6.96-1.922-10.5c-0.128-3.753,0.306-7.677,1.117-11.282
			c0.884-3.941,3.969-5.748,8.062-6.025c8.874-0.611,17.785,6.55,18.226,15.321c0.158,4.215,1.307,6.077,5.086,8.105
			c9.825,5.38,11.115,16.607,2.959,23.225c-1.521,1.238-3.399,2.174-5.176,2.977c-7.125,3.002-14.461,4.309-22.375,3.817
			c-5.05-0.337-10.154,0.12-15.285,0.359c-2.498,0.167-4.478,1.452-5.469,3.8c-0.294,0.828-0.232,1.733-0.299,2.537
			c0.803,0.06,1.857,0.325,2.644,0.158c2.473-0.619,4.812-1.58,7.187-1.853c7.039-0.713,13.982-1.072,20.928-1.431
			c7.283-0.5,14.318-1.212,20.971-4.407c8.861-4.262,14.139-12.968,7.166-23.797
			C1200.357,163.708,1195.836,160.813,1190.447,158.669z"/>
		<path d="M1113.478,241.634c4.339,3.587,8.165,8.006,12.294,11.837c2.556,2.459,3.9,2.139,5.643-1.063
			c4.819-8.681,9.271-17.661,14.92-25.813c6.812-9.723,16.451-16.098,28.764-16.483c5.814-0.286,11.694,0.803,17.582,1.657
			c19.703,2.656,39.158,3.151,58.634-1.272c9.911-2.272,19.275-5.88,26.937-12.913c17.926-16.316,22.346-40.152,11.252-61.904
			c-6.393-12.473-15.843-22.683-26.458-31.561c-16.91-14.377-35.754-25.087-57.356-30.702c-23.58-6.042-46.397-3.912-68.359,6.503
			c-7.21,3.343-13.301,8.109-17.541,15.138c-5.165,8.579-4.708,17.572-1.736,26.628c2.14,6.593,5.483,12.542,9.724,18.195
			c9.607,12.708,10.844,26.68,4.795,41.146c-3.858,9.288-8.803,17.858-15.505,25.506c-1.386,1.58-2.899,3.062-4.413,4.309
			c-2.808,2.473-5.347,2.19-8.476-0.342c-2.648-2.101-3.527-5.244-1.315-8.023c2.97-3.63,6.648-6.854,10.231-9.723
			c4.351-3.501,8.344-7.084,10.651-12.157c3.999-8.955,2.327-17.299-3.184-24.925c-7.27-10.01-13.425-20.561-16.48-32.692
			c-4.428-17.645,0.192-32.923,12.249-46.199c10.899-11.948,24.397-18.814,40.062-22.051c36.875-7.654,70.711-0.147,102.208,19.07
			c19.843,12.021,37.034,27.291,49.384,47.129c7.652,12.507,12.037,25.805,10.359,40.66c-1.324,11.513-6.055,21.556-13.007,30.711
			c-15.816,20.731-37.568,30.668-62.874,33.436c-11.443,1.354-22.823,0.188-34.147-1.785c-9.702-1.618-19.66-1.964-29.462-1.521
			c-11.387,0.551-19.754,5.453-25.747,15.462c-4.654,7.52-9.317,15.035-12.556,23.375c-1.194,2.823-3.186,5.585-5.447,7.913
			c-3.845,4.146-8.645,4.014-12.902,0.089c-5.828-5.551-11.452-11.341-17.396-16.76c-4.975-4.573-10.176-9.134-16.625-11.777
			c-4.922-1.947-6.67-6.055-4.531-10.201c1.503-3.186,4.503-4.65,8.239-3.305c3.273,1.14,6.569,2.75,9.328,4.731
			C1105.877,235.178,1112.633,240.896,1113.478,241.634z"/>
		<path d="M1092.555,278.938c4.479,3.924,9.061,7.725,13.427,11.765c3.153,2.993,3.234,7.784,0.349,10.829
			c-2.469,2.574-7.285,2.221-10.311-0.432c-9.436-8.267-18.766-16.653-28.42-24.682c-3.265-2.86-6.945-5.009-10.633-7.387
			c-5.133-3.417-5.402-9.454-0.466-12.653c2.744-1.661,5.402-1.277,7.681,0.508C1073.778,264.001,1092.661,278.814,1092.555,278.938
			z"/>
		<path d="M1118.072,279.596c-0.486-0.422-0.969-0.845-1.443-1.046c-10.948-8.732-19.659-18.071-29.511-29.28
			c-2.929-3.01-4.859-4.706-6.546-5.952l0,0c-3.267-2.865-5.73-3.959-7.35-4.309c-0.704-0.171-1.271-0.252-1.959-0.205
			c-0.688,0.051-1.021,0.188-1.021,0.188l0,0c-1.782,0.581-3.292,2.059-4.33,3.724c-1.55,2.498-0.92,5.197,1.632,7.656
			c0.967,0.85,1.935,1.695,3.019,2.421c7.687,5.875,19.948,15.547,22.734,17.986c2.537,2.229,5.201,4.561,7.742,6.785
			c2.538,2.221,5.09,4.685,7.629,6.909c2.905,2.545,7.032,2.72,9.518,0.61C1120.57,283.08,1120.475,281.487,1118.072,279.596z"/>
	</g>
	<g>
		<path d="M1251.476,298.487c0.155-1.672-0.46-2.966-1.629-4.038c-2.016-1.84-5.122-1.48-6.602,0.79
			c-0.761,1.191-0.829,2.459-0.577,3.795c0.191,1,0.478,1.94,0.697,2.964c0.23,1.127,0.246,2.229-0.318,3.292
			c-0.062,0.14-0.01,0.369,0.08,0.489c0.064,0.097,0.375,0.063,0.445-0.026c0.305-0.322,0.66-0.652,0.828-1.04
			c0.57-1.249,0.396-2.565,0.099-3.842c-0.19-0.765-0.489-1.571-0.552-2.378c-0.069-0.856-0.013-1.757,0.135-2.589
			c0.158-0.91,0.844-1.356,1.775-1.464c2.021-0.234,4.134,1.306,4.328,3.305c0.082,0.962,0.364,1.374,1.25,1.797
			c2.302,1.123,2.717,3.674,0.925,5.273c-0.334,0.3-0.753,0.533-1.15,0.735c-1.595,0.763-3.257,1.14-5.07,1.113
			c-1.157-0.023-2.318,0.136-3.487,0.246c-0.57,0.064-1.008,0.379-1.209,0.926c-0.059,0.193-0.035,0.398-0.041,0.583
			c0.184,0.005,0.428,0.055,0.605,0.008c0.558-0.168,1.082-0.413,1.621-0.501c1.602-0.237,3.184-0.394,4.766-0.551
			c1.659-0.193,3.258-0.431,4.743-1.232c1.979-1.067,3.091-3.113,1.382-5.514C1253.793,299.532,1252.729,298.918,1251.476,298.487z"
			/>
		<path d="M1234.783,318.266c1.029,0.772,1.951,1.74,2.936,2.572c0.609,0.534,0.914,0.446,1.277-0.305
			c1.008-2.034,1.928-4.134,3.131-6.057c1.451-2.294,3.586-3.854,6.395-4.074c1.324-0.128,2.68,0.058,4.034,0.19
			c4.529,0.395,8.979,0.299,13.381-0.92c2.239-0.626,4.34-1.551,6.015-3.239c3.92-3.92,4.674-9.413,1.906-14.263
			c-1.595-2.781-3.863-5.012-6.384-6.926c-4.017-3.104-8.437-5.348-13.433-6.398c-5.451-1.127-10.641-0.396-15.546,2.22
			c-1.61,0.842-2.952,1.995-3.845,3.646c-1.088,2.016-0.887,4.064-0.11,6.102c0.56,1.483,1.387,2.807,2.417,4.052
			c2.331,2.8,2.764,5.979,1.536,9.349c-0.781,2.163-1.819,4.174-3.269,5.993c-0.299,0.376-0.629,0.73-0.961,1.032
			c-0.615,0.594-1.197,0.558-1.939,0.013c-0.628-0.451-0.863-1.16-0.387-1.818c0.639-0.861,1.445-1.638,2.232-2.332
			c0.957-0.846,1.83-1.707,2.303-2.892c0.817-2.088,0.346-3.977-0.994-5.659c-1.77-2.209-3.288-4.553-4.117-7.292
			c-1.2-3.983-0.309-7.522,2.303-10.685c2.361-2.847,5.371-4.56,8.916-5.468c8.342-2.145,16.151-0.792,23.553,3.26
			c4.662,2.532,8.754,5.836,11.787,10.235c1.883,2.775,3.027,5.767,2.803,9.178c-0.178,2.644-1.15,4.989-2.641,7.155
			c-3.391,4.905-8.254,7.41-14.004,8.313c-2.601,0.432-5.213,0.287-7.82-0.041c-2.233-0.266-4.513-0.237-6.747-0.032
			c-2.595,0.249-4.454,1.459-5.716,3.81c-0.982,1.768-1.967,3.535-2.617,5.474c-0.242,0.658-0.668,1.311-1.159,1.867
			c-0.834,0.988-1.932,1.01-2.946,0.158c-1.391-1.205-2.738-2.467-4.154-3.642c-1.186-0.991-2.422-1.978-3.925-2.512
			c-1.146-0.393-1.589-1.312-1.145-2.282c0.31-0.743,0.979-1.11,1.847-0.844c0.76,0.227,1.531,0.558,2.182,0.98
			C1232.977,316.873,1234.582,318.106,1234.783,318.266z"/>
		<path d="M1230.403,327.012c1.065,0.849,2.153,1.668,3.194,2.543c0.752,0.65,0.822,1.744,0.195,2.471
			c-0.536,0.614-1.641,0.585-2.359,0.012c-2.245-1.787-4.466-3.604-6.758-5.333c-0.777-0.618-1.641-1.069-2.508-1.573
			c-1.21-0.726-1.336-2.103-0.242-2.885c0.608-0.41,1.22-0.351,1.76,0.033C1225.953,323.801,1230.426,326.983,1230.403,327.012z"/>
		<path d="M1236.24,326.888c-0.116-0.092-0.23-0.183-0.342-0.223c-2.595-1.878-4.685-3.918-7.055-6.373
			c-0.702-0.656-1.162-1.022-1.561-1.29l0,0c-0.776-0.618-1.352-0.842-1.725-0.904c-0.162-0.031-0.293-0.044-0.45-0.025
			c-0.156,0.019-0.23,0.054-0.23,0.054l0,0c-0.401,0.151-0.73,0.505-0.949,0.896c-0.327,0.588-0.155,1.196,0.455,1.731
			c0.229,0.185,0.46,0.367,0.715,0.521c1.819,1.26,4.724,3.338,5.387,3.865c0.604,0.481,1.237,0.985,1.842,1.467
			c0.604,0.48,1.213,1.016,1.817,1.496c0.69,0.551,1.635,0.547,2.18,0.037C1236.849,327.658,1236.809,327.294,1236.24,326.888z"/>
	</g>
	<g>
		<path d="M470.883,537.189c-1.268-1.102-2.678-1.356-4.23-1.032c-2.67,0.562-4.19,3.296-3.21,5.821
			c0.524,1.314,1.514,2.109,2.746,2.683c0.923,0.429,1.854,0.744,2.814,1.163c1.05,0.471,1.954,1.101,2.488,2.18
			c0.076,0.133,0.293,0.225,0.444,0.22c0.116,0.006,0.27-0.267,0.239-0.377c-0.085-0.437-0.146-0.916-0.362-1.28
			c-0.683-1.19-1.854-1.817-3.064-2.32c-0.732-0.292-1.561-0.52-2.253-0.939c-0.736-0.443-1.435-1.014-2.024-1.619
			c-0.647-0.66-0.609-1.477-0.152-2.297c0.987-1.777,3.472-2.595,5.208-1.587c0.829,0.495,1.33,0.506,2.189,0.033
			c2.255-1.214,4.568-0.062,4.822,2.325c0.048,0.447-0.006,0.924-0.073,1.363c-0.312,1.741-0.976,3.312-2.055,4.769
			c-0.693,0.926-1.242,1.962-1.834,2.976c-0.279,0.5-0.28,1.04,0.047,1.521c0.123,0.16,0.304,0.261,0.45,0.374
			c0.111-0.146,0.293-0.315,0.36-0.487c0.188-0.551,0.296-1.12,0.539-1.609c0.74-1.438,1.538-2.815,2.333-4.192
			c0.812-1.459,1.551-2.896,1.767-4.571c0.287-2.229-0.726-4.326-3.672-4.338C473.083,535.917,471.965,536.423,470.883,537.189z"/>
		<path d="M477.208,562.286c1.228-0.386,2.553-0.569,3.801-0.884c0.791-0.184,0.897-0.482,0.499-1.215
			c-1.065-2.006-2.233-3.978-3.092-6.077c-1.017-2.518-1.039-5.16,0.422-7.57c0.668-1.15,1.609-2.143,2.507-3.165
			c2.963-3.448,5.48-7.118,7.059-11.405c0.797-2.183,1.273-4.429,0.878-6.774c-0.897-5.471-4.917-9.287-10.472-9.868
			c-3.188-0.327-6.325,0.214-9.35,1.145c-4.863,1.451-9.265,3.731-13.032,7.177c-4.096,3.77-6.529,8.411-7.267,13.92
			c-0.257,1.801-0.102,3.562,0.719,5.252c1.001,2.059,2.785,3.09,4.89,3.648c1.532,0.412,3.089,0.511,4.702,0.401
			c3.634-0.26,6.468,1.242,8.489,4.205c1.301,1.896,2.328,3.913,2.96,6.15c0.131,0.463,0.227,0.938,0.278,1.384
			c0.123,0.847-0.245,1.298-1.121,1.583c-0.733,0.246-1.445,0.022-1.703-0.747c-0.327-1.022-0.487-2.129-0.591-3.174
			c-0.129-1.271-0.319-2.482-1.006-3.558c-1.219-1.882-3.027-2.601-5.176-2.493c-2.825,0.147-5.616,0.014-8.323-0.91
			c-3.936-1.35-6.291-4.139-7.335-8.104c-0.934-3.579-0.57-7.022,0.76-10.431c3.126-8.026,8.78-13.581,16.388-17.228
			c4.777-2.31,9.848-3.705,15.191-3.603c3.352,0.09,6.449,0.905,9.089,3.077c2.044,1.688,3.38,3.847,4.271,6.319
			c2.006,5.616,1.203,11.026-1.417,16.224c-1.166,2.364-2.808,4.402-4.596,6.328c-1.519,1.659-2.826,3.526-3.962,5.462
			c-1.311,2.253-1.413,4.468-0.239,6.864c0.861,1.829,1.722,3.66,2.918,5.319c0.394,0.581,0.675,1.307,0.841,2.03
			c0.315,1.254-0.308,2.158-1.592,2.485c-1.79,0.427-3.601,0.785-5.38,1.249c-1.497,0.385-3.02,0.814-4.33,1.724
			c-0.987,0.701-1.992,0.523-2.521-0.402c-0.423-0.686-0.332-1.443,0.391-1.992c0.627-0.485,1.347-0.918,2.07-1.2
			C475.022,562.939,476.961,562.356,477.208,562.286z"/>
		<path d="M481.758,570.945c1.31-0.37,2.61-0.775,3.928-1.109c0.967-0.232,1.896,0.349,2.121,1.281
			c0.187,0.795-0.483,1.675-1.367,1.925c-2.761,0.779-5.532,1.523-8.273,2.375c-0.956,0.271-1.827,0.71-2.743,1.12
			c-1.295,0.56-2.485-0.142-2.484-1.486c0.023-0.732,0.427-1.195,1.054-1.41C476.553,572.687,481.747,570.91,481.758,570.945z"/>
		<path d="M485.062,566.133c-0.142,0.04-0.283,0.081-0.381,0.147c-3.039,1.012-5.916,1.519-9.292,2.013
			c-0.941,0.187-1.507,0.346-1.957,0.514l0,0c-0.956,0.27-1.473,0.607-1.742,0.873c-0.121,0.114-0.207,0.213-0.284,0.351
			c-0.076,0.138-0.091,0.219-0.091,0.219l0,0c-0.111,0.415-0.016,0.889,0.175,1.295c0.286,0.608,0.882,0.823,1.671,0.641
			c0.284-0.08,0.566-0.16,0.84-0.277c2.083-0.742,5.467-1.89,6.281-2.12c0.744-0.21,1.523-0.431,2.267-0.641
			c0.743-0.209,1.532-0.393,2.275-0.603c0.85-0.24,1.397-1.01,1.302-1.75C486.042,566.087,485.724,565.908,485.062,566.133z"/>
	</g>
	<g>
		<path d="M795.646,186.685c-2.128-4.234-5.536-6.411-9.937-7.229c-7.578-1.393-14.476,4.115-14.623,11.761
			c-0.039,3.991,1.692,7.127,4.296,9.947c1.951,2.108,4.043,3.931,6.098,6.053c2.238,2.354,3.924,4.967,4.164,8.357
			c0.056,0.427,0.526,0.898,0.922,1.05c0.297,0.138,0.989-0.408,1.027-0.728c0.246-1.229,0.604-2.55,0.427-3.729
			c-0.502-3.842-2.887-6.733-5.511-9.344c-1.598-1.546-3.519-3.029-4.876-4.868c-1.447-1.946-2.657-4.187-3.55-6.397
			c-0.98-2.417-0.006-4.509,2.064-6.161c4.486-3.583,11.847-3.054,15.301,1.439c1.634,2.18,2.926,2.745,5.679,2.434
			c7.189-0.752,11.996,4.733,10.1,11.24c-0.352,1.219-1.006,2.403-1.653,3.481c-2.679,4.212-6.095,7.599-10.475,10.246
			c-2.805,1.676-5.347,3.792-7.981,5.805c-1.266,1.006-1.844,2.415-1.508,4.024c0.148,0.549,0.514,1.006,0.773,1.458
			c0.448-0.264,1.105-0.51,1.463-0.888c1.082-1.237,1.973-2.607,3.132-3.624c3.475-2.963,7.029-5.703,10.583-8.445
			c3.683-2.941,7.155-5.901,9.513-10.042c3.138-5.515,2.741-12.075-4.938-15.264C802.758,185.72,799.293,185.844,795.646,186.685z"
			/>
		<path d="M785.264,258.994c3.62,0.308,7.273,1.249,10.873,1.767c2.259,0.367,2.855-0.298,2.604-2.638
			c-0.63-6.378-1.566-12.779-1.562-19.181c0.045-7.662,2.819-14.586,9.215-19.313c2.979-2.288,6.501-3.87,9.941-5.579
			c11.434-5.827,21.94-12.709,30.656-22.21c4.423-4.845,8.069-10.201,9.553-16.747c3.522-15.245-2.887-29.52-16.764-36.993
			c-7.974-4.272-16.742-6.221-25.637-7.034c-14.255-1.422-28.192-0.185-41.722,4.771c-14.733,5.452-26.063,14.963-33.896,28.558
			c-2.599,4.424-4.082,9.189-3.75,14.479c0.409,6.449,3.955,11.055,8.858,14.771c3.558,2.715,7.517,4.644,11.844,6.086
			c9.768,3.217,15.556,10.179,17.657,20.079c1.363,6.348,1.886,12.712,1.138,19.233c-0.154,1.348-0.413,2.69-0.759,3.908
			c-0.583,2.344-2.032,3.126-4.623,2.933c-2.179-0.143-3.799-1.487-3.646-3.775c0.242-3.019,1.011-6.081,1.858-8.919
			c1.024-3.456,1.827-6.824,1.188-10.366c-1.166-6.221-5.119-10.036-10.843-12.059c-7.536-2.644-14.68-5.984-20.757-11.301
			c-8.831-7.74-11.991-17.546-10.466-29.021c1.397-10.345,6.039-18.947,13.165-26.419c16.763-17.607,37.48-26.05,61.257-27.417
			c14.947-0.91,29.682,0.882,43.521,6.877c8.657,3.829,15.868,9.277,20.433,17.778c3.527,6.596,4.705,13.666,4.377,21.078
			c-0.781,16.813-8.677,30.08-21.091,40.84c-5.579,4.922-12.049,8.484-18.782,11.595c-5.744,2.704-11.157,6.18-16.199,10.014
			c-5.84,4.476-8.48,10.151-7.984,17.665c0.29,5.7,0.576,11.402,1.919,17.017c0.405,1.938,0.361,4.134,0.017,6.202
			c-0.519,3.614-3.115,5.306-6.816,4.785c-5.133-0.805-10.244-1.812-15.391-2.505c-4.32-0.601-8.755-1.112-13.15-0.144
			c-3.327,0.772-5.764-0.766-6.151-3.751c-0.371-2.244,0.682-4.124,3.158-4.782c2.158-0.596,4.499-0.954,6.689-0.916
			C778.856,258.356,784.543,258.91,785.264,258.994z"/>
		<path d="M787.857,286.479c3.82,0.438,7.648,0.771,11.449,1.312c2.772,0.43,4.575,2.944,4.162,5.621
			c-0.364,2.273-3.053,3.853-5.631,3.558c-8.046-0.923-16.078-1.949-24.15-2.662c-2.784-0.32-5.526-0.108-8.358-0.017
			c-3.979,0.072-6.339-3.034-4.894-6.543c0.847-1.891,2.398-2.662,4.263-2.553C772.404,285.445,787.869,286.374,787.857,286.479z"/>
		<path d="M801.644,277.455c-0.414-0.047-0.824-0.094-1.149-0.025c-9.02-0.614-17.073-2.373-26.419-4.705
			c-2.66-0.521-4.308-0.711-5.661-0.755l0,0c-2.786-0.319-4.496,0.006-5.482,0.414c-0.437,0.168-0.769,0.333-1.117,0.612
			c-0.346,0.278-0.471,0.474-0.471,0.474l0,0c-0.734,0.962-0.993,2.301-0.931,3.567c0.095,1.896,1.419,3.096,3.678,3.464
			c0.825,0.097,1.649,0.19,2.49,0.176c6.237,0.295,16.3,0.927,18.675,1.196c2.164,0.251,4.436,0.51,6.601,0.759
			c2.163,0.248,4.422,0.617,6.587,0.865c2.478,0.284,4.733-1.138,5.276-3.173C804.251,278.387,803.614,277.576,801.644,277.455z"/>
	</g>
	<g>
		<path d="M967.126,124.59c-1.797-1.014-3.557-0.975-5.348-0.203c-3.078,1.335-4.235,5-2.435,7.801
			c0.956,1.453,2.342,2.167,3.968,2.556c1.217,0.289,2.416,0.44,3.673,0.709c1.382,0.308,2.625,0.843,3.535,2.011
			c0.124,0.141,0.408,0.197,0.588,0.156c0.142-0.023,0.26-0.388,0.194-0.512c-0.209-0.505-0.399-1.069-0.749-1.453
			c-1.114-1.267-2.679-1.734-4.261-2.041c-0.953-0.172-2.008-0.243-2.945-0.578c-0.994-0.353-1.977-0.869-2.836-1.452
			c-0.939-0.637-1.096-1.63-0.748-2.729c0.753-2.385,3.543-3.979,5.882-3.193c1.12,0.392,1.726,0.283,2.645-0.498
			c2.418-2.017,5.487-1.2,6.38,1.614c0.168,0.526,0.22,1.113,0.248,1.66c0.053,2.173-0.36,4.228-1.303,6.247
			c-0.607,1.287-1.014,2.669-1.478,4.036c-0.214,0.671-0.081,1.321,0.431,1.821c0.188,0.163,0.43,0.239,0.635,0.339
			c0.097-0.204,0.275-0.452,0.312-0.676c0.091-0.71,0.081-1.422,0.253-2.07c0.539-1.916,1.158-3.769,1.778-5.622
			c0.618-1.958,1.155-3.871,1.003-5.939c-0.202-2.757-1.938-5.033-5.489-4.323C969.463,122.516,968.241,123.402,967.126,124.59z"/>
		<path d="M980.919,153.259c1.383-0.766,2.932-1.313,4.36-2c0.906-0.416,0.96-0.801,0.3-1.585c-1.773-2.154-3.667-4.241-5.218-6.558
			c-1.844-2.782-2.521-5.959-1.355-9.22c0.523-1.55,1.413-2.978,2.243-4.43c2.72-4.882,4.85-9.92,5.695-15.471
			c0.425-2.826,0.444-5.647-0.608-8.375c-2.426-6.368-8.207-9.975-15.04-9.31c-3.92,0.39-7.563,1.813-10.978,3.677
			c-5.5,2.945-10.24,6.775-13.931,11.851c-4.005,5.547-5.794,11.736-5.328,18.553c0.135,2.229,0.755,4.313,2.158,6.145
			c1.713,2.234,4.112,3.039,6.788,3.192c1.944,0.119,3.845-0.145,5.76-0.673c4.312-1.206,8.096-0.093,11.259,2.977
			c2.033,1.964,3.767,4.139,5.078,6.679c0.271,0.525,0.503,1.073,0.674,1.598c0.357,0.988,0.023,1.623-0.961,2.182
			c-0.822,0.477-1.734,0.384-2.234-0.48c-0.645-1.151-1.108-2.445-1.491-3.678c-0.47-1.498-0.995-2.911-2.086-4.037
			c-1.932-1.967-4.287-2.387-6.849-1.73c-3.365,0.873-6.761,1.398-10.248,0.95c-5.071-0.656-8.593-3.436-10.827-7.955
			c-2.005-4.081-2.413-8.318-1.649-12.749c1.789-10.435,7.232-18.516,15.498-24.78c5.186-3.956,10.949-6.883,17.408-8.074
			c4.06-0.716,7.99-0.495,11.704,1.471c2.876,1.529,5.018,3.8,6.697,6.56c3.798,6.27,4.161,12.983,2.282,19.887
			c-0.822,3.134-2.297,5.992-3.978,8.751c-1.421,2.372-2.535,4.942-3.427,7.552c-1.026,3.036-0.604,5.729,1.398,8.326
			c1.487,1.991,2.976,3.984,4.822,5.689c0.617,0.602,1.135,1.407,1.512,2.239c0.689,1.432,0.161,2.674-1.304,3.384
			c-2.052,0.954-4.145,1.832-6.174,2.828c-1.708,0.832-3.437,1.724-4.792,3.14c-1.015,1.086-2.27,1.122-3.134,0.136
			c-0.679-0.722-0.754-1.657-0.018-2.496c0.636-0.74,1.395-1.437,2.197-1.955C978.445,154.584,980.638,153.404,980.919,153.259z"/>
		<path d="M988.525,162.57c1.488-0.769,2.954-1.577,4.459-2.304c1.107-0.518,2.37-0.046,2.869,1.022
			c0.42,0.911-0.169,2.135-1.173,2.654c-3.134,1.618-6.287,3.196-9.379,4.897c-1.085,0.561-2.025,1.302-3.027,2.022
			c-1.422,0.992-3.029,0.44-3.357-1.179c-0.153-0.888,0.222-1.545,0.922-1.958C982.687,165.946,988.505,162.529,988.525,162.57z"/>
		<path d="M991.322,155.961c-0.161,0.083-0.321,0.166-0.423,0.27c-3.411,1.967-6.751,3.286-10.695,4.709
			c-1.089,0.458-1.73,0.788-2.23,1.101l0,0c-1.084,0.56-1.624,1.093-1.882,1.48c-0.118,0.167-0.198,0.307-0.256,0.492
			s-0.055,0.286-0.055,0.286l0,0c-0.033,0.526,0.199,1.074,0.527,1.516c0.496,0.662,1.266,0.775,2.172,0.359
			c0.321-0.165,0.643-0.331,0.943-0.54c2.328-1.407,6.118-3.62,7.043-4.099c0.845-0.435,1.729-0.893,2.571-1.328
			c0.843-0.436,1.75-0.851,2.593-1.286c0.965-0.499,1.436-1.56,1.138-2.428C992.491,155.665,992.064,155.526,991.322,155.961z"/>
	</g>
	<g>
		<path d="M1087.146,46.644c-0.272-1.695-1.238-2.857-2.71-3.695c-2.543-1.432-5.63-0.46-6.559,2.09
			c-0.472,1.337-0.214,2.612,0.391,3.889c0.455,0.957,0.993,1.835,1.48,2.812c0.526,1.075,0.831,2.168,0.526,3.338
			c-0.026,0.15,0.084,0.368,0.212,0.47c0.088,0.083,0.396-0.011,0.445-0.113c0.23-0.382,0.508-0.782,0.578-1.199
			c0.264-1.356-0.256-2.632-0.892-3.842c-0.393-0.723-0.907-1.465-1.183-2.256c-0.291-0.839-0.464-1.746-0.531-2.601
			c-0.072-0.937,0.516-1.518,1.443-1.809c2.008-0.631,4.569,0.483,5.286,2.432c0.333,0.94,0.729,1.295,1.745,1.539
			c2.647,0.664,3.732,3.118,2.312,5.064c-0.265,0.365-0.635,0.681-0.986,0.96c-1.438,1.073-3.044,1.777-4.907,2.107
			c-1.192,0.208-2.34,0.595-3.509,0.936c-0.566,0.177-0.935,0.577-0.997,1.159c-0.009,0.204,0.067,0.405,0.108,0.589
			c0.188-0.032,0.452-0.032,0.622-0.113c0.527-0.276,1.001-0.624,1.531-0.818c1.579-0.553,3.157-1.022,4.737-1.492
			c1.648-0.518,3.224-1.071,4.539-2.161c1.75-1.454,2.359-3.707-0.011-5.759C1089.791,47.225,1088.541,46.826,1087.146,46.644z"/>
		<path d="M1075.168,69.619c1.255,0.565,2.449,1.347,3.673,1.979c0.763,0.41,1.052,0.262,1.229-0.555
			c0.507-2.225,0.906-4.495,1.641-6.644c0.892-2.57,2.675-4.544,5.495-5.315c1.322-0.39,2.759-0.472,4.18-0.611
			c4.74-0.502,9.274-1.476,13.467-3.558c2.13-1.066,4.043-2.399,5.32-4.411c3.001-4.674,2.353-10.287-1.736-14.565
			c-2.353-2.451-5.255-4.221-8.33-5.629c-4.917-2.293-10.025-3.651-15.411-3.708c-5.876-0.045-11.001,1.709-15.349,5.279
			c-1.433,1.157-2.508,2.569-2.994,4.388c-0.594,2.22,0.145,4.218,1.465,6.094c0.956,1.365,2.147,2.516,3.522,3.552
			c3.115,2.324,4.38,5.4,3.994,8.995c-0.24,2.308-0.782,4.513-1.796,6.609c-0.21,0.433-0.457,0.851-0.719,1.216
			c-0.474,0.711-1.082,0.79-1.983,0.397c-0.76-0.326-1.183-0.985-0.864-1.734c0.431-0.983,1.055-1.913,1.681-2.758
			c0.763-1.033,1.435-2.062,1.611-3.333c0.297-2.24-0.675-4.024-2.482-5.433c-2.384-1.848-4.545-3.881-6.104-6.441
			c-2.259-3.726-2.263-7.421-0.407-11.084c1.684-3.299,4.322-5.599,7.718-7.2c7.988-3.783,16.335-3.981,24.965-1.413
			c5.43,1.597,10.475,4.074,14.72,7.853c2.646,2.386,4.594,5.139,5.245,8.576c0.503,2.663,0.113,5.19-0.854,7.637
			c-2.2,5.551-6.534,9.003-12.19,11.039c-2.55,0.943-5.263,1.317-8.018,1.504c-2.356,0.177-4.686,0.657-6.921,1.304
			c-2.593,0.76-4.183,2.329-4.866,4.918c-0.549,1.953-1.103,3.904-1.267,5.963c-0.075,0.701-0.343,1.435-0.702,2.085
			c-0.6,1.148-1.718,1.387-2.977,0.74c-1.736-0.924-3.443-1.913-5.198-2.802c-1.47-0.751-2.993-1.488-4.669-1.722
			c-1.273-0.167-1.966-0.993-1.762-2.044c0.124-0.801,0.715-1.3,1.672-1.205c0.836,0.075,1.712,0.252,2.49,0.545
			C1072.957,68.589,1074.921,69.5,1075.168,69.619z"/>
		<path d="M1072.946,79.185c1.311,0.634,2.636,1.234,3.93,1.899c0.938,0.497,1.294,1.571,0.84,2.417
			c-0.392,0.72-1.528,0.906-2.414,0.479c-2.763-1.334-5.507-2.701-8.301-3.968c-0.957-0.464-1.958-0.74-2.977-1.07
			c-1.427-0.483-1.911-1.829-0.994-2.822c0.519-0.527,1.159-0.589,1.812-0.315C1067.559,76.871,1072.962,79.153,1072.946,79.185z"/>
		<path d="M1078.893,77.91c-0.144-0.07-0.285-0.136-0.406-0.155c-3.145-1.356-5.812-2.973-8.877-4.946
			c-0.888-0.513-1.455-0.787-1.93-0.975l0,0c-0.957-0.463-1.603-0.571-2.002-0.559c-0.173,0.001-0.311,0.014-0.467,0.063
			c-0.156,0.05-0.223,0.099-0.223,0.099l0,0c-0.372,0.231-0.617,0.646-0.74,1.08c-0.184,0.65,0.15,1.22,0.914,1.632
			c0.284,0.138,0.567,0.274,0.866,0.376c2.191,0.894,5.701,2.387,6.518,2.779c0.742,0.361,1.522,0.738,2.266,1.096
			c0.743,0.36,1.505,0.771,2.248,1.13c0.85,0.411,1.817,0.22,2.243-0.394C1079.714,78.555,1079.58,78.2,1078.893,77.91z"/>
	</g>
	<g>
		<path d="M395.695,329.635c-3.199-1.621-6.253-1.415-9.3,0.066c-5.239,2.56-6.962,9.012-3.614,13.735
			c1.77,2.447,4.234,3.578,7.087,4.125c2.135,0.407,4.229,0.576,6.433,0.943c2.421,0.428,4.623,1.26,6.293,3.217
			c0.226,0.233,0.724,0.311,1.034,0.223c0.243-0.048,0.419-0.693,0.298-0.903c-0.403-0.859-0.779-1.823-1.417-2.464
			c-2.034-2.113-4.786-2.801-7.557-3.21c-1.667-0.223-3.503-0.263-5.157-0.77c-1.756-0.536-3.5-1.356-5.038-2.299
			c-1.684-1.033-2.031-2.743-1.514-4.679c1.12-4.199,5.84-7.187,9.962-6.004c1.975,0.593,3.016,0.354,4.552-1.072
			c4.04-3.69,9.432-2.512,11.203,2.303c0.334,0.899,0.467,1.915,0.559,2.862c0.263,3.77-0.294,7.366-1.771,10.948
			c-0.955,2.28-1.55,4.713-2.249,7.122c-0.318,1.181-0.038,2.299,0.891,3.127c0.337,0.267,0.764,0.384,1.126,0.541
			c0.153-0.361,0.443-0.808,0.491-1.197c0.103-1.239,0.029-2.474,0.277-3.615c0.783-3.367,1.716-6.632,2.646-9.898
			c0.918-3.446,1.703-6.812,1.275-10.391c-0.567-4.769-3.759-8.584-9.867-7.074C399.591,325.851,397.538,327.484,395.695,329.635z"
			/>
		<path d="M421.886,378.327c2.343-1.439,4.99-2.512,7.414-3.813c1.54-0.793,1.604-1.467,0.398-2.777
			c-3.25-3.601-6.699-7.076-9.575-10.975c-3.417-4.686-4.842-10.149-3.073-15.902c0.784-2.733,2.217-5.28,3.544-7.867
			c4.341-8.688,7.644-17.603,8.676-27.305c0.515-4.94,0.328-9.84-1.713-14.492c-4.71-10.865-15.03-16.674-26.838-14.983
			c-6.775,0.984-12.99,3.74-18.771,7.244c-9.319,5.543-17.247,12.564-23.256,21.664c-6.519,9.944-9.139,20.83-7.795,32.626
			c0.408,3.861,1.647,7.431,4.227,10.501c3.149,3.742,7.379,4.952,12.035,5.008c3.386,0.054,6.664-0.551,9.947-1.619
			c7.393-2.435,14.047-0.797,19.778,4.285c3.685,3.252,6.864,6.893,9.342,11.198c0.511,0.891,0.958,1.823,1.294,2.72
			c0.699,1.69,0.168,2.818-1.497,3.866c-1.389,0.891-2.981,0.801-3.917-0.662c-1.209-1.946-2.118-4.155-2.879-6.264
			c-0.93-2.566-1.956-4.978-3.938-6.847c-3.506-3.263-7.628-3.807-12.023-2.466c-5.776,1.779-11.627,2.956-17.718,2.453
			c-8.856-0.743-15.188-5.292-19.419-12.963c-3.801-6.926-4.843-14.25-3.863-22.004c2.289-18.257,11.105-32.712,24.965-44.234
			c8.691-7.274,18.468-12.809,29.589-15.382c6.993-1.562,13.832-1.485,20.432,1.638c5.115,2.429,9.01,6.204,12.143,10.863
			c7.084,10.588,8.24,22.214,5.522,34.346c-1.183,5.507-3.521,10.583-6.221,15.506c-2.282,4.229-4.016,8.778-5.359,13.378
			c-1.544,5.353-0.601,9.994,3.081,14.346c2.739,3.34,5.476,6.684,8.818,9.498c1.118,0.997,2.08,2.355,2.799,3.768
			c1.308,2.432,0.488,4.631-1.999,5.979c-3.486,1.817-7.051,3.502-10.497,5.395c-2.899,1.577-5.829,3.261-8.069,5.825
			c-1.679,1.967-3.855,2.125-5.432,0.482c-1.235-1.2-1.439-2.816-0.228-4.331c1.045-1.333,2.309-2.604,3.661-3.565
			C417.699,380.819,421.411,378.6,421.886,378.327z"/>
		<path d="M435.823,393.893c2.522-1.45,5.005-2.969,7.56-4.35c1.882-0.985,4.11-0.265,5.061,1.552
			c0.801,1.548-0.125,3.718-1.828,4.698c-5.313,3.054-10.664,6.041-15.9,9.237c-1.84,1.058-3.413,2.42-5.097,3.747
			c-2.391,1.834-5.223,1.003-5.92-1.783c-0.336-1.531,0.263-2.697,1.445-3.469C425.952,400.211,435.784,393.824,435.823,393.893z"/>
		<path d="M440.16,382.2c-0.273,0.159-0.544,0.313-0.711,0.503c-5.768,3.68-11.463,6.231-18.201,9.014
			c-1.853,0.878-2.941,1.504-3.787,2.084l0,0c-1.837,1.06-2.732,2.025-3.152,2.718c-0.19,0.298-0.317,0.549-0.403,0.874
			c-0.085,0.326-0.075,0.501-0.075,0.501l0,0c-0.015,0.916,0.43,1.848,1.037,2.591c0.912,1.11,2.257,1.246,3.797,0.455
			c0.546-0.312,1.091-0.625,1.596-1.012c3.93-2.626,10.341-6.765,11.907-7.668c1.431-0.822,2.929-1.683,4.36-2.507
			c1.429-0.822,2.969-1.612,4.4-2.435c1.635-0.941,2.37-2.82,1.786-4.304C442.165,381.595,441.414,381.389,440.16,382.2z"/>
	</g>
	<g>
		<path d="M520.07,151.005c-1.077-0.832-2.23-0.973-3.471-0.638c-2.135,0.58-3.238,2.863-2.327,4.861
			c0.485,1.039,1.324,1.636,2.348,2.043c0.767,0.304,1.536,0.516,2.331,0.81c0.872,0.332,1.633,0.799,2.116,1.647
			c0.068,0.104,0.248,0.167,0.37,0.157c0.094-0.001,0.206-0.228,0.175-0.316c-0.088-0.349-0.16-0.735-0.352-1.019
			c-0.608-0.933-1.584-1.386-2.588-1.735c-0.606-0.202-1.288-0.348-1.867-0.655c-0.617-0.324-1.208-0.754-1.714-1.216
			c-0.554-0.504-0.562-1.167-0.23-1.852c0.717-1.485,2.689-2.262,4.141-1.528c0.694,0.361,1.099,0.347,1.773-0.075
			c1.769-1.087,3.694-0.264,4.012,1.657c0.06,0.359,0.038,0.747,0.004,1.107c-0.171,1.423-0.635,2.725-1.44,3.955
			c-0.518,0.782-0.914,1.646-1.346,2.494c-0.203,0.418-0.178,0.854,0.109,1.229c0.106,0.124,0.257,0.197,0.381,0.282
			c0.083-0.125,0.223-0.27,0.269-0.412c0.127-0.455,0.187-0.92,0.361-1.328c0.532-1.199,1.112-2.35,1.691-3.501
			c0.588-1.219,1.121-2.417,1.217-3.782c0.128-1.818-0.79-3.468-3.174-3.34C521.792,149.872,520.91,150.334,520.07,151.005z"/>
		<path d="M526.36,171.021c0.977-0.37,2.039-0.581,3.036-0.893c0.63-0.186,0.702-0.432,0.346-1.007
			c-0.955-1.573-1.992-3.115-2.787-4.773c-0.94-1.99-1.081-4.128-0.012-6.146c0.487-0.962,1.203-1.81,1.881-2.679
			c2.238-2.929,4.104-6.016,5.181-9.559c0.544-1.805,0.823-3.645,0.394-5.523c-0.981-4.386-4.414-7.287-8.935-7.499
			c-2.596-0.116-5.109,0.469-7.513,1.363c-3.869,1.402-7.325,3.453-10.213,6.417c-3.139,3.242-4.892,7.112-5.232,11.606
			c-0.124,1.468,0.084,2.887,0.827,4.215c0.907,1.619,2.397,2.372,4.129,2.725c1.258,0.261,2.523,0.27,3.823,0.105
			c2.929-0.38,5.292,0.705,7.066,3.008c1.142,1.474,2.067,3.058,2.684,4.839c0.127,0.368,0.227,0.749,0.289,1.106
			c0.14,0.679-0.138,1.062-0.833,1.334c-0.582,0.233-1.168,0.086-1.414-0.525c-0.312-0.812-0.493-1.7-0.626-2.541
			c-0.164-1.022-0.374-1.995-0.979-2.832c-1.075-1.467-2.572-1.964-4.306-1.777c-2.28,0.251-4.545,0.273-6.779-0.349
			c-3.248-0.907-5.284-3.055-6.314-6.216c-0.923-2.853-0.79-5.657,0.128-8.477c2.154-6.642,6.472-11.401,12.459-14.708
			c3.758-2.092,7.797-3.458,12.125-3.624c2.718-0.084,5.262,0.432,7.5,2.066c1.732,1.27,2.916,2.955,3.751,4.915
			c1.886,4.451,1.488,8.867-0.39,13.196c-0.833,1.968-2.067,3.693-3.424,5.335c-1.152,1.413-2.123,2.986-2.952,4.605
			c-0.957,1.884-0.936,3.682,0.126,5.566c0.783,1.44,1.565,2.881,2.61,4.169c0.346,0.452,0.607,1.026,0.774,1.604
			c0.314,1-0.147,1.761-1.171,2.086c-1.429,0.429-2.878,0.803-4.297,1.262c-1.193,0.381-2.405,0.799-3.423,1.596
			c-0.766,0.613-1.588,0.518-2.059-0.207c-0.375-0.535-0.335-1.153,0.224-1.631c0.485-0.422,1.046-0.806,1.619-1.068
			C524.622,171.651,526.164,171.089,526.36,171.021z"/>
		<path d="M530.446,177.817c1.043-0.361,2.076-0.75,3.127-1.083c0.772-0.232,1.551,0.195,1.776,0.939
			c0.188,0.634-0.312,1.377-1.016,1.621c-2.199,0.76-4.406,1.492-6.585,2.31c-0.761,0.263-1.445,0.659-2.167,1.034
			c-1.022,0.513-2.019,0.001-2.08-1.087c-0.016-0.595,0.29-0.987,0.787-1.19C526.316,179.468,530.436,177.788,530.446,177.817z"/>
		<path d="M532.896,173.768c-0.113,0.039-0.225,0.078-0.301,0.136c-2.412,0.961-4.716,1.506-7.426,2.062
			c-0.754,0.195-1.204,0.351-1.561,0.507l0,0c-0.761,0.263-1.163,0.56-1.368,0.788c-0.092,0.098-0.158,0.182-0.213,0.297
			c-0.055,0.115-0.063,0.181-0.063,0.181l0,0c-0.071,0.34,0.028,0.719,0.202,1.039c0.26,0.479,0.752,0.625,1.383,0.441
			c0.226-0.078,0.451-0.156,0.667-0.264c1.652-0.698,4.336-1.785,4.984-2.009c0.592-0.204,1.212-0.419,1.804-0.624
			c0.591-0.205,1.222-0.39,1.813-0.594c0.676-0.234,1.084-0.882,0.972-1.477C533.687,173.685,533.421,173.554,532.896,173.768z"/>
	</g>
	<g>
		<path d="M664.072,270.033c-0.432-0.86-1.125-1.303-2.018-1.469c-1.539-0.282-2.94,0.836-2.97,2.389
			c-0.008,0.811,0.343,1.448,0.872,2.021c0.396,0.429,0.821,0.799,1.238,1.229c0.455,0.479,0.797,1.009,0.846,1.697
			c0.012,0.087,0.107,0.183,0.188,0.214c0.061,0.027,0.201-0.083,0.209-0.148c0.05-0.249,0.123-0.518,0.086-0.757
			c-0.102-0.78-0.586-1.368-1.119-1.898c-0.325-0.313-0.715-0.615-0.991-0.988c-0.294-0.396-0.54-0.851-0.721-1.3
			c-0.199-0.49-0.001-0.916,0.419-1.251c0.911-0.728,2.406-0.62,3.108,0.292c0.332,0.443,0.595,0.558,1.153,0.495
			c1.461-0.153,2.438,0.961,2.052,2.282c-0.071,0.248-0.204,0.488-0.336,0.707c-0.544,0.855-1.237,1.544-2.127,2.081
			c-0.57,0.341-1.086,0.771-1.621,1.18c-0.257,0.204-0.375,0.49-0.307,0.817c0.03,0.111,0.104,0.204,0.157,0.296
			c0.091-0.054,0.225-0.104,0.297-0.181c0.22-0.251,0.401-0.529,0.637-0.736c0.706-0.602,1.428-1.158,2.149-1.715
			c0.748-0.598,1.453-1.199,1.932-2.04c0.639-1.12,0.558-2.452-1.002-3.1C665.517,269.836,664.812,269.862,664.072,270.033z"/>
		<path d="M661.963,284.719c0.735,0.062,1.478,0.254,2.208,0.359c0.459,0.074,0.58-0.061,0.529-0.536
			c-0.129-1.296-0.318-2.596-0.317-3.896c0.009-1.556,0.573-2.962,1.872-3.922c0.604-0.465,1.32-0.786,2.019-1.134
			c2.322-1.184,4.456-2.581,6.227-4.511c0.898-0.984,1.64-2.072,1.94-3.401c0.715-3.097-0.586-5.996-3.404-7.514
			c-1.62-0.868-3.4-1.264-5.207-1.429c-2.896-0.289-5.727-0.038-8.475,0.969c-2.992,1.107-5.294,3.039-6.884,5.801
			c-0.528,0.898-0.83,1.866-0.762,2.94c0.083,1.311,0.803,2.245,1.799,3c0.722,0.552,1.526,0.943,2.405,1.236
			c1.984,0.653,3.16,2.067,3.586,4.078c0.277,1.29,0.383,2.582,0.231,3.907c-0.031,0.273-0.084,0.546-0.154,0.794
			c-0.119,0.476-0.413,0.635-0.939,0.596c-0.442-0.029-0.771-0.303-0.741-0.768c0.049-0.613,0.206-1.234,0.378-1.812
			c0.208-0.702,0.371-1.386,0.241-2.105c-0.237-1.264-1.04-2.038-2.203-2.449c-1.53-0.537-2.981-1.216-4.216-2.296
			c-1.793-1.571-2.435-3.563-2.125-5.895c0.284-2.101,1.227-3.848,2.674-5.365c3.405-3.577,7.613-5.291,12.441-5.569
			c3.037-0.185,6.029,0.18,8.84,1.397c1.76,0.777,3.224,1.884,4.15,3.61c0.717,1.34,0.955,2.775,0.889,4.281
			c-0.158,3.415-1.762,6.109-4.283,8.295c-1.133,1-2.447,1.724-3.814,2.355c-1.167,0.549-2.267,1.255-3.291,2.034
			c-1.186,0.909-1.723,2.062-1.621,3.588c0.059,1.157,0.117,2.315,0.389,3.456c0.083,0.394,0.074,0.84,0.004,1.26
			c-0.105,0.734-0.633,1.078-1.385,0.972c-1.042-0.163-2.08-0.367-3.125-0.509c-0.877-0.122-1.778-0.226-2.671-0.029
			c-0.676,0.157-1.171-0.155-1.25-0.762c-0.075-0.455,0.139-0.837,0.642-0.971c0.438-0.121,0.914-0.194,1.359-0.187
			C660.662,284.59,661.817,284.703,661.963,284.719z"/>
		<path d="M662.491,290.302c0.775,0.089,1.553,0.156,2.326,0.267c0.562,0.087,0.929,0.598,0.845,1.142
			c-0.073,0.461-0.62,0.782-1.144,0.723c-1.634-0.188-3.266-0.396-4.905-0.541c-0.566-0.065-1.123-0.021-1.698-0.004
			c-0.808,0.015-1.288-0.616-0.994-1.328c0.172-0.385,0.487-0.541,0.866-0.519C659.352,290.092,662.493,290.281,662.491,290.302z"/>
		<path d="M665.291,288.469c-0.084-0.01-0.168-0.02-0.234-0.005c-1.832-0.125-3.467-0.482-5.366-0.956
			c-0.54-0.105-0.875-0.145-1.15-0.153l0,0c-0.565-0.064-0.913,0.001-1.113,0.084c-0.089,0.034-0.156,0.067-0.227,0.124
			c-0.07,0.057-0.096,0.097-0.096,0.097l0,0c-0.149,0.195-0.202,0.468-0.189,0.725c0.019,0.385,0.288,0.629,0.747,0.703
			c0.167,0.02,0.335,0.039,0.506,0.036c1.267,0.06,3.311,0.188,3.793,0.243c0.439,0.051,0.901,0.104,1.341,0.154
			c0.439,0.05,0.898,0.125,1.338,0.176c0.503,0.057,0.961-0.231,1.072-0.645C665.82,288.659,665.691,288.494,665.291,288.469z"/>
	</g>
	<g>
		<path d="M253.165,713.804c0.524-3.2-0.487-5.778-2.595-8.001c-3.637-3.822-9.673-3.549-12.832,0.628
			c-1.629,2.193-1.933,4.627-1.625,7.237c0.23,1.953,0.657,3.805,0.94,5.807c0.292,2.204,0.175,4.331-1.059,6.304
			c-0.14,0.26-0.069,0.711,0.09,0.955c0.107,0.196,0.71,0.171,0.861,0.009c0.632-0.581,1.36-1.168,1.737-1.893
			c1.27-2.331,1.113-4.892,0.709-7.394c-0.263-1.501-0.729-3.094-0.741-4.66c-0.019-1.658,0.214-3.388,0.609-4.971
			c0.429-1.734,1.811-2.5,3.624-2.581c3.926-0.18,7.789,3.077,7.895,6.956c0.027,1.864,0.514,2.698,2.165,3.635
			c4.286,2.476,4.74,7.448,1.07,10.288c-0.685,0.534-1.525,0.929-2.316,1.265c-3.179,1.253-6.435,1.755-9.927,1.457
			c-2.227-0.2-4.487-0.051-6.757,0.002c-1.105,0.047-1.993,0.597-2.454,1.623c-0.138,0.362-0.12,0.765-0.158,1.119
			c0.353,0.034,0.816,0.16,1.165,0.096c1.1-0.249,2.145-0.648,3.195-0.745c3.118-0.243,6.188-0.33,9.259-0.419
			c3.223-0.146,6.34-0.389,9.312-1.732c3.958-1.791,6.378-5.584,3.409-10.441C257.49,716.133,255.522,714.808,253.165,713.804z"/>
		<path d="M218.308,749.676c1.88,1.628,3.525,3.619,5.311,5.354c1.104,1.113,1.703,0.985,2.505-0.411
			c2.216-3.788,4.275-7.709,6.855-11.254c3.109-4.225,7.433-6.942,12.876-6.987c2.573-0.068,5.16,0.475,7.752,0.913
			c8.678,1.374,17.268,1.791,25.918,0.036c4.401-0.902,8.578-2.401,12.035-5.43c8.085-7.024,10.282-17.512,5.604-27.236
			c-2.696-5.576-6.769-10.185-11.367-14.214c-7.324-6.525-15.542-11.451-25.03-14.152c-10.354-2.911-20.458-2.204-30.269,2.175
			c-3.219,1.403-5.958,3.445-7.903,6.509c-2.371,3.736-2.261,7.715-1.04,11.747c0.876,2.935,2.294,5.598,4.109,8.138
			c4.116,5.713,4.518,11.898,1.698,18.229c-1.801,4.064-4.071,7.8-7.113,11.109c-0.627,0.688-1.311,1.325-1.993,1.859
			c-1.266,1.064-2.382,0.915-3.742-0.236c-1.146-0.955-1.503-2.354-0.498-3.559c1.35-1.574,3.007-2.959,4.62-4.189
			c1.96-1.505,3.76-3.046,4.831-5.266c1.858-3.914,1.205-7.618-1.152-11.042c-3.109-4.499-5.72-9.225-6.946-14.614
			c-1.776-7.843,0.421-14.545,5.884-20.287c4.938-5.167,10.972-8.062,17.926-9.334c16.371-3.005,31.244,0.658,44.963,9.474
			c8.644,5.513,16.085,12.435,21.336,21.327c3.254,5.604,5.055,11.524,4.161,18.071c-0.701,5.073-2.894,9.461-6.06,13.435
			c-7.201,8.998-16.914,13.167-28.121,14.13c-5.071,0.483-10.087-0.149-15.069-1.138c-4.272-0.813-8.668-1.066-13.004-0.973
			c-5.037,0.129-8.784,2.206-11.532,6.567c-2.134,3.276-4.272,6.549-5.788,10.198c-0.556,1.236-1.464,2.435-2.486,3.442
			c-1.741,1.793-3.862,1.684-5.702-0.094c-2.519-2.511-4.944-5.126-7.515-7.583c-2.15-2.07-4.402-4.139-7.226-5.371
			c-2.154-0.913-2.884-2.746-1.897-4.556c0.698-1.393,2.037-2.01,3.674-1.376c1.436,0.54,2.875,1.282,4.073,2.186
			C215.015,746.744,217.942,749.34,218.308,749.676z"/>
		<path d="M208.681,765.943c1.938,1.779,3.925,3.506,5.813,5.333c1.363,1.354,1.348,3.472,0.041,4.789
			c-1.115,1.113-3.24,0.904-4.55-0.296c-4.084-3.75-8.121-7.551-12.302-11.195c-1.416-1.298-3.02-2.285-4.624-3.374
			c-2.234-1.562-2.289-4.232-0.076-5.594c1.229-0.707,2.399-0.509,3.387,0.303C200.538,759.149,208.729,765.89,208.681,765.943z"/>
		<path d="M219.949,766.494c-0.209-0.192-0.42-0.383-0.627-0.478c-4.747-3.971-8.5-8.187-12.737-13.24
			c-1.264-1.359-2.1-2.127-2.832-2.697l0,0c-1.414-1.296-2.493-1.806-3.203-1.978c-0.31-0.081-0.56-0.125-0.865-0.111
			c-0.304,0.017-0.451,0.073-0.451,0.073l0,0c-0.796,0.238-1.478,0.876-1.952,1.601c-0.71,1.089-0.46,2.285,0.641,3.4
			c0.42,0.386,0.839,0.771,1.31,1.101c3.336,2.674,8.654,7.073,9.86,8.179c1.098,1.01,2.251,2.068,3.352,3.076
			c1.098,1.01,2.201,2.123,3.3,3.131c1.257,1.155,3.08,1.274,4.199,0.368C221.019,768.059,220.991,767.354,219.949,766.494z"/>
	</g>
	<g>
		<path d="M81.649,781.998c-0.673-1.623-1.875-2.521-3.481-2.942c-2.766-0.719-5.465,1.133-5.726,3.958
			c-0.122,1.475,0.434,2.683,1.321,3.795c0.665,0.833,1.39,1.562,2.093,2.403c0.765,0.932,1.318,1.943,1.315,3.204
			c0.009,0.159,0.17,0.347,0.313,0.413c0.106,0.06,0.377-0.124,0.399-0.241c0.125-0.448,0.292-0.928,0.259-1.368
			c-0.083-1.436-0.887-2.569-1.787-3.604c-0.55-0.615-1.22-1.216-1.673-1.933c-0.482-0.759-0.87-1.62-1.141-2.463
			c-0.298-0.92,0.12-1.667,0.93-2.223c1.756-1.205,4.464-0.811,5.621,0.944c0.546,0.851,1.009,1.095,2.035,1.054
			c2.68-0.085,4.311,2.073,3.434,4.43c-0.163,0.44-0.437,0.862-0.706,1.243c-1.104,1.485-2.459,2.646-4.151,3.508
			c-1.083,0.545-2.08,1.26-3.109,1.932c-0.495,0.339-0.747,0.845-0.666,1.449c0.041,0.206,0.163,0.385,0.247,0.561
			c0.173-0.086,0.422-0.159,0.565-0.29c0.434-0.428,0.8-0.911,1.256-1.256c1.365-1.002,2.754-1.92,4.142-2.839
			c1.441-0.989,2.806-1.991,3.789-3.459c1.31-1.956,1.339-4.393-1.415-5.779C84.307,781.833,83.021,781.785,81.649,781.998z"/>
		<path d="M75.862,808.468c1.331,0.211,2.657,0.658,3.975,0.946c0.826,0.196,1.065-0.032,1.034-0.905
			c-0.062-2.376-0.235-4.77-0.062-7.139c0.223-2.833,1.436-5.319,3.929-6.896c1.164-0.766,2.509-1.256,3.828-1.795
			c4.387-1.849,8.458-4.112,11.938-7.392c1.767-1.674,3.26-3.557,3.984-5.938c1.714-5.545-0.272-10.998-5.205-14.136
			c-2.835-1.796-6.026-2.753-9.294-3.293c-5.235-0.91-10.424-0.827-15.562,0.642c-5.597,1.62-10.044,4.834-13.308,9.652
			c-1.08,1.566-1.757,3.289-1.777,5.256c-0.022,2.396,1.166,4.195,2.879,5.702c1.243,1.101,2.655,1.92,4.217,2.57
			c3.527,1.452,5.48,4.185,5.992,7.903c0.333,2.385,0.355,4.753-0.097,7.146c-0.094,0.495-0.226,0.984-0.387,1.425
			c-0.278,0.852-0.835,1.103-1.789,0.961c-0.801-0.111-1.365-0.653-1.247-1.495c0.171-1.109,0.538-2.222,0.928-3.249
			c0.472-1.252,0.86-2.476,0.719-3.804c-0.264-2.333-1.624-3.85-3.687-4.753c-2.716-1.181-5.269-2.608-7.374-4.739
			c-3.059-3.101-3.963-6.813-3.09-11.017c0.795-3.79,2.744-6.847,5.581-9.42c6.675-6.062,14.566-8.627,23.399-8.492
			c5.554,0.065,10.956,1.125,15.915,3.715c3.1,1.65,5.62,3.859,7.08,7.127c1.128,2.535,1.373,5.182,1.052,7.915
			c-0.741,6.199-4.02,10.894-8.902,14.54c-2.196,1.671-4.685,2.814-7.26,3.784c-2.198,0.846-4.294,1.985-6.262,3.269
			c-2.282,1.498-3.411,3.526-3.43,6.32c-0.046,2.115-0.094,4.233,0.251,6.346c0.098,0.729,0.022,1.54-0.161,2.296
			c-0.289,1.322-1.294,1.879-2.65,1.586c-1.877-0.437-3.741-0.945-5.625-1.341c-1.583-0.339-3.209-0.647-4.861-0.407
			c-1.252,0.195-2.112-0.439-2.175-1.554c-0.077-0.839,0.363-1.507,1.297-1.684c0.815-0.163,1.69-0.232,2.5-0.158
			C73.509,808.06,75.598,808.418,75.862,808.468z"/>
		<path d="M76.083,818.705c1.4,0.266,2.808,0.492,4.2,0.795c1.014,0.232,1.613,1.211,1.388,2.19
			c-0.196,0.831-1.233,1.344-2.179,1.164c-2.951-0.558-5.895-1.153-8.862-1.635c-1.021-0.192-2.042-0.188-3.092-0.23
			c-1.474-0.081-2.263-1.294-1.634-2.553c0.364-0.677,0.959-0.92,1.646-0.829C70.394,817.908,76.089,818.667,76.083,818.705z"/>
		<path d="M81.425,815.738c-0.152-0.028-0.303-0.058-0.425-0.04c-3.32-0.47-6.252-1.338-9.647-2.451
			c-0.97-0.265-1.574-0.38-2.074-0.433l0,0c-1.022-0.193-1.664-0.118-2.039,0.006c-0.166,0.051-0.293,0.103-0.429,0.196
			s-0.188,0.163-0.188,0.163l0,0c-0.298,0.335-0.43,0.824-0.441,1.294c-0.016,0.703,0.442,1.183,1.268,1.38
			c0.303,0.059,0.605,0.116,0.917,0.133c2.299,0.277,6.005,0.781,6.876,0.945c0.794,0.151,1.627,0.309,2.422,0.458
			c0.793,0.15,1.619,0.348,2.413,0.498c0.909,0.171,1.781-0.294,2.037-1.032C82.364,816.153,82.15,815.837,81.425,815.738z"/>
	</g>
	<g>
		<path d="M455.519,848.969c-0.202-2.803-1.574-4.771-3.798-6.222c-3.834-2.487-8.866-1.04-10.687,3.115
			c-0.93,2.177-0.695,4.29,0.089,6.427c0.589,1.6,1.321,3.073,1.963,4.704c0.69,1.799,1.02,3.614,0.379,5.525
			c-0.066,0.247,0.084,0.612,0.267,0.786c0.131,0.143,0.635,0.001,0.729-0.165c0.415-0.618,0.911-1.26,1.083-1.946
			c0.599-2.219-0.049-4.346-0.893-6.373c-0.523-1.211-1.239-2.46-1.563-3.776c-0.35-1.395-0.503-2.898-0.489-4.312
			c0.014-1.547,1.023-2.472,2.533-2.904c3.273-0.942,7.186,1.021,8.055,4.27c0.4,1.566,0.979,2.17,2.558,2.626
			c4.11,1.224,5.495,5.322,2.975,8.456c-0.471,0.587-1.098,1.088-1.698,1.531c-2.426,1.697-5.068,2.776-8.07,3.229
			c-1.917,0.279-3.792,0.861-5.693,1.363c-0.922,0.265-1.56,0.903-1.742,1.862c-0.043,0.334,0.052,0.667,0.092,0.975
			c0.306-0.043,0.722-0.028,1.003-0.153c0.875-0.432,1.675-0.979,2.541-1.272c2.579-0.833,5.149-1.524,7.72-2.219
			c2.687-0.773,5.263-1.604,7.496-3.337c2.975-2.307,4.25-5.991,0.77-9.485C459.634,850.059,457.708,849.338,455.519,848.969z"/>
		<path d="M433.375,886.22c1.913,0.993,3.701,2.339,5.555,3.441c1.154,0.716,1.632,0.487,2.026-0.852
			c1.106-3.638,2.05-7.356,3.51-10.864c1.768-4.188,4.864-7.349,9.443-8.483c2.153-0.575,4.443-0.641,6.716-0.794
			c7.589-0.59,14.912-1.97,21.849-5.191c3.526-1.647,6.743-3.751,9.045-7.001c5.399-7.55,5.137-16.828-0.766-24.08
			c-3.396-4.155-7.756-7.218-12.443-9.688c-7.486-4.023-15.403-6.517-23.943-6.881c-9.312-0.366-17.684,2.267-25.068,7.932
			c-2.43,1.832-4.327,4.105-5.349,7.078c-1.243,3.627-0.349,6.957,1.492,10.108c1.331,2.297,3.061,4.255,5.104,6.029
			c4.619,3.985,6.206,9.116,5.104,15.019c-0.697,3.788-1.859,7.394-3.753,10.796c-0.391,0.703-0.838,1.38-1.306,1.969
			c-0.852,1.15-1.824,1.249-3.2,0.555c-1.16-0.574-1.742-1.68-1.138-2.898c0.82-1.599,1.938-3.101,3.048-4.464
			c1.348-1.66,2.554-3.323,3.01-5.408c0.777-3.674-0.52-6.663-3.195-9.074c-3.528-3.163-6.681-6.618-8.8-10.914
			c-3.076-6.25-2.575-12.341,0.871-18.281c3.12-5.349,7.62-9.005,13.225-11.478c13.19-5.831,26.461-5.741,39.798-1.08
			c8.396,2.904,16.061,7.238,22.278,13.673c3.872,4.066,6.582,8.692,7.147,14.389c0.432,4.416-0.532,8.558-2.398,12.543
			c-4.253,9.033-11.599,14.504-20.849,17.574c-4.176,1.427-8.531,1.906-12.928,2.079c-3.762,0.174-7.519,0.846-11.153,1.8
			c-4.218,1.122-6.956,3.63-8.394,7.859c-1.139,3.188-2.28,6.378-2.822,9.76c-0.219,1.153-0.743,2.347-1.402,3.401
			c-1.106,1.861-2.914,2.197-4.823,1.07c-2.628-1.609-5.2-3.323-7.861-4.875c-2.231-1.312-4.544-2.602-7.172-3.071
			c-2-0.334-2.984-1.731-2.517-3.455c0.307-1.313,1.312-2.104,2.818-1.901c1.318,0.165,2.681,0.502,3.874,1.021
			C430.01,884.412,433,886.011,433.375,886.22z"/>
		<path d="M428.542,901.868c1.993,1.108,4.014,2.163,5.973,3.324c1.421,0.866,1.837,2.653,1.001,4.025
			c-0.717,1.163-2.549,1.416-3.895,0.668c-4.197-2.337-8.365-4.726-12.624-6.954c-1.453-0.809-3.004-1.316-4.575-1.911
			c-2.197-0.867-2.782-3.105-1.192-4.698c0.894-0.844,1.919-0.913,2.916-0.429C420.312,897.785,428.572,901.812,428.542,901.868z"/>
		<path d="M438.148,900.062c-0.216-0.12-0.43-0.239-0.624-0.275c-4.801-2.39-8.813-5.186-13.403-8.59
			c-1.339-0.891-2.198-1.37-2.93-1.702l0,0c-1.453-0.809-2.464-1.021-3.098-1.021c-0.277-0.007-0.497,0.009-0.75,0.082
			c-0.253,0.073-0.367,0.152-0.367,0.152l0,0c-0.621,0.359-1.068,1.034-1.322,1.741c-0.379,1.061,0.073,2.02,1.227,2.735
			c0.43,0.241,0.861,0.48,1.325,0.663c3.35,1.581,8.718,4.218,9.958,4.905c1.129,0.63,2.314,1.289,3.444,1.917
			c1.129,0.629,2.282,1.345,3.412,1.974c1.292,0.72,2.851,0.454,3.612-0.537C439.364,901.165,439.2,900.576,438.148,900.062z"/>
	</g>
	<g>
		<path d="M158.959,315.319c0.138-1.261-0.312-2.249-1.184-3.073c-1.501-1.416-3.857-1.181-5.003,0.518
			c-0.59,0.893-0.654,1.851-0.481,2.864c0.132,0.758,0.339,1.472,0.491,2.249c0.162,0.856,0.161,1.689-0.28,2.488
			c-0.048,0.104-0.013,0.277,0.055,0.369c0.048,0.073,0.282,0.052,0.338-0.014c0.233-0.241,0.508-0.485,0.64-0.777
			c0.445-0.937,0.33-1.934,0.118-2.903c-0.133-0.583-0.35-1.195-0.388-1.806c-0.044-0.65,0.011-1.328,0.134-1.956
			c0.129-0.688,0.654-1.015,1.359-1.085c1.532-0.155,3.111,1.037,3.234,2.55c0.051,0.729,0.259,1.042,0.925,1.374
			c1.727,0.878,2.009,2.81,0.634,4c-0.254,0.222-0.575,0.394-0.878,0.542c-1.216,0.559-2.477,0.823-3.849,0.781
			c-0.875-0.031-1.753,0.075-2.639,0.144c-0.432,0.043-0.766,0.276-0.926,0.688c-0.046,0.144-0.031,0.298-0.038,0.439
			c0.138,0.005,0.324,0.046,0.458,0.014c0.423-0.12,0.823-0.299,1.232-0.36c1.215-0.161,2.412-0.261,3.611-0.359
			c1.255-0.127,2.468-0.287,3.6-0.875c1.511-0.784,2.375-2.318,1.112-4.154C160.7,316.137,159.9,315.66,158.959,315.319z"/>
		<path d="M146.099,330.077c0.768,0.597,1.454,1.34,2.187,1.98c0.456,0.411,0.687,0.351,0.972-0.215
			c0.785-1.525,1.506-3.102,2.438-4.543c1.126-1.717,2.758-2.871,4.885-3.003c1.003-0.08,2.028,0.077,3.05,0.191
			c3.42,0.353,6.788,0.333,10.13-0.535c1.7-0.446,3.3-1.121,4.586-2.378c3.013-2.917,3.649-7.061,1.614-10.762
			c-1.172-2.123-2.863-3.838-4.744-5.315c-3.002-2.394-6.316-4.143-10.083-4.999c-4.108-0.917-8.042-0.426-11.782,1.492
			c-1.229,0.618-2.256,1.474-2.951,2.712c-0.847,1.51-0.719,3.064-0.158,4.613c0.407,1.129,1.016,2.139,1.779,3.093
			c1.731,2.146,2.018,4.554,1.051,7.087c-0.618,1.628-1.426,3.137-2.544,4.495c-0.229,0.279-0.486,0.545-0.739,0.769
			c-0.472,0.442-0.912,0.407-1.467-0.014c-0.469-0.348-0.638-0.888-0.27-1.38c0.494-0.645,1.113-1.22,1.716-1.735
			c0.733-0.627,1.405-1.27,1.775-2.16c0.645-1.569,0.311-3.002-0.683-4.291c-1.31-1.691-2.432-3.484-3.026-5.563
			c-0.86-3.027-0.144-5.694,1.869-8.053c1.82-2.125,4.118-3.385,6.807-4.029c6.334-1.521,12.225-0.405,17.773,2.747
			c3.496,1.972,6.551,4.519,8.792,7.883c1.392,2.121,2.221,4.396,2.011,6.973c-0.167,1.998-0.932,3.76-2.084,5.38
			c-2.622,3.669-6.33,5.504-10.69,6.119c-1.972,0.295-3.945,0.155-5.912-0.126c-1.688-0.227-3.411-0.231-5.103-0.103
			c-1.964,0.156-3.384,1.05-4.368,2.812c-0.764,1.326-1.53,2.65-2.045,4.108c-0.191,0.497-0.521,0.982-0.899,1.397
			c-0.643,0.739-1.473,0.742-2.229,0.086c-1.039-0.928-2.043-1.9-3.099-2.805c-0.885-0.763-1.808-1.525-2.938-1.946
			c-0.86-0.31-1.185-1.01-0.837-1.739c0.243-0.559,0.754-0.829,1.405-0.616c0.572,0.18,1.152,0.44,1.638,0.768
			C144.75,329.001,145.947,329.954,146.099,330.077z"/>
		<path d="M142.681,336.64c0.795,0.653,1.609,1.285,2.386,1.96c0.561,0.501,0.602,1.329,0.117,1.871
			c-0.413,0.458-1.248,0.423-1.784-0.019c-1.676-1.379-3.334-2.781-5.045-4.116c-0.581-0.476-1.229-0.828-1.879-1.219
			c-0.907-0.563-0.985-1.606-0.149-2.184c0.464-0.303,0.928-0.25,1.331,0.045C139.354,334.156,142.7,336.618,142.681,336.64z"/>
		<path d="M147.097,336.616c-0.086-0.072-0.171-0.142-0.254-0.173c-1.941-1.453-3.496-3.02-5.261-4.905
			c-0.522-0.503-0.866-0.787-1.164-0.993l0,0c-0.579-0.479-1.012-0.655-1.294-0.707c-0.122-0.025-0.221-0.035-0.34-0.025
			c-0.117,0.014-0.176,0.04-0.176,0.04l0,0c-0.305,0.108-0.557,0.373-0.728,0.667c-0.254,0.44-0.13,0.902,0.322,1.316
			c0.173,0.139,0.344,0.281,0.535,0.401c1.362,0.974,3.533,2.581,4.028,2.988c0.451,0.372,0.924,0.76,1.376,1.13
			c0.451,0.37,0.903,0.783,1.355,1.154c0.517,0.425,1.231,0.432,1.648,0.053C147.547,337.205,147.522,336.929,147.097,336.616z"/>
	</g>
	<g>
		<path d="M983.812,341.964c-0.26-0.518-0.677-0.784-1.215-0.884c-0.926-0.17-1.77,0.503-1.787,1.438
			c-0.005,0.488,0.207,0.871,0.524,1.216c0.239,0.258,0.495,0.48,0.746,0.74c0.273,0.288,0.479,0.607,0.509,1.021
			c0.007,0.052,0.064,0.11,0.113,0.128c0.035,0.017,0.12-0.05,0.125-0.089c0.03-0.15,0.073-0.312,0.052-0.456
			c-0.061-0.47-0.353-0.823-0.673-1.142c-0.195-0.189-0.431-0.371-0.597-0.595c-0.177-0.238-0.324-0.512-0.434-0.782
			c-0.12-0.295-0.001-0.551,0.252-0.753c0.549-0.438,1.448-0.374,1.871,0.176c0.199,0.267,0.357,0.335,0.693,0.297
			c0.88-0.092,1.467,0.579,1.235,1.375c-0.043,0.149-0.123,0.293-0.202,0.425c-0.327,0.515-0.745,0.929-1.281,1.252
			c-0.343,0.205-0.653,0.464-0.976,0.71c-0.154,0.123-0.225,0.295-0.184,0.492c0.018,0.067,0.062,0.123,0.094,0.178
			c0.056-0.032,0.136-0.062,0.18-0.108c0.132-0.151,0.241-0.319,0.383-0.443c0.425-0.362,0.859-0.697,1.294-1.033
			c0.45-0.359,0.874-0.721,1.162-1.228c0.384-0.674,0.336-1.476-0.604-1.866C984.681,341.847,984.258,341.862,983.812,341.964z"/>
		<path d="M982.542,350.804c0.443,0.038,0.89,0.153,1.33,0.216c0.275,0.045,0.349-0.036,0.318-0.322
			c-0.077-0.78-0.191-1.562-0.191-2.345c0.006-0.937,0.345-1.783,1.126-2.361c0.364-0.28,0.795-0.473,1.216-0.682
			c1.397-0.712,2.683-1.554,3.748-2.715c0.54-0.593,0.986-1.247,1.168-2.047c0.43-1.864-0.354-3.609-2.05-4.522
			c-0.975-0.522-2.047-0.761-3.134-0.86c-1.743-0.174-3.446-0.022-5.101,0.583c-1.802,0.667-3.187,1.83-4.144,3.491
			c-0.318,0.541-0.5,1.124-0.459,1.77c0.051,0.789,0.483,1.352,1.083,1.806c0.436,0.332,0.919,0.567,1.448,0.744
			c1.194,0.394,1.901,1.245,2.158,2.455c0.167,0.776,0.23,1.554,0.14,2.351c-0.02,0.165-0.051,0.329-0.093,0.478
			c-0.071,0.286-0.249,0.382-0.565,0.358c-0.267-0.018-0.465-0.182-0.445-0.462c0.029-0.369,0.123-0.743,0.227-1.09
			c0.126-0.422,0.224-0.834,0.146-1.267c-0.143-0.761-0.626-1.227-1.326-1.474c-0.921-0.323-1.794-0.731-2.537-1.382
			c-1.08-0.946-1.466-2.145-1.279-3.548c0.171-1.265,0.738-2.316,1.609-3.229c2.05-2.152,4.582-3.185,7.488-3.352
			c1.828-0.111,3.629,0.107,5.321,0.84c1.058,0.468,1.939,1.134,2.497,2.173c0.432,0.807,0.575,1.671,0.535,2.577
			c-0.095,2.055-1.061,3.677-2.578,4.993c-0.682,0.602-1.473,1.037-2.296,1.417c-0.702,0.331-1.364,0.755-1.98,1.224
			c-0.714,0.547-1.037,1.241-0.976,2.16c0.035,0.697,0.07,1.394,0.234,2.08c0.049,0.237,0.044,0.506,0.002,0.758
			c-0.063,0.442-0.381,0.648-0.834,0.585c-0.627-0.098-1.252-0.221-1.881-0.306c-0.528-0.074-1.07-0.136-1.607-0.018
			c-0.407,0.094-0.705-0.094-0.752-0.458c-0.046-0.274,0.083-0.504,0.386-0.585c0.264-0.073,0.55-0.116,0.817-0.112
			C981.759,350.727,982.454,350.794,982.542,350.804z"/>
		<path d="M982.859,354.164c0.467,0.054,0.935,0.095,1.399,0.161c0.339,0.053,0.56,0.36,0.509,0.687
			c-0.044,0.278-0.373,0.471-0.688,0.435c-0.983-0.113-1.965-0.238-2.952-0.326c-0.34-0.039-0.676-0.013-1.021-0.002
			c-0.486,0.009-0.775-0.371-0.599-0.8c0.104-0.231,0.293-0.326,0.521-0.312C980.971,354.038,982.861,354.151,982.859,354.164z"/>
		<path d="M984.545,353.061c-0.051-0.006-0.101-0.011-0.141-0.003c-1.103-0.075-2.087-0.29-3.229-0.575
			c-0.325-0.063-0.527-0.087-0.692-0.092l0,0c-0.341-0.039-0.55,0-0.67,0.05c-0.054,0.021-0.095,0.041-0.137,0.075
			c-0.042,0.034-0.058,0.058-0.058,0.058l0,0c-0.09,0.118-0.121,0.282-0.114,0.436c0.012,0.232,0.174,0.378,0.45,0.424
			c0.101,0.012,0.201,0.023,0.305,0.021c0.762,0.036,1.992,0.113,2.282,0.146c0.265,0.031,0.542,0.062,0.808,0.093
			c0.264,0.03,0.54,0.076,0.805,0.106c0.303,0.035,0.579-0.139,0.646-0.388C984.863,353.175,984.786,353.076,984.545,353.061z"/>
	</g>
	<g>
		<path d="M134.591,521.365c-0.785-1.561-2.042-2.364-3.664-2.667c-2.794-0.513-5.337,1.519-5.392,4.337
			c-0.015,1.472,0.624,2.628,1.584,3.669c0.719,0.777,1.49,1.448,2.248,2.231c0.825,0.868,1.447,1.832,1.535,3.081
			c0.021,0.157,0.194,0.331,0.341,0.388c0.108,0.051,0.364-0.15,0.378-0.27c0.091-0.452,0.222-0.939,0.158-1.374
			c-0.186-1.417-1.065-2.482-2.033-3.445c-0.589-0.569-1.297-1.117-1.798-1.796c-0.533-0.717-0.98-1.542-1.309-2.357
			c-0.362-0.892-0.002-1.662,0.761-2.271c1.654-1.322,4.368-1.127,5.642,0.53c0.603,0.804,1.079,1.013,2.094,0.897
			c2.651-0.277,4.423,1.745,3.725,4.145c-0.13,0.448-0.372,0.887-0.61,1.283c-0.988,1.553-2.247,2.802-3.863,3.777
			c-1.034,0.618-1.972,1.399-2.943,2.142c-0.466,0.37-0.68,0.89-0.556,1.482c0.055,0.203,0.189,0.372,0.285,0.539
			c0.165-0.099,0.407-0.189,0.539-0.328c0.399-0.456,0.728-0.962,1.155-1.336c1.282-1.093,2.592-2.104,3.902-3.114
			c1.357-1.085,2.638-2.177,3.508-3.702c1.158-2.034,1.011-4.453-1.82-5.628C137.213,521.009,135.936,521.055,134.591,521.365z"/>
		<path d="M130.762,548.027c1.335,0.113,2.683,0.461,4.009,0.65c0.833,0.136,1.054-0.109,0.961-0.973
			c-0.232-2.351-0.578-4.711-0.576-7.071c0.016-2.826,1.039-5.379,3.398-7.121c1.098-0.844,2.397-1.429,3.666-2.059
			c4.216-2.147,8.089-4.685,11.303-8.188c1.631-1.787,2.976-3.762,3.522-6.175c1.299-5.622-1.064-10.885-6.181-13.641
			c-2.941-1.575-6.173-2.294-9.453-2.594c-5.257-0.524-10.395-0.067-15.384,1.76c-5.433,2.009-9.611,5.517-12.499,10.529
			c-0.958,1.632-1.505,3.389-1.383,5.339c0.151,2.379,1.458,4.076,3.267,5.447c1.312,1,2.771,1.712,4.367,2.243
			c3.601,1.187,5.736,3.754,6.51,7.404c0.503,2.341,0.696,4.688,0.42,7.091c-0.057,0.498-0.152,0.992-0.28,1.442
			c-0.215,0.863-0.75,1.151-1.705,1.081c-0.803-0.054-1.401-0.549-1.345-1.393c0.089-1.112,0.374-2.242,0.686-3.289
			c0.377-1.273,0.673-2.517,0.438-3.822c-0.43-2.293-1.887-3.7-3.998-4.446c-2.778-0.975-5.412-2.206-7.654-4.167
			c-3.256-2.854-4.42-6.47-3.858-10.7c0.515-3.814,2.227-6.987,4.854-9.741c6.181-6.493,13.82-9.605,22.586-10.11
			c5.512-0.335,10.945,0.326,16.048,2.536c3.192,1.411,5.85,3.421,7.534,6.556c1.3,2.432,1.734,5.039,1.614,7.771
			c-0.288,6.201-3.2,11.093-7.777,15.06c-2.058,1.814-4.443,3.128-6.925,4.275c-2.118,0.998-4.114,2.278-5.973,3.693
			c-2.154,1.649-3.127,3.742-2.944,6.514c0.106,2.101,0.212,4.204,0.707,6.273c0.15,0.715,0.134,1.524,0.006,2.287
			c-0.19,1.333-1.148,1.956-2.513,1.765c-1.892-0.297-3.778-0.668-5.675-0.925c-1.593-0.22-3.228-0.409-4.848-0.052
			c-1.227,0.284-2.125-0.283-2.269-1.384c-0.137-0.827,0.251-1.521,1.165-1.763c0.796-0.22,1.659-0.353,2.467-0.338
			C128.399,547.791,130.496,547.996,130.762,548.027z"/>
		<path d="M131.72,558.161c1.407,0.162,2.819,0.285,4.221,0.483c1.022,0.159,1.688,1.087,1.535,2.072
			c-0.134,0.84-1.127,1.422-2.077,1.313c-2.967-0.341-5.928-0.719-8.904-0.982c-1.027-0.118-2.038-0.04-3.082-0.006
			c-1.468,0.025-2.337-1.119-1.804-2.413c0.312-0.697,0.884-0.981,1.571-0.941C126.021,557.78,131.724,558.123,131.72,558.161z"/>
		<path d="M136.803,554.835c-0.153-0.018-0.304-0.036-0.424-0.01c-3.327-0.227-6.296-0.875-9.742-1.735
			c-0.981-0.191-1.589-0.262-2.088-0.278l0,0c-1.027-0.118-1.657,0.002-2.021,0.153c-0.161,0.061-0.283,0.122-0.411,0.226
			c-0.128,0.102-0.174,0.175-0.174,0.175l0,0c-0.271,0.354-0.366,0.848-0.343,1.314c0.035,0.698,0.523,1.142,1.356,1.277
			c0.305,0.035,0.608,0.07,0.919,0.065c2.299,0.108,6.009,0.342,6.885,0.44c0.798,0.093,1.636,0.188,2.434,0.279
			c0.798,0.092,1.631,0.229,2.43,0.319c0.913,0.104,1.745-0.42,1.946-1.169C137.764,555.178,137.529,554.879,136.803,554.835z"/>
	</g>
	<g>
		<path d="M21.729,104.182c0.276-0.975,0.052-1.809-0.523-2.573c-0.993-1.312-2.874-1.439-4-0.256
			c-0.583,0.625-0.761,1.369-0.758,2.188c0.003,0.614,0.071,1.203,0.089,1.833c0.014,0.694-0.098,1.349-0.549,1.917
			c-0.053,0.076-0.046,0.217-0.005,0.298c0.026,0.065,0.214,0.079,0.266,0.034c0.216-0.158,0.462-0.314,0.605-0.525
			c0.475-0.679,0.516-1.479,0.479-2.268c-0.028-0.474-0.117-0.985-0.066-1.471c0.053-0.515,0.186-1.043,0.364-1.52
			c0.194-0.523,0.649-0.711,1.213-0.673c1.224,0.083,2.308,1.228,2.204,2.434c-0.057,0.579,0.065,0.854,0.544,1.202
			c1.241,0.919,1.208,2.477-0.029,3.228c-0.231,0.142-0.506,0.233-0.764,0.311c-1.029,0.277-2.056,0.318-3.128,0.104
			c-0.683-0.141-1.39-0.173-2.094-0.237c-0.345-0.023-0.639,0.115-0.818,0.417c-0.056,0.108-0.064,0.232-0.088,0.341
			c0.108,0.024,0.247,0.08,0.358,0.07c0.349-0.038,0.687-0.125,1.017-0.119c0.975,0.035,1.93,0.115,2.885,0.196
			c1.005,0.067,1.979,0.101,2.948-0.211c1.29-0.417,2.174-1.509,1.424-3.119C22.988,105.055,22.425,104.576,21.729,104.182z"/>
		<path d="M9.664,114.081c0.527,0.57,0.967,1.246,1.459,1.846c0.303,0.385,0.493,0.365,0.791-0.04
			c0.821-1.097,1.596-2.24,2.52-3.249c1.112-1.201,2.548-1.892,4.237-1.714c0.8,0.069,1.584,0.327,2.372,0.554
			c2.642,0.73,5.291,1.162,8.035,0.92c1.396-0.125,2.743-0.443,3.921-1.261c2.753-1.895,3.802-5.069,2.692-8.248
			c-0.64-1.824-1.741-3.395-3.026-4.806c-2.042-2.28-4.417-4.095-7.263-5.265c-3.109-1.265-6.266-1.4-9.461-0.388
			c-1.047,0.323-1.969,0.86-2.679,1.742c-0.866,1.075-0.971,2.313-0.734,3.605c0.169,0.941,0.515,1.815,0.989,2.667
			c1.076,1.915,0.983,3.847-0.113,5.711c-0.7,1.197-1.536,2.275-2.594,3.194c-0.219,0.191-0.454,0.365-0.684,0.507
			c-0.429,0.284-0.771,0.199-1.151-0.206c-0.322-0.337-0.384-0.781-0.03-1.12c0.473-0.441,1.036-0.812,1.579-1.139
			c0.66-0.397,1.272-0.812,1.683-1.462c0.713-1.148,0.641-2.32,0.029-3.463c-0.806-1.505-1.45-3.06-1.642-4.775
			c-0.275-2.494,0.642-4.495,2.537-6.084c1.711-1.428,3.684-2.114,5.884-2.264c5.181-0.358,9.665,1.299,13.608,4.512
			c2.487,2.013,4.551,4.419,5.868,7.36c0.812,1.851,1.162,3.751,0.656,5.75c-0.395,1.547-1.229,2.832-2.35,3.953
			c-2.547,2.537-5.705,3.488-9.214,3.394c-1.589-0.029-3.121-0.4-4.632-0.881c-1.295-0.402-2.649-0.636-3.997-0.758
			c-1.566-0.137-2.801,0.377-3.806,1.633c-0.776,0.939-1.554,1.88-2.152,2.958c-0.215,0.363-0.54,0.704-0.892,0.98
			c-0.603,0.495-1.257,0.388-1.765-0.229c-0.692-0.868-1.353-1.763-2.064-2.615c-0.595-0.718-1.22-1.438-2.052-1.919
			c-0.636-0.358-0.798-0.952-0.429-1.479c0.265-0.406,0.703-0.55,1.188-0.298c0.425,0.218,0.845,0.499,1.186,0.821
			C8.747,113.055,9.562,113.963,9.664,114.081z"/>
		<path d="M6.11,118.786c0.538,0.62,1.093,1.225,1.614,1.858c0.375,0.467,0.297,1.124-0.154,1.486
			c-0.385,0.306-1.036,0.167-1.4-0.252c-1.135-1.305-2.252-2.625-3.422-3.902c-0.393-0.453-0.855-0.813-1.315-1.208
			c-0.638-0.562-0.561-1.392,0.172-1.737c0.406-0.175,0.762-0.074,1.04,0.212C3.823,116.394,6.126,118.771,6.11,118.786z"/>
		<path d="M9.583,119.352c-0.058-0.066-0.116-0.133-0.178-0.168c-1.332-1.398-2.348-2.837-3.484-4.553
			c-0.344-0.464-0.576-0.733-0.784-0.935l0,0c-0.392-0.452-0.71-0.647-0.923-0.725c-0.093-0.037-0.17-0.059-0.264-0.065
			c-0.095-0.005-0.143,0.007-0.143,0.007l0,0c-0.255,0.046-0.489,0.219-0.662,0.428c-0.258,0.312-0.223,0.693,0.08,1.076
			c0.116,0.134,0.233,0.267,0.367,0.388c0.94,0.946,2.435,2.496,2.77,2.881c0.306,0.351,0.627,0.719,0.932,1.071
			c0.305,0.351,0.608,0.735,0.913,1.086c0.35,0.402,0.911,0.503,1.289,0.261C9.86,119.875,9.876,119.655,9.583,119.352z"/>
	</g>
	<g>
		<path d="M213.359,72.249c-3.258-2.856-6.894-3.531-10.904-2.712c-6.899,1.424-10.851,8.46-8.35,14.991
			c1.338,3.395,3.884,5.459,7.058,6.954c2.378,1.116,4.777,1.941,7.247,3.032c2.706,1.227,5.032,2.86,6.4,5.653
			c0.195,0.34,0.754,0.58,1.144,0.572c0.298,0.015,0.698-0.686,0.62-0.97c-0.214-1.127-0.365-2.367-0.919-3.307
			c-1.747-3.082-4.761-4.713-7.881-6.023c-1.885-0.761-4.022-1.359-5.804-2.45c-1.895-1.151-3.69-2.633-5.207-4.201
			c-1.661-1.711-1.554-3.818-0.367-5.928c2.57-4.579,8.988-6.658,13.458-4.04c2.135,1.288,3.423,1.32,5.649,0.11
			c5.833-3.107,11.792-0.11,12.42,6.054c0.121,1.154-0.026,2.381-0.205,3.518c-0.824,4.489-2.553,8.534-5.355,12.282
			c-1.8,2.384-3.228,5.05-4.769,7.662c-0.727,1.285-0.732,2.679,0.105,3.927c0.315,0.413,0.781,0.678,1.156,0.97
			c0.288-0.378,0.761-0.812,0.933-1.255c0.493-1.421,0.777-2.886,1.409-4.146c1.928-3.708,3.998-7.249,6.067-10.794
			c2.108-3.758,4.035-7.458,4.609-11.778c0.764-5.751-1.827-11.172-9.428-11.238C219.052,68.987,216.16,70.283,213.359,72.249z"/>
		<path d="M229.407,137.088c3.176-0.983,6.593-1.442,9.822-2.241c2.042-0.466,2.318-1.233,1.299-3.13
			c-2.726-5.187-5.718-10.288-7.914-15.717c-2.596-6.507-2.624-13.327,1.17-19.53c1.738-2.963,4.181-5.514,6.507-8.145
			c7.687-8.864,14.224-18.308,18.345-29.354c2.082-5.625,3.333-11.417,2.339-17.474c-2.254-14.128-12.589-24.021-26.917-25.584
			c-8.224-0.88-16.324,0.482-24.14,2.849c-12.568,3.695-23.953,9.532-33.714,18.38c-10.611,9.683-16.942,21.637-18.908,35.847
			c-0.681,4.64-0.301,9.188,1.798,13.557c2.562,5.325,7.15,8.009,12.583,9.471c3.947,1.079,7.966,1.353,12.126,1.089
			c9.382-0.633,16.68,3.278,21.863,10.945c3.337,4.909,5.966,10.124,7.573,15.908c0.333,1.195,0.576,2.42,0.7,3.571
			c0.311,2.185-0.647,3.347-2.909,4.076c-1.894,0.625-3.73,0.043-4.387-1.948c-0.832-2.641-1.233-5.499-1.49-8.196
			c-0.32-3.281-0.796-6.412-2.556-9.194c-3.125-4.869-7.785-6.745-13.333-6.49c-7.293,0.348-14.494-0.027-21.47-2.445
			c-10.143-3.523-16.189-10.746-18.841-20.994c-2.371-9.247-1.394-18.131,2.077-26.912c8.153-20.679,22.808-34.952,42.485-44.28
			c12.353-5.906,25.454-9.452,39.243-9.127c8.649,0.268,16.631,2.408,23.421,8.042c5.257,4.376,8.682,9.963,10.953,16.356
			c5.117,14.515,2.981,28.47-3.838,41.853c-3.037,6.089-7.294,11.329-11.932,16.281c-3.937,4.264-7.329,9.07-10.285,14.05
			c-3.41,5.799-3.697,11.516-0.695,17.713c2.205,4.731,4.408,9.464,7.475,13.761c1.008,1.502,1.726,3.379,2.145,5.25
			c0.801,3.238-0.817,5.565-4.134,6.396c-4.624,1.082-9.302,1.986-13.902,3.166c-3.866,0.975-7.799,2.066-11.191,4.396
			c-2.554,1.8-5.148,1.333-6.501-1.064c-1.086-1.774-0.84-3.727,1.033-5.137c1.623-1.248,3.483-2.354,5.353-3.075
			C223.761,138.749,228.77,137.265,229.407,137.088z"/>
		<path d="M241.051,159.486c3.387-0.942,6.747-1.973,10.152-2.823c2.498-0.588,4.89,0.922,5.458,3.331
			c0.474,2.052-1.262,4.316-3.548,4.95c-7.135,1.984-14.293,3.875-21.378,6.044c-2.472,0.686-4.722,1.807-7.089,2.858
			c-3.348,1.429-6.414-0.393-6.395-3.863c0.066-1.893,1.117-3.08,2.734-3.627C227.604,163.919,241.025,159.393,241.051,159.486z"/>
		<path d="M249.633,147.102c-0.369,0.103-0.731,0.204-0.983,0.375c-7.854,2.578-15.284,3.855-24.004,5.091
			c-2.432,0.471-3.894,0.877-5.056,1.305l0,0c-2.472,0.686-3.808,1.551-4.504,2.234c-0.312,0.292-0.537,0.546-0.735,0.902
			c-0.198,0.355-0.237,0.564-0.237,0.564l0,0c-0.291,1.066-0.051,2.291,0.437,3.342c0.733,1.575,2.266,2.134,4.308,1.671
			c0.732-0.202,1.463-0.403,2.169-0.707c5.388-1.892,14.131-4.815,16.235-5.403c1.92-0.532,3.935-1.091,5.854-1.625
			c1.918-0.532,3.96-0.996,5.881-1.531c2.195-0.61,3.619-2.59,3.379-4.501C252.164,146.996,251.344,146.527,249.633,147.102z"/>
	</g>
</g>
</svg>
