<?xml version="1.0" encoding="utf-8"?>
<!-- Generator: Adobe Illustrator 16.0.0, SVG Export Plug-In . SVG Version: 6.00 Build 0)  -->
<!DOCTYPE svg PUBLIC "-//W3C//DTD SVG 1.1//EN" "http://www.w3.org/Graphics/SVG/1.1/DTD/svg11.dtd">
<svg version="1.1" id="Capa_1" xmlns="http://www.w3.org/2000/svg" xmlns:xlink="http://www.w3.org/1999/xlink" x="0px" y="0px"
	 width="666px" height="1000px" viewBox="0 0 666 1000" enable-background="new 0 0 666 1000" xml:space="preserve">
<rect x="-172.5" y="-268.5" display="none" fill="#3FA9F5" stroke="#FC0000" stroke-miterlimit="10" width="1064" height="1598"/>
<g>
	<g>
		<g>
			<path fill="#FFFFFF" d="M609.405,482.881c-1.473-0.084-2.495-1.31-2.488-2.75c0.034-1.436,1.245-2.558,2.703-2.505
				c1.447,0.051,2.601,1.282,2.562,2.751C612.176,481.849,610.837,482.962,609.405,482.881z"/>
		</g>
		<g>
			<path fill="#FFFFFF" d="M608.046,498.606c-1.446-0.168-2.478-1.457-2.296-2.885c0.174-1.429,1.395-2.485,2.859-2.347
				c1.428,0.136,2.563,1.434,2.388,2.893C610.815,497.727,609.485,498.771,608.046,498.606z"/>
		</g>
		<g>
			<path fill="#FFFFFF" d="M605.802,514.227c-1.435-0.248-2.396-1.598-2.146-3.012s1.637-2.383,3.063-2.169
				c1.45,0.217,2.399,1.563,2.146,3.011C608.604,513.507,607.231,514.474,605.802,514.227z"/>
		</g>
		<g>
			<path fill="#FFFFFF" d="M602.679,529.695c-1.419-0.33-2.312-1.732-1.986-3.133c0.323-1.399,1.743-2.292,3.17-1.994
				c1.419,0.296,2.312,1.701,1.98,3.135C605.512,529.136,604.092,530.028,602.679,529.695z"/>
		</g>
		<g>
			<path fill="#FFFFFF" d="M598.685,544.966c-1.395-0.414-2.212-1.866-1.817-3.249c0.391-1.383,1.851-2.194,3.256-1.812
				c1.404,0.378,2.221,1.834,1.816,3.247C601.539,544.568,600.08,545.377,598.685,544.966z"/>
		</g>
		<g>
			<path fill="#FFFFFF" d="M593.839,559.986c-1.372-0.493-2.111-1.994-1.652-3.357c0.461-1.361,1.958-2.088,3.339-1.627
				c1.379,0.457,2.122,1.961,1.647,3.354C596.701,559.748,595.207,560.475,593.839,559.986z"/>
		</g>
		<g>
			<path fill="#FFFFFF" d="M588.151,574.71c-1.338-0.568-2.002-2.114-1.475-3.454c0.529-1.337,2.054-1.979,3.406-1.44
				c1.349,0.536,2.012,2.082,1.473,3.452C591.013,574.635,589.491,575.278,588.151,574.71z"/>
		</g>
		<g>
			<path fill="#FFFFFF" d="M581.544,589.042c-1.311-0.647-1.824-2.198-1.192-3.488c0.594-1.31,2.144-1.872,3.465-1.252
				c1.314,0.613,1.896,2.197,1.292,3.536C584.459,589.158,582.839,589.684,581.544,589.042z"/>
		</g>
		<g>
			<path fill="#FFFFFF" d="M574.143,602.983c-1.264-0.718-1.716-2.312-0.999-3.559c0.726-1.243,2.335-1.695,3.601-1.015
				c1.295,0.697,1.757,2.298,1.018,3.569C577.028,603.255,575.405,603.704,574.143,602.983z"/>
		</g>
		<g>
			<path fill="#FFFFFF" d="M565.978,616.489c-1.223-0.789-1.592-2.412-0.815-3.622c0.776-1.213,2.414-1.571,3.656-0.808
				c1.234,0.758,1.602,2.382,0.807,3.619C568.83,616.917,567.195,617.277,565.978,616.489z"/>
		</g>
		<g>
			<path fill="#FFFFFF" d="M557.071,629.516c-1.176-0.859-1.459-2.502-0.625-3.674c0.832-1.172,2.479-1.441,3.672-0.612
				c1.193,0.831,1.475,2.476,0.621,3.676C559.89,630.104,558.241,630.375,557.071,629.516z"/>
		</g>
		<g>
			<path fill="#FFFFFF" d="M547.456,642.034c-1.127-0.924-1.323-2.587-0.434-3.721c0.89-1.135,2.535-1.316,3.684-0.418
				c1.143,0.896,1.339,2.562,0.431,3.723C550.228,642.771,548.574,642.952,547.456,642.034z"/>
		</g>
		<g>
			<path fill="#FFFFFF" d="M537.111,653.953c-1.084-0.995-1.114-2.605-0.191-3.708c0.943-1.091,2.59-1.185,3.687-0.22
				c1.085,0.955,1.195,2.637,0.234,3.749C539.896,654.905,538.165,654.93,537.111,653.953z"/>
		</g>
		<g>
			<path fill="#FFFFFF" d="M526.081,665.246c-1.014-1.042-0.996-2.694,0.046-3.689c1.062-0.973,2.676-1.013,3.72,0.016
				c1.025,1.013,1.078,2.732-0.006,3.733C528.775,666.318,527.091,666.293,526.081,665.246z"/>
		</g>
		<g>
			<path fill="#FFFFFF" d="M514.446,675.911c-0.952-1.102-0.842-2.757,0.242-3.701c1.087-0.94,2.759-0.825,3.738,0.259
				c0.974,1.073,0.869,2.734-0.245,3.695C517.072,677.125,515.399,677.011,514.446,675.911z"/>
		</g>
		<g>
			<path fill="#FFFFFF" d="M502.243,685.915c-0.89-1.153-0.695-2.81,0.435-3.699c1.131-0.885,2.79-0.682,3.704,0.45
				c0.909,1.132,0.716,2.787-0.439,3.698C504.785,687.272,503.127,687.066,502.243,685.915z"/>
		</g>
		<g>
			<path fill="#FFFFFF" d="M489.501,695.23c-0.823-1.205-0.54-2.857,0.63-3.687c1.171-0.835,2.81-0.546,3.656,0.637
				c0.847,1.178,0.563,2.83-0.635,3.681C491.957,696.717,490.318,696.428,489.501,695.23z"/>
		</g>
		<g>
			<path fill="#FFFFFF" d="M476.241,703.793c-0.741-1.232-0.356-2.848,0.847-3.641c1.209-0.774,2.821-0.404,3.602,0.825
				c0.775,1.234,0.405,2.876-0.832,3.667C478.628,705.449,477,705.051,476.241,703.793z"/>
		</g>
		<g>
			<path fill="#FFFFFF" d="M462.484,711.532c-0.679-1.289-0.193-2.866,1.087-3.523c1.267-0.675,2.834-0.253,3.546,1.031
				c0.701,1.263,0.261,2.913-1.036,3.609C464.77,713.318,463.159,712.812,462.484,711.532z"/>
		</g>
		<g>
			<path fill="#FFFFFF" d="M448.317,718.487c-0.604-1.323-0.035-2.885,1.277-3.473c1.311-0.595,2.887-0.01,3.515,1.306
				c0.632,1.307,0.062,2.861-1.276,3.47C450.492,720.392,448.916,719.806,448.317,718.487z"/>
		</g>
		<g>
			<path fill="#FFFFFF" d="M433.781,724.632c-0.526-1.358,0.13-2.882,1.467-3.414c1.337-0.527,2.869,0.142,3.429,1.486
				c0.554,1.341-0.097,2.873-1.468,3.412C435.842,726.655,434.307,725.987,433.781,724.632z"/>
		</g>
		<g>
			<path fill="#FFFFFF" d="M418.925,729.955c-0.452-1.387,0.29-2.888,1.65-3.346c1.364-0.461,2.854,0.28,3.332,1.659
				c0.478,1.369-0.262,2.871-1.653,3.343C420.859,732.082,419.368,731.336,418.925,729.955z"/>
		</g>
		<g>
			<path fill="#FFFFFF" d="M403.788,734.426c-0.366-1.407,0.453-2.868,1.836-3.262c1.383-0.397,2.827,0.425,3.226,1.827
				c0.399,1.392-0.424,2.857-1.837,3.261C405.596,736.649,404.152,735.832,403.788,734.426z"/>
		</g>
		<g>
			<path fill="#FFFFFF" d="M388.412,738c-0.282-1.418,0.627-2.791,2.025-3.134c1.399-0.327,2.794,0.566,3.108,1.987
				c0.317,1.416-0.583,2.841-2.017,3.169C390.099,740.376,388.698,739.433,388.412,738z"/>
		</g>
		<g>
			<path fill="#FFFFFF" d="M372.85,740.638c-0.203-1.445,0.786-2.766,2.214-2.941c1.417-0.24,2.75,0.712,2.988,2.155
				c0.231,1.429-0.742,2.814-2.193,3.058C374.398,743.096,373.053,742.07,372.85,740.638z"/>
		</g>
		<g>
			<path fill="#FFFFFF" d="M357.166,742.391c-0.122-1.449,0.941-2.714,2.374-2.822c1.437-0.098,2.719,0.961,2.869,2.394
				c0.154,1.457-0.905,2.756-2.372,2.857C358.572,744.93,357.284,743.843,357.166,742.391z"/>
		</g>
		<g>
			<path fill="#FFFFFF" d="M341.41,743.268c-0.04-1.453,1.095-2.664,2.53-2.701c1.438-0.037,2.657,1.115,2.729,2.571
				c0.071,1.448-1.06,2.659-2.529,2.702C342.666,745.873,341.446,744.724,341.41,743.268z"/>
		</g>
		<g>
			<path fill="#FFFFFF" d="M325.626,743.268c0.042-1.453,1.242-2.605,2.68-2.568c1.441,0.031,2.591,1.244,2.581,2.704
				c-0.009,1.45-1.211,2.605-2.682,2.571C326.735,745.932,325.584,744.718,325.626,743.268z"/>
		</g>
		<g>
			<path fill="#FFFFFF" d="M309.87,742.391c0.126-1.449,1.386-2.536,2.819-2.431c1.437,0.108,2.519,1.379,2.427,2.833
				c-0.094,1.448-1.356,2.54-2.822,2.431C310.827,745.111,309.746,743.843,309.87,742.391z"/>
		</g>
		<g>
			<path fill="#FFFFFF" d="M294.185,740.638c0.208-1.44,1.533-2.47,2.959-2.288c1.427,0.182,2.437,1.505,2.26,2.95
				c-0.173,1.438-1.498,2.464-2.957,2.281C294.989,743.394,293.977,742.07,294.185,740.638z"/>
		</g>
		<g>
			<path fill="#FFFFFF" d="M278.62,738c0.293-1.429,1.676-2.386,3.089-2.133c1.416,0.253,2.352,1.623,2.095,3.055
				c-0.256,1.43-1.641,2.387-3.086,2.131C279.27,740.791,278.333,739.419,278.62,738z"/>
		</g>
		<g>
			<path fill="#FFFFFF" d="M263.247,734.426c0.374-1.413,1.788-2.204,3.192-1.903c1.404,0.32,2.259,1.733,1.919,3.151
				c-0.34,1.407-1.774,2.294-3.208,1.964C263.713,737.33,262.877,735.824,263.247,734.426z"/>
		</g>
		<g>
			<path fill="#FFFFFF" d="M248.11,729.955c0.453-1.387,1.923-2.138,3.287-1.674c1.358,0.463,2.151,1.863,1.727,3.271
				c-0.416,1.373-1.918,2.232-3.311,1.761C248.419,732.843,247.661,731.331,248.11,729.955z"/>
		</g>
		<g>
			<path fill="#FFFFFF" d="M233.251,724.632c0.535-1.354,2.046-2.032,3.386-1.502c1.337,0.528,2.012,2.066,1.511,3.437
				c-0.499,1.361-2.014,2.035-3.382,1.496C233.397,727.521,232.723,725.987,233.251,724.632z"/>
		</g>
		<g>
			<path fill="#FFFFFF" d="M218.717,718.487c0.61-1.323,2.164-1.921,3.474-1.327c1.311,0.593,1.899,2.157,1.321,3.493
				c-0.578,1.331-2.128,1.931-3.471,1.321C218.703,721.369,218.111,719.806,218.717,718.487z"/>
		</g>
		<g>
			<path fill="#FFFFFF" d="M204.55,711.532c0.683-1.289,2.273-1.805,3.552-1.146c1.283,0.653,1.785,2.241,1.132,3.545
				c-0.651,1.294-2.243,1.812-3.554,1.143C204.373,714.398,203.868,712.812,204.55,711.532z"/>
		</g>
		<g>
			<path fill="#FFFFFF" d="M190.792,703.793c0.757-1.248,2.379-1.677,3.624-0.961c1.248,0.719,1.665,2.324,0.939,3.584
				c-0.726,1.256-2.348,1.693-3.624,0.961C190.457,706.645,190.041,705.035,190.792,703.793z"/>
		</g>
		<g>
			<path fill="#FFFFFF" d="M177.535,695.23c0.834-1.213,2.421-1.467,3.638-0.699c1.212,0.775,1.543,2.394,0.744,3.612
				c-0.794,1.213-2.445,1.562-3.684,0.767C176.989,698.122,176.721,696.409,177.535,695.23z"/>
		</g>
		<g>
			<path fill="#FFFFFF" d="M164.792,685.915c0.891-1.149,2.531-1.365,3.662-0.479c1.117,0.908,1.365,2.526,0.502,3.695
				c-0.867,1.167-2.544,1.437-3.687,0.51C164.113,688.734,163.903,687.063,164.792,685.915z"/>
		</g>
		<g>
			<path fill="#FFFFFF" d="M152.586,675.911c0.953-1.096,2.61-1.231,3.698-0.287c1.089,0.943,1.209,2.612,0.278,3.733
				c-0.927,1.112-2.583,1.248-3.697,0.287C151.756,678.68,151.631,677.007,152.586,675.911z"/>
		</g>
		<g>
			<path fill="#FFFFFF" d="M140.951,665.246c1.018-1.042,2.688-1.087,3.727-0.092c1.041,0.992,1.077,2.661,0.082,3.727
				c-0.989,1.062-2.657,1.104-3.721,0.086C139.974,667.953,139.939,666.286,140.951,665.246z"/>
		</g>
		<g>
			<path fill="#FFFFFF" d="M129.925,653.953c1.074-0.982,2.752-0.934,3.745,0.101c0.991,1.041,0.938,2.702-0.112,3.709
				c-1.05,1.001-2.727,0.961-3.74-0.102C128.804,656.595,128.854,654.935,129.925,653.953z"/>
		</g>
		<g>
			<path fill="#FFFFFF" d="M119.581,642.034c1.126-0.92,2.749-0.741,3.708,0.328c0.944,1.087,0.804,2.741-0.304,3.685
				c-1.103,0.943-2.783,0.808-3.746-0.304C118.259,644.646,118.455,642.952,119.581,642.034z"/>
		</g>
		<g>
			<path fill="#FFFFFF" d="M109.963,629.516c1.18-0.85,2.812-0.598,3.644,0.573c0.817,1.188,0.646,2.774-0.529,3.671
				c-1.139,0.865-2.871,0.688-3.707-0.524C108.521,632.038,108.789,630.368,109.963,629.516z"/>
		</g>
		<g>
			<path fill="#FFFFFF" d="M101.058,616.489c1.226-0.787,2.85-0.447,3.626,0.764c0.775,1.211,0.421,2.852-0.786,3.665
				c-1.205,0.812-2.83,0.474-3.624-0.766C99.482,618.915,99.836,617.272,101.058,616.489z"/>
		</g>
		<g>
			<path fill="#FFFFFF" d="M92.892,602.983c1.269-0.713,2.88-0.286,3.596,0.959c0.719,1.249,0.279,2.859-0.975,3.604
				c-1.247,0.741-2.858,0.313-3.591-0.961C91.189,605.31,91.627,603.698,92.892,602.983z"/>
		</g>
		<g>
			<path fill="#FFFFFF" d="M85.491,589.042c1.309-0.638,2.9-0.124,3.557,1.154c0.654,1.279,0.134,2.861-1.16,3.53
				c-1.287,0.671-2.88,0.157-3.551-1.152C83.667,591.266,84.188,589.682,85.491,589.042z"/>
		</g>
		<g>
			<path fill="#FFFFFF" d="M78.88,574.71c1.343-0.564,2.914,0.038,3.508,1.346c0.592,1.309-0.008,2.856-1.338,3.448
				c-1.325,0.595-2.896-0.006-3.5-1.347C76.942,576.818,77.545,575.272,78.88,574.71z"/>
		</g>
		<g>
			<path fill="#FFFFFF" d="M73.195,559.986c1.38-0.491,2.844,0.227,3.337,1.576c0.53,1.335-0.149,2.84-1.511,3.358
				c-1.357,0.515-2.899-0.172-3.438-1.54C71.077,562.002,71.835,560.467,73.195,559.986z"/>
		</g>
		<g>
			<path fill="#FFFFFF" d="M68.347,544.966c1.399-0.407,2.854,0.382,3.245,1.763c0.374,1.391-0.396,2.854-1.769,3.289
				c-1.4,0.439-2.896-0.334-3.277-1.757C66.143,546.848,66.955,545.372,68.347,544.966z"/>
		</g>
		<g>
			<path fill="#FFFFFF" d="M64.356,529.695c1.421-0.323,2.834,0.545,3.157,1.945c0.325,1.4-0.563,2.824-1.975,3.186
				c-1.406,0.354-2.821-0.512-3.151-1.945C62.056,531.447,62.942,530.021,64.356,529.695z"/>
		</g>
		<g>
			<path fill="#FFFFFF" d="M61.233,514.227c1.437-0.243,2.807,0.704,3.06,2.117c0.252,1.415-0.705,2.786-2.135,3.063
				c-1.425,0.274-2.796-0.671-3.055-2.119C58.844,515.841,59.803,514.472,61.233,514.227z"/>
		</g>
		<g>
			<path fill="#FFFFFF" d="M58.989,498.606c1.448-0.163,2.772,0.86,2.952,2.287c0.182,1.427-0.844,2.737-2.289,2.933
				c-1.439,0.193-2.762-0.828-2.947-2.29C56.52,500.078,57.547,498.769,58.989,498.606z"/>
		</g>
		<g>
			<path fill="#FFFFFF" d="M57.629,482.881c1.453-0.081,2.724,1.017,2.833,2.451c0.11,1.435-0.985,2.684-2.435,2.797
				c-1.447,0.111-2.716-0.984-2.828-2.451C55.085,484.21,56.177,482.959,57.629,482.881z"/>
		</g>
		<g>
			<path fill="#FFFFFF" d="M57.149,467.103c1.456,0.002,2.668,1.169,2.706,2.604c0.037,1.439-1.117,2.626-2.575,2.657
				c-1.449,0.028-2.662-1.136-2.7-2.605C54.545,468.287,55.698,467.101,57.149,467.103z"/>
		</g>
		<g>
			<path fill="#FFFFFF" d="M57.629,451.327c1.475,0.083,2.496,1.312,2.489,2.75c-0.036,1.436-1.248,2.557-2.704,2.504
				c-1.449-0.05-2.601-1.283-2.564-2.75C54.858,452.358,56.198,451.243,57.629,451.327z"/>
		</g>
		<g>
			<path fill="#FFFFFF" d="M58.989,435.601c1.448,0.167,2.476,1.455,2.294,2.884c-0.173,1.428-1.392,2.481-2.857,2.346
				c-1.431-0.132-2.566-1.433-2.389-2.893C56.219,436.48,57.547,435.435,58.989,435.601z"/>
		</g>
		<g>
			<path fill="#FFFFFF" d="M61.233,419.979c1.436,0.25,2.396,1.596,2.143,3.013c-0.25,1.415-1.635,2.384-3.061,2.168
				c-1.451-0.218-2.401-1.564-2.146-3.011C58.429,420.701,59.803,419.731,61.233,419.979z"/>
		</g>
		<g>
			<path fill="#FFFFFF" d="M64.356,404.508c1.418,0.334,2.309,1.734,1.985,3.136c-0.323,1.4-1.743,2.293-3.169,1.994
				c-1.42-0.298-2.311-1.701-1.98-3.134C61.521,405.072,62.942,404.18,64.356,404.508z"/>
		</g>
		<g>
			<path fill="#FFFFFF" d="M68.347,389.241c1.397,0.411,2.215,1.868,1.824,3.25c-0.395,1.381-1.856,2.192-3.261,1.811
				c-1.4-0.38-2.218-1.833-1.815-3.247C65.494,389.639,66.955,388.83,68.347,389.241z"/>
		</g>
		<g>
			<path fill="#FFFFFF" d="M73.195,374.221c1.371,0.493,2.112,1.992,1.651,3.355c-0.461,1.362-1.955,2.09-3.338,1.629
				c-1.375-0.458-2.117-1.96-1.647-3.355C70.333,374.458,71.828,373.731,73.195,374.221z"/>
		</g>
		<g>
			<path fill="#FFFFFF" d="M78.88,359.497c1.339,0.568,2.004,2.115,1.476,3.45c-0.526,1.339-2.052,1.984-3.408,1.444
				c-1.346-0.537-2.008-2.083-1.469-3.451S77.544,358.927,78.88,359.497z"/>
		</g>
		<g>
			<path fill="#FFFFFF" d="M85.491,345.163c1.311,0.647,1.825,2.201,1.19,3.49c-0.592,1.312-2.144,1.871-3.463,1.253
				c-1.315-0.613-1.898-2.196-1.291-3.538C82.576,345.047,84.194,344.521,85.491,345.163z"/>
		</g>
		<g>
			<path fill="#FFFFFF" d="M92.892,331.22c1.266,0.721,1.715,2.314,0.998,3.56c-0.726,1.245-2.333,1.698-3.601,1.015
				c-1.294-0.696-1.755-2.295-1.016-3.567C90.006,330.951,91.63,330.504,92.892,331.22z"/>
		</g>
		<g>
			<path fill="#FFFFFF" d="M101.058,317.718c1.223,0.79,1.59,2.413,0.813,3.622c-0.775,1.212-2.411,1.571-3.653,0.808
				c-1.237-0.76-1.603-2.381-0.809-3.621C98.202,317.289,99.838,316.93,101.058,317.718z"/>
		</g>
		<g>
			<path fill="#FFFFFF" d="M109.963,304.688c1.177,0.86,1.458,2.506,0.625,3.678c-0.834,1.171-2.479,1.442-3.677,0.61
				c-1.189-0.829-1.472-2.475-0.618-3.675C107.144,304.102,108.793,303.833,109.963,304.688z"/>
		</g>
		<g>
			<path fill="#FFFFFF" d="M119.581,292.171c1.124,0.925,1.321,2.591,0.43,3.722c-0.886,1.13-2.536,1.315-3.682,0.416
				c-1.143-0.896-1.337-2.562-0.431-3.719C116.807,291.435,118.459,291.249,119.581,292.171z"/>
		</g>
		<g>
			<path fill="#FFFFFF" d="M129.925,280.251c1.084,0.997,1.11,2.604,0.189,3.71c-0.941,1.089-2.591,1.186-3.683,0.222
				c-1.089-0.962-1.2-2.643-0.236-3.753C127.139,279.302,128.869,279.278,129.925,280.251z"/>
		</g>
		<g>
			<path fill="#FFFFFF" d="M140.951,268.959c1.014,1.045,0.996,2.699-0.046,3.692c-1.06,0.973-2.673,1.012-3.718-0.017
				c-1.025-1.015-1.075-2.736,0.005-3.733C138.258,267.887,139.943,267.916,140.951,268.959z"/>
		</g>
		<g>
			<path fill="#FFFFFF" d="M152.586,258.294c0.953,1.101,0.845,2.757-0.241,3.7c-1.086,0.942-2.76,0.825-3.737-0.256
				c-0.974-1.076-0.869-2.733,0.244-3.696C149.963,257.08,151.637,257.195,152.586,258.294z"/>
		</g>
		<g>
			<path fill="#FFFFFF" d="M164.792,248.289c0.888,1.154,0.695,2.811-0.436,3.7c-1.13,0.889-2.788,0.684-3.702-0.449
				c-0.913-1.129-0.718-2.785,0.438-3.697C162.248,246.936,163.907,247.141,164.792,248.289z"/>
		</g>
		<g>
			<path fill="#FFFFFF" d="M177.535,238.976c0.819,1.204,0.54,2.857-0.631,3.689c-1.173,0.834-2.81,0.544-3.657-0.64
				c-0.846-1.179-0.565-2.831,0.635-3.685C175.078,237.488,176.714,237.777,177.535,238.976z"/>
		</g>
		<g>
			<path fill="#FFFFFF" d="M190.792,230.412c0.744,1.235,0.359,2.851-0.847,3.64c-1.207,0.775-2.819,0.402-3.6-0.828
				c-0.775-1.226-0.406-2.868,0.831-3.662C188.406,228.756,190.038,229.157,190.792,230.412z"/>
		</g>
		<g>
			<path fill="#FFFFFF" d="M204.55,222.674c0.68,1.29,0.194,2.868-1.084,3.523c-1.268,0.677-2.838,0.25-3.551-1.032
				c-0.699-1.259-0.259-2.916,1.039-3.607C202.263,220.887,203.875,221.391,204.55,222.674z"/>
		</g>
		<g>
			<path fill="#FFFFFF" d="M218.717,215.72c0.602,1.326,0.034,2.883-1.276,3.475c-1.311,0.591-2.885,0.004-3.519-1.306
				c-0.63-1.307-0.063-2.864,1.277-3.47C216.542,213.812,218.117,214.398,218.717,215.72z"/>
		</g>
		<g>
			<path fill="#FFFFFF" d="M233.251,209.571c0.527,1.359-0.127,2.889-1.464,3.416c-1.338,0.529-2.873-0.14-3.432-1.486
				c-0.554-1.34,0.1-2.87,1.469-3.409C231.193,207.552,232.728,208.218,233.251,209.571z"/>
		</g>
		<g>
			<path fill="#FFFFFF" d="M248.11,204.252c0.448,1.384-0.289,2.885-1.651,3.347c-1.364,0.458-2.854-0.286-3.334-1.661
				c-0.475-1.373,0.262-2.871,1.658-3.343C246.174,202.124,247.665,202.87,248.11,204.252z"/>
		</g>
		<g>
			<path fill="#FFFFFF" d="M263.247,199.779c0.365,1.41-0.454,2.872-1.838,3.264c-1.383,0.395-2.826-0.426-3.223-1.828
				c-0.399-1.396,0.423-2.859,1.838-3.262C261.44,197.553,262.883,198.374,263.247,199.779z"/>
		</g>
		<g>
			<path fill="#FFFFFF" d="M278.62,196.206c0.287,1.417-0.627,2.791-2.023,3.136c-1.403,0.324-2.792-0.569-3.112-1.991
				c-0.316-1.417,0.587-2.839,2.022-3.171C276.934,193.83,278.335,194.772,278.62,196.206z"/>
		</g>
		<g>
			<path fill="#FFFFFF" d="M294.185,193.571c0.203,1.441-0.785,2.76-2.213,2.942c-1.418,0.237-2.751-0.715-2.988-2.156
				c-0.236-1.429,0.744-2.816,2.194-3.059C292.636,191.11,293.98,192.133,294.185,193.571z"/>
		</g>
		<g>
			<path fill="#FFFFFF" d="M309.87,191.813c0.117,1.451-0.942,2.718-2.378,2.828c-1.437,0.092-2.717-0.965-2.867-2.399
				c-0.156-1.457,0.905-2.758,2.372-2.855C308.463,189.275,309.748,190.366,309.87,191.813z"/>
		</g>
		<g>
			<path fill="#FFFFFF" d="M325.626,190.937c0.04,1.457-1.096,2.668-2.532,2.703c-1.437,0.036-2.655-1.116-2.729-2.571
				c-0.068-1.449,1.062-2.664,2.532-2.7C324.369,188.331,325.586,189.484,325.626,190.937z"/>
		</g>
		<g>
			<path fill="#FFFFFF" d="M341.41,190.937c-0.047,1.457-1.243,2.609-2.68,2.573c-1.438-0.039-2.594-1.25-2.582-2.706
				c0.013-1.452,1.208-2.607,2.677-2.569C340.297,188.271,341.452,189.484,341.41,190.937z"/>
		</g>
		<g>
			<path fill="#FFFFFF" d="M357.166,191.813c-0.127,1.451-1.388,2.542-2.822,2.431c-1.436-0.107-2.52-1.378-2.424-2.832
				c0.093-1.448,1.352-2.54,2.818-2.428S357.292,190.367,357.166,191.813z"/>
		</g>
		<g>
			<path fill="#FFFFFF" d="M372.85,193.571c-0.206,1.441-1.53,2.465-2.955,2.286c-1.431-0.182-2.44-1.504-2.263-2.95
				c0.173-1.44,1.497-2.465,2.957-2.28C372.047,190.811,373.056,192.133,372.85,193.571z"/>
		</g>
		<g>
			<path fill="#FFFFFF" d="M388.412,196.206c-0.29,1.43-1.669,2.383-3.086,2.131c-1.418-0.253-2.354-1.621-2.094-3.056
				c0.258-1.429,1.637-2.384,3.087-2.125C387.768,193.416,388.703,194.785,388.412,196.206z"/>
		</g>
		<g>
			<path fill="#FFFFFF" d="M403.788,199.779c-0.375,1.414-1.788,2.206-3.193,1.907c-1.4-0.323-2.258-1.734-1.919-3.15
				c0.339-1.412,1.773-2.294,3.206-1.965C403.322,196.876,404.155,198.381,403.788,199.779z"/>
		</g>
		<g>
			<path fill="#FFFFFF" d="M418.925,204.252c-0.455,1.384-1.924,2.134-3.283,1.676c-1.361-0.467-2.158-1.867-1.73-3.276
				c0.415-1.374,1.918-2.234,3.311-1.759C418.614,201.365,419.374,202.872,418.925,204.252z"/>
		</g>
		<g>
			<path fill="#FFFFFF" d="M433.781,209.571c-0.53,1.357-2.045,2.032-3.382,1.504c-1.339-0.526-2.014-2.065-1.515-3.434
				c0.5-1.362,2.011-2.039,3.385-1.5C433.634,206.682,434.312,208.22,433.781,209.571z"/>
		</g>
		<g>
			<path fill="#FFFFFF" d="M448.317,215.72c-0.609,1.324-2.162,1.92-3.473,1.327c-1.312-0.591-1.904-2.157-1.322-3.495
				c0.575-1.332,2.129-1.929,3.471-1.322C448.333,212.835,448.922,214.4,448.317,215.72z"/>
		</g>
		<g>
			<path fill="#FFFFFF" d="M462.484,222.674c-0.685,1.289-2.275,1.803-3.554,1.147c-1.283-0.656-1.786-2.242-1.128-3.545
				c0.65-1.295,2.237-1.812,3.549-1.142C462.659,219.804,463.164,221.393,462.484,222.674z"/>
		</g>
		<g>
			<path fill="#FFFFFF" d="M476.241,230.412c-0.757,1.245-2.377,1.678-3.622,0.961c-1.247-0.716-1.666-2.322-0.938-3.584
				c0.726-1.258,2.347-1.69,3.619-0.958C476.577,227.565,476.994,229.171,476.241,230.412z"/>
		</g>
		<g>
			<path fill="#FFFFFF" d="M489.501,238.976c-0.836,1.215-2.424,1.466-3.639,0.7c-1.211-0.775-1.543-2.393-0.745-3.611
				c0.797-1.213,2.449-1.562,3.687-0.768C490.045,236.082,490.312,237.794,489.501,238.976z"/>
		</g>
		<g>
			<path fill="#FFFFFF" d="M502.243,248.289c-0.893,1.153-2.531,1.368-3.664,0.48c-1.115-0.909-1.365-2.526-0.5-3.693
				c0.863-1.17,2.541-1.44,3.682-0.514C502.921,245.471,503.131,247.141,502.243,248.289z"/>
		</g>
		<g>
			<path fill="#FFFFFF" d="M514.446,258.294c-0.955,1.097-2.61,1.228-3.697,0.289c-1.087-0.943-1.207-2.614-0.277-3.735
				c0.926-1.117,2.582-1.247,3.696-0.284C515.277,255.526,515.4,257.198,514.446,258.294z"/>
		</g>
		<g>
			<path fill="#FFFFFF" d="M526.081,268.959c-1.017,1.043-2.683,1.086-3.725,0.095c-1.042-0.993-1.076-2.663-0.083-3.726
				c0.989-1.063,2.657-1.107,3.723-0.094C527.062,266.251,527.097,267.919,526.081,268.959z"/>
		</g>
		<g>
			<path fill="#FFFFFF" d="M537.111,280.251c-1.076,0.985-2.755,0.94-3.747-0.1c-0.994-1.042-0.94-2.703,0.113-3.711
				c1.047-1.001,2.726-0.958,3.738,0.106C538.232,277.611,538.178,279.272,537.111,280.251z"/>
		</g>
		<g>
			<path fill="#FFFFFF" d="M547.456,292.171c-1.13,0.922-2.753,0.742-3.714-0.33c-0.939-1.086-0.8-2.736,0.308-3.681
				c1.103-0.943,2.782-0.813,3.746,0.301C548.777,289.558,548.578,291.253,547.456,292.171z"/>
		</g>
		<g>
			<path fill="#FFFFFF" d="M557.071,304.688c-1.18,0.856-2.812,0.602-3.646-0.571c-0.811-1.186-0.644-2.774,0.531-3.67
				c1.143-0.863,2.871-0.687,3.703,0.526C558.517,302.171,558.245,303.836,557.071,304.688z"/>
		</g>
		<g>
			<path fill="#FFFFFF" d="M565.978,317.718c-1.227,0.786-2.851,0.444-3.626-0.765c-0.775-1.21-0.423-2.852,0.785-3.665
				c1.203-0.812,2.826-0.473,3.621,0.766C567.553,315.292,567.195,316.933,565.978,317.718z"/>
		</g>
		<g>
			<path fill="#FFFFFF" d="M574.143,331.22c-1.269,0.717-2.88,0.29-3.597-0.958c-0.718-1.245-0.278-2.857,0.976-3.602
				c1.248-0.741,2.855-0.313,3.59,0.961C575.845,328.896,575.407,330.508,574.143,331.22z"/>
		</g>
		<g>
			<path fill="#FFFFFF" d="M581.544,345.163c-1.309,0.64-2.901,0.126-3.559-1.153c-0.655-1.281-0.134-2.859,1.161-3.531
				c1.288-0.669,2.881-0.154,3.549,1.155C583.366,342.942,582.846,344.523,581.544,345.163z"/>
		</g>
		<g>
			<path fill="#FFFFFF" d="M588.151,359.497c-1.343,0.564-2.912-0.036-3.505-1.345c-0.593-1.312,0.007-2.856,1.337-3.451
				c1.327-0.593,2.896,0.007,3.501,1.346C590.089,357.389,589.488,358.935,588.151,359.497z"/>
		</g>
		<g>
			<path fill="#FFFFFF" d="M593.839,374.221c-1.381,0.49-2.844-0.227-3.339-1.575c-0.525-1.338,0.15-2.84,1.515-3.358
				c1.356-0.517,2.897,0.168,3.438,1.537C595.957,372.205,595.198,373.738,593.839,374.221z"/>
		</g>
		<g>
			<path fill="#FFFFFF" d="M598.685,389.241c-1.396,0.406-2.85-0.382-3.245-1.765c-0.37-1.389,0.396-2.852,1.773-3.286
				c1.398-0.441,2.895,0.333,3.276,1.752C600.889,387.359,600.08,388.833,598.685,389.241z"/>
		</g>
		<g>
			<path fill="#FFFFFF" d="M602.679,404.508c-1.419,0.327-2.834-0.541-3.157-1.941c-0.325-1.403,0.562-2.826,1.977-3.186
				c1.402-0.357,2.819,0.513,3.149,1.945C604.979,402.76,604.092,404.184,602.679,404.508z"/>
		</g>
		<g>
			<path fill="#FFFFFF" d="M605.802,419.979c-1.435,0.243-2.806-0.701-3.061-2.117c-0.254-1.416,0.705-2.785,2.134-3.062
				c1.425-0.275,2.796,0.673,3.058,2.118C608.191,418.366,607.231,419.736,605.802,419.979z"/>
		</g>
		<g>
			<path fill="#FFFFFF" d="M608.046,435.601c-1.448,0.162-2.771-0.86-2.953-2.288c-0.179-1.426,0.847-2.738,2.29-2.931
				c1.438-0.194,2.762,0.828,2.947,2.284C610.516,434.129,609.485,435.44,608.046,435.601z"/>
		</g>
		<g>
			<path fill="#FFFFFF" d="M609.405,451.327c-1.451,0.079-2.724-1.019-2.833-2.451c-0.108-1.434,0.982-2.686,2.436-2.796
				c1.447-0.112,2.717,0.984,2.827,2.45C611.946,449.996,610.857,451.246,609.405,451.327z"/>
		</g>
		<g>
			<path fill="#FFFFFF" d="M609.883,467.103c-1.455-0.001-2.668-1.168-2.704-2.604c-0.038-1.438,1.117-2.626,2.573-2.656
				c1.451-0.027,2.664,1.135,2.702,2.605C612.488,465.92,611.339,467.104,609.883,467.103z"/>
		</g>
	</g>
	<g>
		<path fill="#D3C4DF" d="M213.809,693.003c0,8.303-44.282,15.035-98.903,15.035c-54.625,0-98.905-6.732-98.905-15.035
			c0-8.301,44.281-15.031,98.905-15.031C169.527,677.972,213.809,684.702,213.809,693.003z"/>
		<g>
			<g>
				
					<rect x="143.965" y="546.971" transform="matrix(-0.9989 0.0465 -0.0465 -0.9989 316.9824 1144.1556)" fill="#6A6A6A" width="2.436" height="57.588"/>
				
					<rect x="86.865" y="549.669" transform="matrix(-0.9989 0.0473 -0.0473 -0.9989 203.4334 1152.1111)" fill="#6A6A6A" width="2.436" height="57.588"/>
				
					<rect x="93.855" y="676.495" transform="matrix(-0.9989 0.0472 -0.0472 -0.9989 273.4485 1348.4702)" fill="#6A6A6A" width="53.864" height="1.944"/>
				
					<rect x="90.298" y="668.911" transform="matrix(-0.9989 0.0472 -0.0472 -0.9989 215.983 1349.4028)" fill="#878787" width="3.517" height="16.683"/>
				
					<rect x="156.676" y="639.358" transform="matrix(0.9989 -0.0468 0.0468 0.9989 -29.8678 8.197)" fill="#9D9D9C" width="7.142" height="6.112"/>
				<g>
					<polygon fill="#575756" points="170.241,606.659 164.536,606.931 164.157,604.558 169.862,604.288 					"/>
					<polygon fill="#575756" points="181.62,677.954 175.916,678.224 175.537,675.853 181.24,675.583 					"/>
					<polygon fill="#575756" points="173.56,627.454 167.855,627.724 167.476,625.353 173.181,625.083 					"/>
					<polygon fill="#575756" points="178.301,657.155 172.597,657.425 172.216,655.054 177.921,654.782 					"/>
					<path fill="#303030" d="M174.592,693.022L174.592,693.022c-2.309,0.111-4.464-1.465-4.789-3.502l-15.246-95.523
						c-0.325-2.035,1.296-3.789,3.605-3.898l0,0c2.309-0.111,4.464,1.465,4.788,3.502l15.247,95.523
						C178.522,691.161,176.898,692.915,174.592,693.022z"/>
					<path fill="#ACACAB" d="M183.569,681.337L183.569,681.337c-0.771,0.037-1.486-0.492-1.596-1.17l-12.466-78.096
						c-0.107-0.678,0.435-1.266,1.202-1.303l0,0c0.77-0.035,1.488,0.49,1.596,1.168l12.466,78.098
						C184.878,680.714,184.336,681.298,183.569,681.337z"/>
				</g>
				<path fill="#303030" d="M92.931,701.722l0.562-0.029c2.488-0.115,4.43-2.248,4.311-4.738l-0.572-12.096
					c-0.117-2.49-2.249-4.43-4.74-4.314l-0.561,0.025c-2.489,0.121-4.43,2.252-4.312,4.744l0.572,12.096
					C88.31,699.899,90.443,701.839,92.931,701.722z"/>
				
					<rect x="147.603" y="666.004" transform="matrix(-0.9989 0.0472 -0.0472 -0.9989 330.3913 1340.8883)" fill="#878787" width="3.517" height="16.683"/>
				<path fill="#303030" d="M150.236,698.813l0.562-0.025c2.489-0.117,4.428-2.25,4.312-4.738l-0.572-12.102
					c-0.118-2.484-2.252-4.428-4.74-4.309l-0.561,0.025c-2.489,0.117-4.43,2.25-4.312,4.742l0.572,12.098
					C145.615,696.991,147.748,698.933,150.236,698.813z"/>
				
					<rect x="74.354" y="643.228" transform="matrix(-0.9989 0.047 -0.047 -0.9989 186.9937 1288.168)" fill="#9D9D9C" width="7.972" height="6.112"/>
				
					<rect x="82.279" y="639.893" transform="matrix(0.9989 -0.0472 0.0472 0.9989 -30.2946 6.3625)" fill="#575756" width="74.44" height="8.787"/>
				
					<rect x="144.713" y="610.613" transform="matrix(-0.9989 0.0472 -0.0472 -0.9989 325.3263 1269.4287)" fill="#6A6A6A" width="5.915" height="55.886"/>
				
					<rect x="87.512" y="613.323" transform="matrix(-0.9989 0.0474 -0.0474 -0.9989 210.9926 1277.5322)" fill="#6A6A6A" width="5.689" height="55.887"/>
				<path fill="#303030" d="M86.318,613.479l63.561-3.002c2.23-0.102,3.953-1.998,3.846-4.229l0,0
					c-0.104-2.23-1.997-3.951-4.228-3.848l-63.56,3.002c-2.23,0.105-3.952,2-3.847,4.232l0,0
					C82.195,611.866,84.089,613.587,86.318,613.479z"/>
				<path fill="#303030" d="M93.788,571.614l44.708-2.113c2.851-0.135,5.053-2.555,4.918-5.402l-0.649-13.742
					c-0.135-2.852-2.555-5.053-5.406-4.918l-44.707,2.111c-2.851,0.137-5.054,2.557-4.918,5.406l0.649,13.738
					C88.517,569.544,90.937,571.749,93.788,571.614z"/>
				
					<rect x="99.449" y="674.171" transform="matrix(-0.9989 0.0472 -0.0472 -0.9989 273.7144 1349.4558)" fill="#9D9D9C" width="42.946" height="7.579"/>
				
					<rect x="95.556" y="646.727" transform="matrix(-0.9989 0.0472 -0.0472 -0.9989 269.9302 1296.2501)" fill="#303030" width="48.215" height="9.168"/>
				
					<rect x="143.739" y="647.218" transform="matrix(0.9989 -0.0471 0.0471 0.9989 -30.4679 7.6846)" fill="#878787" width="7.999" height="5.538"/>
				
					<rect x="87.588" y="649.87" transform="matrix(0.9989 -0.0471 0.0471 0.9989 -30.6515 5.0407)" fill="#878787" width="8" height="5.537"/>
				<g>
					<polygon fill="#575756" points="65.434,611.612 71.138,611.345 71.293,608.942 65.588,609.214 					"/>
					<polygon fill="#575756" points="60.828,683.663 66.532,683.394 66.685,680.995 60.981,681.267 					"/>
					<polygon fill="#575756" points="64.092,632.628 69.796,632.354 69.949,629.958 64.245,630.228 					"/>
					<polygon fill="#575756" points="62.172,662.646 67.875,662.378 68.03,659.976 62.325,660.245 					"/>
					<path fill="#303030" d="M69.247,698.003L69.247,698.003c2.308-0.107,4.304-1.883,4.435-3.939l6.173-96.535
						c0.132-2.059-1.649-3.652-3.958-3.543l0,0c-2.308,0.109-4.304,1.881-4.436,3.938l-6.17,96.539
						C65.157,696.517,66.939,698.11,69.247,698.003z"/>
					<path fill="#ACACAB" d="M59.206,687.212L59.206,687.212c0.77-0.037,1.436-0.627,1.479-1.312l5.046-78.926
						c0.043-0.686-0.55-1.215-1.319-1.182l0,0c-0.769,0.035-1.435,0.627-1.478,1.312l-5.046,78.926
						C57.844,686.718,58.437,687.249,59.206,687.212z"/>
				</g>
				<path fill="#303030" d="M143.73,548.04l0.288-0.014c1.272-0.059,2.264-1.148,2.204-2.422l-0.291-6.186
					c-0.061-1.271-1.152-2.266-2.424-2.205l-0.289,0.014c-1.271,0.061-2.265,1.152-2.204,2.426l0.291,6.184
					C141.366,547.11,142.457,548.104,143.73,548.04z"/>
				<path fill="#303030" d="M86.606,550.265l0.287-0.014c1.274-0.061,2.267-1.152,2.206-2.426l-0.293-6.186
					c-0.058-1.271-1.15-2.266-2.423-2.203l-0.288,0.012c-1.273,0.061-2.265,1.152-2.205,2.426l0.292,6.184
					C84.243,549.329,85.334,550.325,86.606,550.265z"/>
			</g>
			<g>
				<path fill="#FFBD95" d="M91.444,558.306c-5.925-9.996-18.345-32.293-15.152-33.604c7.914-3.242,25.945-10.041,25.945-10.041
					l0.076,0.344c0,0,20.486-2.826,28.359-0.189c6.038,2.027,1.129,23.475,0.038,35.041c-0.261,2.777,2.433,14.355,5.062,24.568
					c0.648,2.521,5.324,13.727,6.055,18.627c0.219,1.461-15.252,9.117-19.765,10.371l0,0c-4.614,0.797-21.795,0.102-22.223-1.314
					c-1.43-4.744-1.988-16.873-2.479-19.428C95.376,572.321,92.867,560.704,91.444,558.306z"/>
				<path fill="#FFA47C" d="M130.591,515.487c3.613-2.102,8.158,1.389,11.963,8.178c3.808,6.791,7.019,11.877,7.965,13.664
					c0.974,1.85,6.507,12.078,7.785,15.096c1.276,3.021,0.406,6.596-2.49,8.219c-2.42,1.355-7.788-1.311-11.45-5.617
					C140.703,550.718,120.889,521.134,130.591,515.487z"/>
				<path fill="#FFBD95" d="M93.185,513.339c-0.005-2.156-1.141-12.566-1.141-12.566l6.731-1.51l0.076,0.342l6.73-1.51
					c0,0,3.42,9.898,4.337,11.85c0.917,1.953,7.151,3.807,7.151,3.807l-12.572,8.949l-16.155-2.865
					C88.343,519.835,93.189,515.495,93.185,513.339z"/>
				<path fill="#FFA47C" d="M92.996,510.372c-0.27-3.207-0.752-7.75-0.904-9.162l0.337-0.523l6.347-1.424l0.076,0.342l6.73-1.51
					c0,0,3.42,9.898,4.337,11.85c0.917,1.953,7.151,3.807,7.151,3.807l-0.676,0.154c-6.776-0.271-13.513-0.547-14.423-0.6
					C100.067,513.192,92.996,510.372,92.996,510.372L92.996,510.372z"/>
				<path fill="#00233F" d="M137.394,578.692c0,0,5.333,10.893,6.228,15.074c0.53,2.471-0.318,7.348-2.218,9.018
					c-4.792,4.223-22.904,1.953-22.904,1.953s-19.936,4.205-25.084,0.314c-1.54-1.164-2.032-4.783-1.928-6.711
					c0.254-4.654,4.945-17.977,4.945-17.977L137.394,578.692z"/>
				<path fill="#FFA47C" d="M152.38,552.536c3.357-0.979,6.732-0.123,10.482,8.584c3.75,8.705,9.67,29.848,9.67,29.848l-5.433,1.58
					c0,0-11.709-15.779-13.967-20.432C150.875,567.466,143.592,555.095,152.38,552.536z"/>
				<path fill="#FFA47C" d="M87.836,538.522c1.392-3.936-0.814-10.443-8.647-12.539c-7.834-2.096-15.861-2.348-17.915-2.846
					c-2.117-0.512-13.226-2.732-16.621-3.27c-3.393-0.533-6.979,0.682-8.031,3.82c-0.88,2.627,3.034,7.158,8.271,9.68
					C50.131,535.892,84.096,549.093,87.836,538.522z"/>
				<path fill="#88BD4F" d="M76.292,524.702c0.412-1.762,4.968-1.967,7.914-3.242c3.909-1.693,5.318-3.191,5.318-3.191
					s9.662,6.404,13.547,6.221c6.035-0.287,13.975-11.74,13.975-11.74s3.022,0.162,7.27,0.496c4.818,0.379,8.659-0.094,8.219,1.662
					c-2.983,11.854,0.057,34.199-0.254,37.035c-0.312,2.836,6.167,20.727,5.114,26.75l-19.604,5.074h0l-0.039,0.01h-0.005l0,0
					l-23.228,2.346c-3.229-5.906-2.403-22.609-3.586-25.203c-2.26-4.955-5.415-10.164-6.801-13.924c0,0-0.202-4.297-2.114-14.438
					C81.147,527.95,76.165,525.241,76.292,524.702z"/>
				<path fill="#74A940" d="M119.624,576.962c4.275-7.943-7.901-10.938-11.755-11.439c-3.854-0.502-9.917,1.369-11.903-0.803
					c-1.987-2.17,1.274-5.398,2.935-5.777c1.661-0.373,11.643-5.869,13.357-6.008c1.715-0.137,13.128-5.01,14.796-7.008
					c1.669-1.998,3.98-16.658,3.98-16.658c2.431,14.193,1.444,20.869,1.246,22.674c-0.312,2.836,8.058,26.16,8.336,32.002
					c0,0-7.777-1.77-20.172-0.037c-7.859,1.1-25.924,2.215-25.924,2.215S118.637,578.794,119.624,576.962z"/>
				<path fill="#FFBD95" d="M44.998,530.233c3.014-1.5,4.623-4.541,0.398-14.385c-4.223-9.844-14.914-27.664-14.914-27.664
					l-4.877,2.428c0,0,2.646,17.346,4.731,22.779C32.419,518.825,37.107,534.161,44.998,530.233z"/>
				<path fill="#FFBD95" d="M110.318,486.731c2.217,8.516,0.93,18.053-4.396,19.928c-5.09,1.789-16.793-2.914-19.714-11.215
					c-2.922-8.303-0.323-16.775,7.221-19.664C99.77,473.351,108.033,477.958,110.318,486.731z"/>
				<path fill="#8D3B26" d="M107.731,480.87c0,0-8.356-2.297-14.404,6.193c-1.302,1.828,2.187,7.852,1.9,8.5
					c-0.308,0.699-3.552-4.486-3.684-3.721c-0.946,5.531,2.177,11.551,1.526,11.729c-1.975,0.535-10.307-8.715-8.994-17.791
					c1.313-9.08,9.985-11.682,12.197-11.648C98.483,474.165,104.608,474.069,107.731,480.87z"/>
				<path fill="#FFBD95" d="M93.585,493.972c1.192,2.223,2.178,5.344,1.01,5.971c-1.17,0.627-3.084-0.668-4.275-2.891
					c-1.192-2.225-1.211-4.535-0.044-5.16C91.445,491.263,92.393,491.747,93.585,493.972z"/>
				<path fill="#FFA47C" d="M172.532,590.968c0,0,1.916,5.371,2.729,6.703c0.812,1.334-2.029,11.553-3.157,11.756
					c-0.509,0.094-0.248-7.275-1.573-8.646c-1.325-1.373-4.897-4.008-4.415-5.963c0.481-1.955,0.814-3.117,0.814-3.117
					L172.532,590.968z"/>
				<path fill="#FFBD95" d="M21.605,486.524l0.734,1.967c0.886,2.385,3.561,3.609,5.945,2.721l0,0
					c2.383-0.887,3.607-3.562,2.721-5.945l-0.732-1.967c-0.886-2.385-3.563-3.607-5.945-2.723l0,0
					C21.944,481.466,20.72,484.142,21.605,486.524z"/>
				<path fill="#BB5E00" d="M17.799,472.063c0.45,9.531,8.542,16.895,18.072,16.443c9.531-0.453,16.893-8.541,16.442-18.074
					c-0.45-9.529-8.542-16.893-18.072-16.439C24.709,454.442,17.35,462.534,17.799,472.063z"/>
				<circle fill="#DB6D00" cx="35.326" cy="469.636" r="15.698"/>
				<path fill="#FFBD95" d="M23.583,490.216c0,0-1.646-1.629-3.186-4.16c-0.163-0.268-0.568-0.584-0.729-0.852
					c-0.132-0.219-0.234-0.707-0.361-0.92c-0.121-0.197-0.34-0.307-0.454-0.5c-0.153-0.254-0.112-0.727-0.255-0.967
					c-0.125-0.213-0.458-0.559-0.586-0.74c-0.517-0.729,0.005-1.051-0.133-1.289c-0.422-0.742-0.53-0.969-0.567-1.123
					c-0.173-0.764,1.079-4.004,1.432-4.445c0.35-0.439,1.755-3.377,2.083-3.297c0.327,0.08,1.078,1.105,0.516,2.789
					c-0.561,1.684-1.137,3.762-0.912,3.441c0.226-0.322,1.918-1.771,2.715-2.215c0.514-0.287,0.925,0.199,1.077,0.662
					c0.088,0.271-0.653,1.75-0.653,1.75s1.188,0.072,1.285,0.305c0.333,0.809-0.553,1.725-0.746,2.113
					c-0.16,0.322,1.154-0.084,1.263,0.283c0.399,1.363-2.551,3.195-1.601,4.266C24.248,485.854,25.094,488.812,23.583,490.216z"/>
				<path fill="#00233F" d="M140.66,608.056c-1.212,4.508-3.259,9.791-11.782,10.191c-8.371,0.4-9.569-9.594-9.975-11.555
					c-0.404-1.955,2.479-11.658,8.849-12.287C134.12,593.778,142.536,601.081,140.66,608.056z"/>
				<path fill="#FFBD95" d="M134.708,664.56c0,0,2.444-33.633,2.771-38.812c0.329-5.18,2.889-31.963-7.285-32.779
					c-10.174-0.818-11.942,10.355-10.748,23.496c1.195,13.139,5.397,49.465,5.397,49.465L134.708,664.56z"/>
				<path fill="#00233F" d="M95.503,611.063c1.632,4.371,4.166,9.441,12.689,9.035c8.371-0.395,8.623-10.459,8.839-12.443
					c0.218-1.986-3.567-11.375-9.967-11.4C100.666,596.229,92.976,604.294,95.503,611.063z"/>
				<path fill="#FFBD95" d="M105.89,666.153c0,0-5.603-33.252-6.417-38.377c-0.816-5.125-5.89-31.549,4.162-33.324
					c10.052-1.77,12.864,9.188,12.913,22.379c0.05,13.193-0.708,49.756-0.708,49.756L105.89,666.153z"/>
				<path fill="#002D56" d="M140.66,608.056c-1.751-3.1-4.645-11.943-11.307-12.65c-7.547-0.799-10.057,9.189-10.449,11.287
					c0,0-3.825-19.285,11.515-20.006c14.087-0.662,13.022,11.805,13.022,11.805L140.66,608.056z"/>
				<path fill="#002D56" d="M95.503,611.063c1.448-3.252,3.497-12.33,10.064-13.662c7.438-1.506,10.877,8.199,11.465,10.254
					c0,0,1.991-19.561-13.35-18.834c-14.086,0.67-11.85,12.98-11.85,12.98L95.503,611.063z"/>
				<path fill="#A1C7FF" d="M124.74,665.03l9.967-0.471c0,0,2.33,2.209,5.316,4.938c2.123,1.936,2.44,4.637,2.359,6.473
					c-0.052,1.188-0.973,2.137-2.154,2.277c-3.055,0.359-8.929,0.881-10.505-0.209c-2.347-1.621-3.793-1.955-4.997-2.84
					c-0.911-0.67-1.45-1.738-1.533-2.865L124.74,665.03z"/>
				<path fill="#A1C7FF" d="M115.864,665.378l-9.975,0.775c0,0-2.644,2.213-5.36,5.209c-1.931,2.131-1.993,4.85-1.738,6.67
					c0.165,1.174,1.171,2.033,2.357,2.061c3.076,0.072,8.974,0.037,10.44-1.193c2.183-1.844,3.59-2.305,4.705-3.303
					c0.842-0.754,1.282-1.867,1.257-2.998L115.864,665.378z"/>
				<path fill="#CEE0FF" d="M134.708,664.56l1.17-16.189c0,0-3.084,1.508-8.07,1.311c-2.037-0.076-4.873-0.516-4.873-0.516
					l1.806,15.865L134.708,664.56z"/>
				<path fill="#CEE0FF" d="M105.746,666.181l-2.5-15.748c0,0,1.912,0.373,7.036-0.014c2.034-0.152,5.887-1.256,5.887-1.256
					l-0.305,16.215L105.746,666.181z"/>
				<path fill="#303030" d="M133.664,664.61c0,0,3.631,3.799,3.631,4.133s-1.91,0.57-2.579,0.381
					c-0.669-0.191-5.309-4.314-5.309-4.314L133.664,664.61z"/>
				<path fill="#303030" d="M110.79,665.767c0,0-4.728,4.408-5.062,4.646c-0.334,0.238-2.244,0.238-2.244-0.238
					c0-0.479,3.207-4.07,3.207-4.07L110.79,665.767z"/>
				<path fill="#002D56" d="M125.037,665.669l9.555-0.586c0.374-0.023,0.663-0.35,0.639-0.725l0,0
					c-0.023-0.373-0.349-0.66-0.723-0.637l-9.555,0.586c-0.375,0.021-0.662,0.35-0.639,0.723l0,0
					C124.339,665.407,124.663,665.69,125.037,665.669z"/>
				<path fill="#002D56" d="M105.974,666.351l9.556-0.59c0.373-0.021,0.661-0.344,0.638-0.723l0,0
					c-0.022-0.369-0.348-0.66-0.721-0.637l-9.556,0.592c-0.374,0.021-0.662,0.344-0.637,0.721l0,0
					C105.276,666.083,105.601,666.376,105.974,666.351z"/>
				<path fill="#002D56" d="M135.745,650.216l-0.156,2.152c0,0-2.449,0.898-5.268,1.188c-2.817,0.285-6.908-0.184-6.908-0.184
					l-0.261-2.301c0,0,3.827,0.529,6.882,0.24C133.092,651.024,135.745,650.216,135.745,650.216z"/>
				<path fill="#002D56" d="M116.169,652.94c0,0-4.139,1.332-6.859,1.568c-2.723,0.242-5.462-0.283-5.462-0.283l-0.364-2.295
					c0,0,3.056,0.658,5.92,0.381c2.866-0.271,6.765-1.383,6.765-1.383V652.94z"/>
			</g>
		</g>
	</g>
	<g display="none">
		<ellipse display="inline" fill="#D3C4DF" cx="202.074" cy="435.734" rx="94.376" ry="14.345"/>
		<g display="inline">
			
				<rect x="265.431" y="285.684" transform="matrix(0.9926 0.1218 -0.1218 0.9926 45.5735 -29.8503)" fill="#9D9D9C" width="3.099" height="144.421"/>
			<path fill="#336850" d="M190.562,208.376c-5.241,1.285-17.73,6.917-25.054,20.125c-7.322,13.208-15.344,64.295-6.409,68.762
				c8.935,4.467,17.52,3.303,20.512-1.943C182.604,290.077,190.562,208.376,190.562,208.376z"/>
			<path fill="#FFBD95" d="M202.765,216.593c-3.5,1.818-3.201,10.471-0.109,17.224c3.089,6.752,16.898,25.151,17.834,27.736
				c1.824,5.04,6.238,8.151,11.613,10.74c6.314,3.042,33.664,12.118,33.664,12.118l3.02-6.836c0,0-33.183-16.673-36.714-21.854
				C228.543,250.542,215.567,209.94,202.765,216.593z"/>
			<path fill="#B8D1FF" d="M201.528,217.283c4.143-3.635,9.163-5.023,17.993,10.77c8.83,15.793,10.609,19.706,10.609,19.706
				s-5.017,6.042-8.381,7.865c-3.367,1.824-5.312,1.778-5.312,1.778s-16.638-24.735-17.492-30.346
				C198.089,221.447,199.33,219.211,201.528,217.283z"/>
			<polygon fill="#575756" points="224.591,368.029 249.228,424.93 254.471,423.653 231.027,365.521 			"/>
			<path fill="#FFBD95" d="M212.907,171.781c0,0,3.781,0.11,4.267,5.275c0.155,1.641-0.452,5.523,0.042,6.325
				c0.496,0.801,3.065,5.314,2.913,5.8c-0.158,0.487-2.271,1.545-2.271,1.545l0.155,3.296l-0.769,0.855l0.182,1.181l-1.25,3.625
				c0,0,0.031,2.076-0.623,2.676c-2.611,2.394-11.583,1.11-14.024-0.312c-2.44-1.422-12.289-11.549-11.678-14.223
				c0.612-2.672,11.879-18.486,15.272-18.529C208.513,169.253,212.907,171.781,212.907,171.781z"/>
			<path fill="#FFA47C" d="M216.007,301.419c0,0,18.58,56.265,18.235,58.284c-0.802,4.689-18.534,6.128-18.725,4.12
				c-0.19-2.009-30.044-48.735-30.044-50.344C185.473,311.871,212.579,295.386,216.007,301.419z"/>
			<path fill="#FFBD95" d="M195.721,208.567c-5.323-1.05-8.841,2.012-12.259,13.869c-3.417,11.858,5.981,30.683,4.154,51.517
				c-0.792,9.018-9.829,17.756-11.616,29.947c-0.843,5.771,4.246,20.23,19.721,19.827c15.475-0.402,20.83-19.896,20.5-25.322
				c-0.19-3.117,0.314-33.674,3.126-50.11c0.625-3.659-1.056-16.511-4.946-24.624C210.245,215.004,203.06,210.018,195.721,208.567z"
				/>
			<path fill="#FFBD95" d="M214.402,307.518c0,0-26.47,63.663-28.25,64.847c-3.425,2.277-24.597,48.636-24.797,51.248
				c-0.2,2.614-13.263,0.913-11.658-1.405c1.81-2.613,6.533-35.976,9.748-44.214c3.216-8.241,10.35-15.174,10.753-15.978
				c0.401-0.806,7.637-46.928,8.441-50.747C179.443,307.45,213.787,291.306,214.402,307.518z"/>
			<path fill="#B8D1FF" d="M243.872,421.517c0,0,0.686,9.199,3.636,12.296c0.788,0.829,27.734-7.251,30.95-10.201
				c3.214-2.945,5.76-5.626,5.76-5.626s-2.277-3.35-4.019-2.813c-1.741,0.535-19.294,2.948-21.839,1.472
				c-2.548-1.472-5.338-4.369-5.751-2.719C252.197,415.574,248.83,420.378,243.872,421.517z"/>
			<path fill="#CEE0FF" d="M149.82,420.483c0,0-3.66,8.723-2.95,12.938c0.19,1.13,27.045,9.507,31.358,8.862
				c4.315-0.643,7.924-1.44,7.924-1.44s-0.013-4.052-1.757-4.582c-1.744-0.529-17.641-8.349-18.927-10.996
				c-1.285-2.646-1.977-6.607-3.244-5.473C160.959,420.93,154.566,422.312,149.82,420.483z"/>
			<path fill="#FFBD95" d="M207.975,217.838c-3.886-11.413,1.134-15.34,1.134-15.34s-15.237-13.155-15.197-10.207
				c0.041,2.946,1.006,11.404-5.132,18.482C187.073,212.742,209.367,221.923,207.975,217.838z"/>
			<path fill="#6A271F" d="M216.327,174.099c0,0-0.86-4.786-7.676-7.283c-6.817-2.497-5.904,1.338-8.657,0.887
				c-2.75-0.448-3.784,0.182-9.398,3.383c-5.612,3.203-6.88,8.706-6.33,13.867c0.55,5.162,9.603,13.309,9.603,13.309
				s10.906-16.523,10.407-18.456C203.776,177.875,216.327,174.099,216.327,174.099z"/>
			
				<ellipse transform="matrix(-0.9935 0.1135 -0.1135 -0.9935 422.958 350.6935)" fill="#FFBD95" cx="201.492" cy="187.392" rx="2.563" ry="4.486"/>
			<path fill="#22272C" d="M207.366,359.836c-8.646-14.059-21.893-45.392-21.893-46.357c0-1.608,27.105-18.093,30.534-12.06
				c0,0,11.306,31.885,16.332,47.623L207.366,359.836z"/>
			<path fill="#475055" d="M170.073,355.561c1.423-8.793,5.128-37.416,5.84-41.566c-0.833-5.055-0.254-7.756,0.087-10.094
				c0.868-5.923,3.446-11.026,5.961-15.747l0.021-0.021c0,0,5.098,4.243,10.725,5.984c5.627,1.74,23.491,0.061,23.491,0.061l0,0
				c-0.02,2.152-0.012,3.656,0.023,4.228c0.114,1.842-0.452,5.31-1.822,9.097c0,0.006,0.002,0.01,0.002,0.015
				c0,0-0.029,0.068-0.064,0.152c-0.374,1.016-0.789,2.045-1.284,3.081c-2.492,5.971-10.719,39.16-16.175,51.929L170.073,355.561z"
				/>
			<path fill="#22272C" d="M186.152,440.843c0,0-7.479,1.695-9.101,1.475c-1.136-0.151-16.226-6.813-24.721-9.378
				c-2.489-0.752-4.548-1.678-5.551-1.983c-0.46-0.139-0.375,2.5-0.375,2.5l0.375,1.942c0,0,28.918,8.307,29.963,8.441
				c1.048,0.134,10.293-1.521,10.293-1.521L186.152,440.843z"/>
			<path fill="#CEE0FF" d="M182.092,274.216c1.828-20.834-1.363-39.045-0.11-51.322c0.686-6.728,3.63-11.073,6.798-12.121
				c2.777,0.742,6.688,1.078,11.374,3.483c2.619,1.343,6.75,5.439,11.379,4.616c10.012,9.266,8.707,25.564,8.599,29.275
				c-0.247,8.569-2.617,23.434-3.148,35.131c-0.478,10.548,0.87,18.399,0.809,18.866l-40.919-6.073
				C180.208,288.422,181.519,280.741,182.092,274.216z"/>
			<path fill="#22272C" d="M284.218,417.986l-6.39,6.084c0,0-22.549,7.33-25.927,7.84c-3.819,0.578-6.314,1.237-5.513,1.961
				c0.806,0.723,1.475,2.331,1.475,2.331l30.683-9.761l7.638-8.455H284.218z"/>
			<path fill="#22272C" d="M215.011,362.679c0,0,2.557,7.621,11.684,4.901c9.129-2.721,7.337-9.12,7.337-9.12l-0.623-2.371
				L215.011,362.679z"/>
			<path fill="#FFBD95" d="M195.5,215.967c-4.194-4.498-9.162-2.366-13.313,2.044c-4.15,4.409-20.689,31.339-20.424,33.275
				c0.267,1.936,7.628,8.606,10.19,7.436c2.559-1.168,17.356-23.204,20.139-27.422C194.875,227.082,200.414,221.234,195.5,215.967z"
				/>
			<path fill="#B8D1FF" d="M197.46,226.7l-4.306,71.788l-16.281-2.417c0,0,5.284-18.604,5.536-26.294
				c0.25-7.688-0.426-36.226-0.426-36.226L197.46,226.7z"/>
			<path fill="#225942" d="M190.562,208.376c0,0-7.028,84.833-12.991,89.285c-6.006,4.482-12.425,3.717-18.472-0.397
				c-6.048-4.115,10.204-6.778,11.85-12.853C172.595,278.338,180.14,211.239,190.562,208.376z"/>
			<path fill="#CEE0FF" d="M193.08,213.413c5.104,2.081,8.588,5.953-1.595,20.909c-10.184,14.955-12.886,18.295-12.886,18.295
				s-7.648-1.787-10.783-3.983c-3.134-2.196-3.966-3.957-3.966-3.957s14.697-25.936,19.332-29.208
				C187.817,212.196,190.373,212.308,193.08,213.413z"/>
			<path fill="#336850" d="M181.982,213.472l6.798-2.698c0,0,24.777,22.909,24.815,26.535c0.145,13.875-37.863,45.299-37.863,45.299
				l-4.783-2.488c0,0,40.913-35.023,39.146-41.529C209.555,236.608,181.982,213.472,181.982,213.472z"/>
			<polygon fill="#336850" points="170.949,280.119 216.983,283.278 216.983,291.178 163.849,290.147 			"/>
			<path fill="#575756" d="M277.315,288.967l-3.433-0.556c-1.666-0.269-2.81-1.854-2.541-3.521l0,0
				c0.27-1.667,1.854-2.81,3.52-2.541l3.433,0.555c1.669,0.269,2.812,1.854,2.543,3.521l0,0
				C280.569,288.092,278.982,289.236,277.315,288.967z"/>
			<path fill="#336850" d="M213.078,169.296c0,0-6.635-8.259-8.1-8.259c-1.461,0-22.57,10.618-22.57,12.43
				c0,1.814,0.243,10.1,1.742,10.1C185.646,183.567,213.315,170.82,213.078,169.296z"/>
			<polygon fill="#575756" points="211.19,218.177 194.97,182.276 195.68,181.953 211.898,217.854 			"/>
			<polygon fill="#575756" points="211.151,218.916 209.507,203.739 210.278,203.653 211.921,218.829 			"/>
			<path fill="#FFBD95" d="M161.021,256.909c1.759,6.452,16.732,1.909,22.97-0.745c6.235-2.651,23.617-12.219,23.617-12.219
				l-2.462-6.916c0,0-34.719,8.344-36.519,9.013C166.831,246.711,159.232,250.345,161.021,256.909z"/>
			<path fill="#225942" d="M183.5,182.923c0,0-9.161,8.933-7.587,9.838c1.574,0.908,14.318,0.849,23.032-5.079
				c8.714-5.928,13.706-11.598,17.597-13.151c3.896-1.554,6.915,0.101,7.95-0.936c1.039-1.036-6.667-6.086-12.18-5.237
				C210.116,168.698,183.5,182.923,183.5,182.923z"/>
			<ellipse fill="#22272C" cx="211.581" cy="218.335" rx="1.707" ry="1.713"/>
			<g>
				<path fill="#FFBD95" d="M264.647,283.87c0,0,1.978,1.876,2.354,2.093c0.375,0.216,3.74,1.575,4.479,2.447
					s0.918,1.611,1.135,1.721c0.216,0.11,2.365-0.38,1.443-2.129c-0.924-1.75-2.677-2.973-2.689-3.594s4.077-1.575,4.969-1.416
					c0.894,0.161,6.613,2.039,6.897,2.105c0.285,0.068,1.122,0.096,1.296-0.169c0.172-0.265-0.376-1.716-0.646-1.959
					c-0.269-0.241,0.434-0.61,0.326-0.942c-0.107-0.333-0.638-1.439-0.638-1.439s-0.288-1.418-0.688-1.851
					c-0.404-0.433-2.366-2.183-2.654-2.284c-0.291-0.099-5.366-1.987-6.631-1.897c-1.267,0.088-9.133,3.062-9.133,3.062
					L264.647,283.87z"/>
			</g>
			<g>
				<path fill="#FFBD95" d="M216.525,240.642v-0.008c-0.131-0.617-0.746-1.017-1.364-0.89l-4.828,1.002
					c-0.626,0.129-1.024,0.746-0.894,1.367v0.007c0.131,0.618,0.746,1.018,1.363,0.891l4.829-1.002
					C216.256,241.879,216.656,241.263,216.525,240.642z"/>
				<path fill="#FFBD95" d="M216.287,238.485l-0.002-0.004c-0.131-0.619-0.743-1.021-1.362-0.892l-4.828,1.001
					c-0.623,0.131-1.027,0.745-0.893,1.369v0.005c0.131,0.617,0.742,1.019,1.362,0.89l4.829-1
					C216.016,239.723,216.418,239.108,216.287,238.485z"/>
				<path fill="#FFBD95" d="M215.926,236.402v-0.005c-0.131-0.619-0.745-1.018-1.364-0.891l-4.828,1
					c-0.624,0.131-1.025,0.745-0.894,1.369v0.004c0.131,0.618,0.746,1.02,1.364,0.89l4.828-1
					C215.657,237.642,216.058,237.025,215.926,236.402z"/>
				<path fill="#FFBD95" d="M215.389,234.426v-0.005c-0.13-0.619-0.743-1.019-1.363-0.89l-4.829,1.002
					c-0.622,0.13-1.027,0.744-0.893,1.367l0.002,0.005c0.131,0.619,0.743,1.02,1.36,0.89l4.829-0.999
					C215.118,235.667,215.522,235.05,215.389,234.426z"/>
				<path fill="#FFBD95" d="M198.666,239.421c0,0,6.631-4.757,8.14-5.271c1.506-0.512,7.734-0.6,7.734-0.6s-1.427,2.416-0.944,3.758
					c0.48,1.345,2.045,4.698,2.045,4.698s-4.835,2.426-7.329,2.786c-2.49,0.359-5.025,0.14-5.025,0.14L198.666,239.421z"/>
			</g>
		</g>
	</g>
	<g>
		<ellipse fill="#D3C4DF" cx="506.029" cy="415.083" rx="109.581" ry="16.659"/>
		<g>
			<path fill="#8D3B26" d="M533.845,180.156c0,0,2.732-6.828,8.258-4.455c5.524,2.373,7.171,9.888,5.503,12.755
				c-1.665,2.869-2.837,14.022-2.049,14.004c0.784-0.021,0.267,1.95-1.5,2.062s-6.995-0.746-6.626-6.23
				c0.365-5.484-1.995-9.164-1.995-9.164L533.845,180.156z"/>
			<path fill="#FFA47C" d="M526.633,217.927c2.606,2.355,1.098,7.132-3.163,11.017c-4.26,3.887-30.57,19.211-32.409,18.927
				c-1.839-0.281-5.581-3.271-4.427-5.69c1.152-2.418,21.293-18.654,25.349-21.241C516.041,218.354,523.236,214.86,526.633,217.927z
				"/>
			<path fill="#FFBD95" d="M490.452,247.859c-3.593,0.402-10.115-6.158-13.272-11.736c-3.158-5.577-10.839-23.261-10.839-23.261
				l5.109-2.937c0,0,19.718,27.123,20.688,28.662C493.108,240.123,496.64,247.166,490.452,247.859z"/>
			<path fill="#FFA47C" d="M524.778,403.778c0.301,2.522,1.445,4.046,2.157,5.259c0.858,1.46,0.834,3.994,0.147,4.729
				c-1.883,2.006-4.81,0.65-8.229,2.03c-3.316,1.339-5.685,2.343-7.726,2.668c-2.079,0.335-6.597,0.364-6.95-0.595
				c-0.352-0.956,5.175-3.566,5.175-3.566c7.284-4.832,8.087-8.295,8.087-8.295S524.733,403.402,524.778,403.778z"/>
			<path fill="#FFA47C" d="M531.371,284.026c3.257,1.295,2.947,20.776-0.253,33.535c-3.036,12.11-5.564,28.804-6.666,29.646
				c-1.101,0.839-10.314,1.577-11.709,0.596c-1.395-0.983-5.979-55.574-5.984-58.132
				C506.755,287.113,517.247,278.407,531.371,284.026z"/>
			<path fill="#FFA47C" d="M524.612,345.954c5.523,5.409,6.717,19.495,6.415,24.902c-0.3,5.408-6.718,33.837-6.419,35.789
				c0.301,1.954-7.228,0.466-7.168-0.638c0.581-10.917-2.447-39.772-2.897-42.624c-0.451-2.856-1.952-15.875-1.97-17.16
				C512.49,339.615,521.458,342.866,524.612,345.954z"/>
			<path fill="#FFBD95" d="M535.353,194.503c0,0-0.979,15.806,0,16.624c3.051,2.545,12.051,4.887,14.123,9.314
				c2.513,5.364-10.856,22.319-13.221,39.003c-1.144,8.083,8.381,21.172,9.754,28.957c2.379,13.484-21.734,17.174-22.637,17.174
				c-4.627-0.002-15.919-11.245-16.613-17.174c-0.836-7.167,2.65-19.808,2.65-24.916c0-5.107-1.304-15.389-2.084-16.287
				c-0.781-0.903-4.02-3.928-4.02-7.233c0-4.807,7.207-11.586,7.507-13.237c0.3-1.654-0.32-4.031,0.511-5.087
				c1.651-2.103,10.209-6.456,10.36-7.51c0.151-1.051-0.151-14.571-0.151-14.571L535.353,194.503z"/>
			<path fill="#FFA47C" d="M521.646,205.389l0.024,1.434l9.193,4.651c1.545,0.781,3.344,0.876,4.963,0.263l0.334-0.127
				c0,0-0.584-3.481-0.862-6.733c-0.308-3.574,0.194-7.015,0.194-7.015L521.646,205.389z"/>
			<path fill="#FFBD95" d="M543.215,282.739c3.479,0.44,4.952,19.521,5.437,32.664c0.652,17.72,2.77,33.199,1.914,34.291
				c-0.855,1.087-10.857,2.986-12.452,2.384c-1.597-0.6-14.044-47.115-14.688-49.592
				C522.778,300.01,528.132,280.836,543.215,282.739z"/>
			<path fill="#FFBD95" d="M556.919,409.782c0,0,3.554,5.903,4.258,10.012c0.363,2.138-4.349,5.211-5.697,5.211
				c-2.681,0.006-4.245-3.217-4.239-4.883c0.012-2.292,0.22-8.593,0.22-8.593L556.919,409.782z"/>
			<path fill="#FFBD95" d="M543.092,345.173c-4.949,0.956-6.212,4.411-3.776,18.951c1.85,11.033,8.756,35.979,12.034,47.452
				c1.04,3.649,0.667,6.094,1.007,6.087c1.409-0.015,5.328,0.907,5.748-2.348c0.092-0.713-1.218-4.144-1.225-6.105
				c-0.043-11.359-0.121-40.113-0.791-44.142C555.299,360.348,551.009,343.641,543.092,345.173z"/>
			<path fill="#BD0000" d="M543.688,215.548c0,0-3.463,1.061-6.002,4.43c-3.492,4.636-4.986,12.756-4.986,12.756l-1.809-0.087
				c0,0,2.447-9.019,5.475-13.164c3.029-4.146,5.901-4.659,5.901-4.659L543.688,215.548z"/>
			<polygon fill="#BD0000" points="516.095,218.105 510.812,226.728 513.721,219.657 			"/>
			<path fill="#FFBD95" d="M543.64,218.191c3.194-1.465,6.984,1.812,8.871,7.259c1.883,5.448,5.563,35.675,4.578,37.251
				c-0.986,1.576-5.213,3.833-6.979,1.818c-1.768-2.016-8.723-26.933-9.492-31.682C539.847,228.088,539.479,220.099,543.64,218.191z
				"/>
			<path fill="#FFBD95" d="M465.773,212.845c0,0-1.791-5.39-2.103-6.649c-0.413-1.665-1.08-12.575,7.135-2.163
				c0.877,1.114,2.041,7.812,2.041,7.812l-5.357,3.64L465.773,212.845z"/>
			<path fill="#FFBD95" d="M539.655,193.734c-1.947,9.045-11.285,14.705-15.902,13.708c-4.494-0.968-8.988-9.675-7.879-18.993
				c1.092-9.187,7.813-13.877,14.646-12.403C537.356,177.518,541.607,184.688,539.655,193.734z"/>
			<path fill="#8D3B26" d="M523.28,181.995c0.861,2.607,3.305,4.296,8.834,5.047c3.957,0.538,6.225,6.189,6.059,8.371
				c-0.062,0.835-1.238,4.803-1.238,4.803s8.984-7.759,1.902-18.687c-7.084-10.928-16.764-5.473-16.884-4.662
				C521.831,177.678,522.864,180.736,523.28,181.995z"/>
			<path fill="#8D3B26" d="M525.668,179.988c0,0-0.2,3.824-3.503,4.412c-3.301,0.589-6.586,3.135-6.586,3.135
				s-0.141-9.101,6.374-10.668C528.467,175.302,525.668,179.988,525.668,179.988z"/>
			<g>
				<path fill="#DB6D00" d="M478.846,301.666c0,66.021-6.372,119.54-29.025,119.54c-23.069,0-29.027-53.52-29.027-119.54
					c0-66.02,9.509-119.541,29.027-119.541C469.368,182.125,478.846,235.646,478.846,301.666z"/>
				<path fill="#8D3B26" d="M475.512,300.653c0,62.27-5.596,112.748-25.491,112.748c-20.258,0-25.489-50.479-25.489-112.748
					s8.352-112.749,25.489-112.749C467.188,187.904,475.512,238.383,475.512,300.653z"/>
				<rect x="442.065" y="188.283" fill="#DB6D00" width="3.996" height="227.802"/>
				<rect x="453.957" y="188.283" fill="#DB6D00" width="3.996" height="227.802"/>
			</g>
			<path fill="#BD0000" d="M531.364,231.031c0,0-13.951,5.647-14.617,5.76c-0.664,0.109-7.354-7.817-7.354-7.817
				s-5.991,5.376-6.088,10.038c-0.096,4.66,4.02,8.188,4.02,8.188s5.871-1.529,7.424-1.529c1.557,0,11.542,4.231,15.65,3.661
				c4.102-0.571,9.733-3.434,9.733-3.434l1.837-4.326c0,0-3.749,0.99-5.809-2.77c-0.537-0.978-3.234-7.13-3.234-7.13
				L531.364,231.031z"/>
			<path fill="#BD0000" d="M506.634,285.398c0,0,6.246,5.48,13.443,5.646c7.196,0.166,23.611-9.438,23.611-9.438
				s2.139,5.52,2.531,7.632c0.16,0.863-4.17-1.502-11.161,2.597c-10.247,6.006-10.292,14.064-11.097,14.095
				c-6.267,0.24-17.201-13.308-17.591-15.926C505.983,287.394,506.634,285.398,506.634,285.398z"/>
			<circle fill="#475055" cx="554.003" cy="266.337" r="2.038"/>
			<path fill="#9D9D9C" d="M547.546,258.046c0,0,1.283,6.988,3.098,8.271c2.214,1.566,5.471,0.666,6.52-1.514
				c1.053-2.179-0.16-8.464-0.16-8.464L547.546,258.046z"/>
			<path fill="#FFBD95" d="M471.341,212.867c-0.689,0.469-2.346-0.536-3.191-2.941c-0.842-2.405-3.602-3.258-3.097-3.956
				c0.507-0.695,0.971-0.632,2.339,0c1.368,0.633,2.247,0.635,2.996,0.885C471.136,207.103,472.073,212.367,471.341,212.867z"/>
		</g>
	</g>
	<g display="none">
		<path display="inline" fill="#D3C4DF" d="M577.688,439.06c0,6.677-52.661,12.09-117.617,12.09c-64.96,0-117.62-5.414-117.62-12.09
			c0-6.676,52.66-12.088,117.62-12.088C525.026,426.971,577.688,432.384,577.688,439.06z"/>
		<g display="inline">
			<path fill="#FFA47C" d="M492.469,240.819c-4.819,4.504-2.667,9.749,1.9,14.099c4.571,4.351,32.645,21.566,34.689,21.261
				c2.047-0.308,8.119-7.632,6.935-10.333c-1.182-2.703-22.716-21.065-27.11-23.966C504.489,238.98,498.114,235.542,492.469,240.819
				z"/>
			<path fill="#FFA47C" d="M529.159,276.383c6.519,3.007,11.573-10.986,13.694-17.944c2.125-6.958,6.258-27.852,6.258-27.852
				l-7.384-2.75c0,0-10.6,16.314-17.456,35.174C523.566,264.948,522.528,273.323,529.159,276.383z"/>
			<g>
				<path fill="#FFA47C" d="M555.359,218.045l-0.005-0.002c-0.656-0.389-1.516-0.168-1.908,0.487l-3.042,5.121
					c-0.396,0.661-0.173,1.521,0.488,1.912l0.008,0.004c0.655,0.386,1.513,0.167,1.904-0.488l3.044-5.12
					C556.244,219.298,556.022,218.437,555.359,218.045z"/>
				<path fill="#FFA47C" d="M553.244,216.5l-0.005-0.004c-0.659-0.387-1.516-0.167-1.905,0.49l-3.044,5.12
					c-0.394,0.662-0.174,1.52,0.487,1.911l0.008,0.004c0.655,0.387,1.512,0.169,1.903-0.487l3.048-5.12
					C554.127,217.751,553.908,216.892,553.244,216.5z"/>
				<path fill="#FFA47C" d="M551.096,215.124l-0.007-0.003c-0.656-0.388-1.513-0.168-1.904,0.486l-3.045,5.123
					c-0.392,0.659-0.174,1.521,0.489,1.911l0.006,0.004c0.655,0.388,1.515,0.167,1.905-0.488l3.046-5.121
					C551.98,216.375,551.759,215.515,551.096,215.124z"/>
				<path fill="#FFA47C" d="M548.896,213.991l-0.007-0.005c-0.656-0.387-1.511-0.167-1.901,0.487l-3.049,5.123
					c-0.392,0.659-0.173,1.521,0.492,1.91l0.003,0.005c0.659,0.386,1.517,0.167,1.905-0.488l3.047-5.121
					C549.779,215.243,549.56,214.381,548.896,213.991z"/>
				<path fill="#FFA47C" d="M539.707,232.967c0,0,1.172-9.789,1.942-11.551c0.771-1.762,5.772-7.381,5.772-7.381
					s0.99,3.24,2.577,3.907c1.592,0.666,5.854,2.009,5.854,2.009s-1.78,6.288-3.49,8.802c-1.713,2.512-3.979,4.595-3.979,4.595
					L539.707,232.967z"/>
			</g>
			<path fill="#FFBD95" d="M498.933,206.605c0,0-12.278,13.719-13.679,14.052c-4.355,1.041-16.621-2.344-20.936,1.086
				c-5.229,4.16-3.388,35.4-5.559,44.343c-2.172,8.944-12.121,19.534-17.254,26.818c-5.131,7.287,14.942,29.143,15.851,29.596
				c0.91,0.452,12.6-3.05,15.399-4.875c2.796-1.827,11.336-22.79,13.896-27.949c2.56-5.158,12.729-22.639,13.547-23.705
				c5.47-7.126,6.526-14.364,7.054-16.183c0.522-1.818,1.997-4.566,1.689-6.051c-0.615-2.952-8.499-10.359-8.124-11.497
				c0.376-1.138,9.534-13.599,9.534-13.599L498.933,206.605z"/>
			<path fill="#FFA47C" d="M466.364,290.27c4.792,2.588,8.991,11.337,7.278,17.612c-1.712,6.275-37.797,60.086-42.647,61.669
				c-4.854,1.583-14.498-5.101-13.146-9.08c1.353-3.976,21.601-58.9,25.837-63.037C447.923,293.298,451.589,282.289,466.364,290.27z
				"/>
			<path fill="#FFA47C" d="M434.422,366.391c-6.845,9.524-12.933,13.087-16.527,15.328c-5.553,3.462-13.456,7.585-16.563,5.184
				c-4.441-3.438-1.979-10.288,3.728-17.93c3.729-4.99,7.609-9.023,13.72-10.843C424.664,356.374,437.541,362.05,434.422,366.391z"
				/>
			<polygon fill="#FFA47C" points="506.977,223.183 494.545,210.243 485.254,220.657 488.103,225.077 			"/>
			<path fill="#FFBD95" d="M519.47,193.928c-3.439-4.619-15.05-10.47-22.61-3.544c-7.558,6.927-6.447,15.404-4.131,20.962
				c1.806,4.333,3.864,6.934,8.332,10.062c0.91,0.638,9.646,3.924,11.566,3.652c1.317-0.183,3.982-8.999,4.334-8.894
				c0.354,0.105,1.458-0.238,1.649-0.958c0.28-1.05,0.366-7.734,0.757-8.366C519.755,206.208,523.408,199.219,519.47,193.928z"/>
			<path fill="#8D3B26" d="M521.206,198.413c0,0-6.14-5.189-16.196,0.982c-2.163,1.328-0.047,9.134-0.631,9.682
				c-0.625,0.585-5.795-6.526-5.704-5.668c0.901,8.744-2.677,12.783-3.441,12.688c-2.321-0.283-7.147-13.298-1.847-22.066
				c5.301-8.769,15.593-7.785,17.917-6.817C513.627,188.182,520.832,190.111,521.206,198.413z"/>
			<path fill="#303030" d="M502.455,234.114c0,0,1.026,11.035-4.943,10.548c-6.96-0.567-15.192-24.403-15.192-24.403
				s-9.092-0.042-12.766-0.041c-3.671,0.003-6.938,1.578-8.669,5.567c-1.732,3.987-5.016,30.775-6.669,38.786
				c-1.768,8.551-15.482,19.869-17.346,22.578c-0.367,0.534,19.239,6.031,28.999,11.479c8.433,4.71,14.123,7.245,14.123,7.245
				s6.57-14.851,9.99-20.433c3.996-6.521,6.52-11.861,8.901-15.674c4.066-6.512,7.738-14.529,8.167-16.448
				c0.431-1.918,2.111-6.825,1.891-9.583C508.722,240.983,502.455,234.114,502.455,234.114z M476.927,241.257
				c-7.2,8.445-7.737,12.297-12.889,11.062c-5.156-1.235-4.651-7.444-2.59-16.039c2.063-8.595,7.911-14.56,13.064-13.323
				C479.669,224.194,482.658,234.529,476.927,241.257z"/>
			<path fill="#FFBD95" d="M502.349,206.016c0.302,2.787,0,6.407-1.508,6.559c-1.503,0.149-2.97-1.987-3.273-4.775
				c-0.303-2.786,0.672-5.167,2.177-5.317S502.047,203.229,502.349,206.016z"/>
			<path fill="#FFBD95" d="M478.85,235.081c1.786-6.35-2.773-9.722-8.936-11.073c-6.161-1.353-39.092-1.527-40.684-0.206
				c-1.59,1.322-2.99,10.734-0.577,12.431c2.413,1.696,30.347,6.242,35.604,6.446C469.521,242.884,476.753,242.521,478.85,235.081z"
				/>
			<path fill="#FFBD95" d="M429.036,223.68c-7.131,0.806-4.201,15.392-2.411,22.442c1.793,7.053,9.085,27.064,9.085,27.064
				l7.74-1.477c0,0,0.607-19.445-3.299-39.128C439.749,230.56,436.295,222.86,429.036,223.68z"/>
			<g>
				<path fill="#FFBD95" d="M436.863,287.149h0.007c0.763-0.009,1.383-0.64,1.379-1.403l-0.052-5.957
					c-0.005-0.771-0.64-1.392-1.408-1.383h-0.006c-0.767,0.011-1.382,0.643-1.377,1.405l0.047,5.958
					C435.46,286.537,436.096,287.159,436.863,287.149z"/>
				<path fill="#FFBD95" d="M439.474,287.375h0.007c0.763-0.01,1.385-0.64,1.373-1.405l-0.046-5.956
					c-0.006-0.771-0.639-1.392-1.409-1.383h-0.008c-0.763,0.011-1.383,0.64-1.375,1.405l0.047,5.958
					C438.069,286.762,438.705,287.383,439.474,287.375z"/>
				<path fill="#FFBD95" d="M442.026,287.439h0.006c0.763-0.01,1.383-0.64,1.374-1.405l-0.046-5.956
					c-0.007-0.771-0.642-1.392-1.412-1.383h-0.006c-0.763,0.011-1.383,0.642-1.377,1.406l0.048,5.957
					C440.621,286.826,441.257,287.448,442.026,287.439z"/>
				<path fill="#FFBD95" d="M444.491,287.269h0.011c0.762-0.009,1.38-0.641,1.374-1.403l-0.048-5.958
					c-0.008-0.77-0.641-1.391-1.409-1.381h-0.007c-0.763,0.009-1.383,0.641-1.377,1.404l0.048,5.958
					C443.09,286.656,443.724,287.278,444.491,287.269z"/>
				<path fill="#FFBD95" d="M442.519,266.277c0,0,4.071,8.979,4.324,10.886c0.255,1.907-1.109,9.304-1.109,9.304
					s-2.526-2.258-4.231-2.003c-1.707,0.254-6.049,1.314-6.049,1.314s-1.733-6.3-1.574-9.337c0.163-3.036,1.02-5.99,1.02-5.99
					L442.519,266.277z"/>
			</g>
			<path fill="#FFBD95" d="M450.477,303.287c2.912-4.603,11.932-8.184,18.072-6.04c6.143,2.144,57.322,41.867,58.564,46.817
				c1.246,4.952-6.091,14.11-9.965,12.487c-3.876-1.625-57.262-25.631-61.096-30.145
				C452.217,321.893,441.488,317.473,450.477,303.287z"/>
			<path fill="#FFA47C" d="M526.901,347.857c-4.062,10.918-11.624,16.951-14.188,20.321c-2.564,3.371-11.671,9.701-16.498,7.145
				c-2.821-1.494-4.113-7.346,0.107-15.897c4.22-8.551,8.946-14.591,14.738-17.249C516.648,339.615,528.768,342.847,526.901,347.857
				z"/>
			<path fill="#303030" d="M463.494,294.457c-6.51-1.749-22.83,2.156-26.629,12.588c-3.799,10.434-11.9,34.234-11.9,34.234
				s4.694,3.451,11.9,5.554c7.225,2.109,10.879,1.943,10.879,1.943s26.99-34.705,27.767-39.602
				C476.286,304.278,469.15,295.978,463.494,294.457z"/>
			<path fill="#475055" d="M441.988,289.129c0,0-11.476,16.745-1.423,28.136c7.35,8.326,43.318,24.014,43.318,24.014
				s6.882-15.285,10.714-17.839c3.83-2.555,6.504-2.704,6.504-2.704s-27.32-22.002-31.285-24.127
				C465.853,294.485,441.988,289.129,441.988,289.129z"/>
			<path fill="#191919" d="M487.116,436.602c-0.133,0-0.269-0.012-0.405-0.047c-0.266-0.064-6.562-1.626-14.51-5.291
				c-6.896-3.181-11.6-7.772-13.602-13.277c-1.715-4.72-1.414-9.954,0.846-14.735c2.064-4.374,4.613-6.283,7.564-8.492
				c4.138-3.101,9.284-6.955,16.651-19.698c0.525-0.908,7.041-12.911,10.407-19.132c0.45-0.826,1.491-1.13,2.312-0.687
				c0.824,0.447,1.136,1.481,0.685,2.311c-0.401,0.734-9.776,18.043-10.457,19.218c-7.713,13.341-13.403,17.605-17.555,20.713
				c-2.801,2.097-4.822,3.612-6.526,7.221c-1.87,3.956-2.127,8.258-0.727,12.115c1.687,4.636,5.775,8.561,11.827,11.35
				c7.633,3.518,13.832,5.062,13.894,5.074c0.913,0.225,1.473,1.149,1.25,2.061C488.58,436.082,487.886,436.602,487.116,436.602z"/>
			<path fill="#CEE0FF" d="M499.445,353.742c0,0,1.444,6.855,4.709,8.772c3.264,1.915,11.445,2.431,11.445,2.431
				s14.031-13.929,12.826-18.968c-1.206-5.039-12.521-14.478-12.826-14.334c-0.304,0.141-17.917,16.104-17.468,16.31
				c0.451,0.208,2.97,1.501,2.97,2C501.104,350.448,499.445,353.742,499.445,353.742z"/>
			<path fill="#191919" d="M383.208,441.465c-4.501,0-12.572-1.014-19.779-7.226c-5.978-5.15-9.621-12.484-9.753-19.617
				c-0.09-4.697,1.431-8.738,4.268-11.371c3.872-3.596,6.954-5.577,10.525-7.871c4.965-3.19,11.144-7.161,22.106-17.443
				c0.768-0.718,10.472-10.325,15.501-15.306c0.665-0.664,1.742-0.664,2.408,0.009c0.665,0.67,0.655,1.747-0.011,2.41
				c-0.595,0.589-14.575,14.444-15.566,15.375c-11.195,10.492-17.517,14.556-22.596,17.821c-3.435,2.209-6.4,4.115-10.052,7.502
				c-2.118,1.967-3.247,5.097-3.177,8.811c0.11,6.089,3.396,12.643,8.57,17.101c9.278,7.996,20.381,6.224,20.492,6.216
				c0.899-0.171,1.804,0.463,1.958,1.396c0.158,0.927-0.47,1.803-1.396,1.96C386.547,441.258,385.243,441.465,383.208,441.465z"/>
			<path fill="#B8D1FF" d="M411.688,361.82c0,0,4.742-3.458,6.031-4.018c1.288-0.56,3.397-6.282,3.397-6.282
				s6.603,5.858,10.577,7.077c3.976,1.22,7.607,1.743,7.607,1.743s-6.046,9.412-6.898,10.548c-0.849,1.135-7.758,6.291-7.758,6.291
				s-8.28-2.473-9.982-4.951C412.959,369.751,411.688,361.82,411.688,361.82z"/>
			<polygon fill="#CEE0FF" points="474.035,263.832 494.93,272.981 503.655,258.613 482.792,249.355 			"/>
			<path fill="#B8D1FF" d="M499.374,346.561l2.184,1.227l7.347-3.512l-5.953,4.501H515.6l-12.23,1.78l4.577,3.725l-5.216-2.13
				l-2.279,3.221l-1.006-1.631c0,0,1.944-3.009,1.656-3.79c-0.288-0.78-2.97-2-2.97-2L499.374,346.561z"/>
			<path fill="#475055" d="M499.445,353.742c0,0,3.218,5.79,6.908,7.921c3.689,2.127,9.246,3.283,9.246,3.283
				s-18.974,30.072-28.483,25.245C477.607,385.366,499.445,353.742,499.445,353.742z"/>
			<path fill="#A1C7FF" d="M411.688,361.82c0,0,4.694-3.62,6.031-4.018c1.337-0.397,3.397-6.282,3.397-6.282l2.146,1.796
				l-2.218,4.486l5.533,4.018l-6.671-2.289l5.589,6.105l-7.008-4.828l1.095,4.136l-2.609-3.709l-4.917,2.606L411.688,361.82z"/>
			<path fill="#475055" d="M411.688,361.82c0,0,1.571,6.746,4.489,9.852c2.916,3.106,8.468,5.507,8.468,5.507
				s-27.428,23.61-35.134,16.237C381.804,386.047,411.688,361.82,411.688,361.82z"/>
		</g>
	</g>
</g>
<g>
	<path fill="#D3C4DF" d="M648.764,692.596c0,11.006-84.5,19.93-188.73,19.93c-104.233,0-188.734-8.924-188.734-19.93
		s84.5-19.928,188.734-19.928C564.264,672.668,648.764,681.59,648.764,692.596z"/>
	<g>
		<g>
			<g>
				<g>
					<g>
						<path fill="#191919" d="M397.523,671.197c-1.013,1.439-1.702,4.227-1.801,5.511c-0.122,1.546,0.788,4.807,1.793,4.807
							c2.925,0,6.426,0.12,9.446,0.532c3.018,0.413,4.149,2.172,11.868,2.154c2.254-0.006,6.349-0.15,6.23-1.078
							c-0.12-0.928-7.408-2.613-9.759-4.811c-5.946-5.556-9.909-6.898-9.909-6.898S397.73,670.9,397.523,671.197z"/>
						<rect x="397.221" y="681.515" fill="#191919" width="7.74" height="1.464"/>
					</g>
					<path fill="#191919" d="M366.633,608.907c0,0,26.991,7.245,30.267,10.86c3.188,3.523,12.184,52.26,12.184,52.26
						s-2.035,1.883-7.281,2.293c-5.248,0.407-7.034,0-7.034,0s-8.758-31.738-9.643-37.177c-0.7-4.305-2.344-10.577-2.344-10.577
						s-33.787-1.673-36.103-3.673c-13.201-11.397,1.323-17.91,1.323-17.91l18.82,1.329L366.633,608.907z"/>
				</g>
				<path fill="#B8D1FF" d="M355.935,553.705c-4.065,2.416-3.272,6.502-0.638,10.345c2.636,3.843,18.796,20.787,21.68,20.8
					c1.507,0.006,6.428-2.571,5.969-4.688c-0.463-2.115-12.541-19.115-15.26-21.896C364.967,555.482,360.702,550.87,355.935,553.705
					z"/>
				<path fill="#FFA47C" d="M394.427,553.945c0.914-1.303,5.454-2.693,5.608-3.005c0.15-0.311,10.913,2.062,10.515,2.554
					c-0.396,0.494-1.65,0.846-3.289,0.637c-1.641-0.208-7.336,3.855-10.289,3.688C394.018,557.648,393.763,554.893,394.427,553.945z
					"/>
				<path fill="#FFA47C" d="M375.611,584.171c3.901,3.355,10.137-5.297,12.966-9.675c2.834-4.382,10.327-18.774,10.327-18.774
					l-4.31-1.973c0,0-17.942,20.553-18.801,21.754C374.934,576.707,371.642,580.759,375.611,584.171z"/>
				<path fill="#FFBD95" d="M342.634,533.865c0,0-0.367,13.644-1.148,14.315c-2.433,2.097-10.12,5.829-11.736,9.436
					c-1.961,4.369,8.258,21.808,9.82,28.218c1.562,6.41-1.729,20.334-2.598,26.661c-0.869,6.33,19.548,9.733,20.275,9.723
					c0.728-0.013,8.525-6.243,9.706-8.326s-1.79-18.092-1.858-22.22c-0.066-4.128,0.654-18.607,0.824-19.556
					c1.139-6.339-0.574-11.293-0.838-12.626c-0.264-1.332-0.229-3.564-0.913-4.408c-1.363-1.678-8.824-3.799-8.961-4.648
					c-0.135-0.847-1.337-12.664-1.337-12.664L342.634,533.865z"/>
				<g>
					
						<rect x="390.765" y="685.786" transform="matrix(0.9987 -0.0504 0.0504 0.9987 -34.1274 20.7797)" fill="#191919" width="7.744" height="1.513"/>
					<path fill="#191919" d="M390.266,675.54c-0.878,1.569-1.307,4.497-1.292,5.824c0.021,1.602,1.224,4.874,2.221,4.788
						c2.919-0.26,6.415-0.445,9.461-0.286c3.047,0.157,4.33,1.87,12.021,1.169c2.243-0.205,6.31-0.717,6.104-1.659
						c-0.205-0.944-7.616-2.033-10.155-4.087c-6.433-5.188-10.498-6.219-10.498-6.219S390.446,675.217,390.266,675.54z"/>
				</g>
				<path fill="#303030" d="M336.989,604.18c0,0-1.73,6.673-0.979,12.202c0.747,5.528,3.619,12.122,16.528,13.325
					c12.91,1.201,20.953,1.89,21.356,1.931c0.407,0.041,1.979,8.581,3.803,16.101c2.054,8.48,10.58,29.857,10.58,29.857
					s2.796,0.803,7.919,0.908c5.126,0.104,6.787-1.705,6.787-1.705s-9.892-47.346-11.13-51.355
					c-2.081-6.776-24.915-12.684-24.809-13.881c0.112-1.196,0-6.047,0-6.047L336.989,604.18z"/>
				<path fill="#CEE0FF" d="M341.485,548.181l12.98,7.644l0.741-5.391c0,0,7.916,2.967,8.961,4.648s1.591,5.359,1.951,6.722
					c0.356,1.364,0.66,7.679,0.214,13.165c-0.261,3.21-0.109,7.443-0.51,12.91c-0.339,4.68,3.021,12.991,1.435,17.161
					c-0.149,0.396-5.272,0.856-12.192,0.634c-8.012-0.257-18.027,0.748-18.395,0.458c-1.565-1.237,2.028-17.232,1.726-18.597
					c-0.302-1.364-9.292-23.106-9.504-26.216c-0.21-3.108,1.153-5.758,3.324-7.249C334.626,552.418,341.485,548.181,341.485,548.181
					z"/>
				<path fill="#B8D1FF" d="M366.037,591.358c-0.31-2.334-0.154-12.937-9.724-23.27c-3.395-3.667-11.921-11.075-16.84-12.993
					c-3.828-1.492-6.791-0.338-8.918,1.392c-2.426,1.973-1.199,6.497-1.199,6.497c1.783,7.254,8.883,23.841,9.04,24.551
					c0.303,1.364-3.291,17.359-1.726,18.597c0.185,0.146,2.83-0.037,6.433-0.223l13.26-0.224c0,0-1.362-7.508-1.433-10.769
					C354.854,591.657,366.504,594.877,366.037,591.358z"/>
				<polygon fill="#FFA47C" points="343.992,536.416 354.033,539.096 354.673,545.786 345.199,547.674 341.995,545.645 
					342.694,536.057 				"/>
				<path fill="#FFBD95" d="M348.429,517.762c-4.012-1.472-13.482-0.37-15.152,7.039c-1.668,7.407,2.559,12.235,6.283,14.752
					c2.906,1.963,5.239,2.741,9.253,2.862c0.819,0.024,7.476-1.5,8.524-2.454c0.718-0.653-1.363-7.235-1.105-7.314
					c0.257-0.08,0.78-0.745,0.596-1.273c-0.271-0.769-3.019-4.969-3.048-5.521C353.749,525.297,353.031,519.449,348.429,517.762z"/>
				<path fill="#8D3B26" d="M351.362,519.846c0,0-5.886-0.721-9.382,7.236c-0.753,1.713,3.796,5.712,3.675,6.292
					c-0.132,0.621-6.239-1.697-5.826-1.198c4.21,5.078,2.694,8.547,2.191,8.802c-1.519,0.772-8.847-4.853-9.314-12.484
					c-0.471-7.632,6.168-11.228,7.977-11.575C342.495,516.57,347.656,514.826,351.362,519.846z"/>
				<path fill="#FFBD95" d="M343.145,532.297c1.352,1.612,2.684,3.991,1.837,4.701c-0.846,0.711-2.63-0.021-3.981-1.634
					c-1.349-1.612-1.759-3.495-0.91-4.203C340.94,530.449,341.796,530.686,343.145,532.297z"/>
				<polygon fill="#B8D1FF" points="353.768,553.096 354.466,555.824 351.412,554.057 				"/>
				<polygon fill="#E0F2FF" points="340.303,548.741 341.995,545.645 353.768,553.096 352.702,556.487 				"/>
				<polygon fill="#B8D1FF" points="354.466,555.824 354.651,552.935 355.738,554.165 				"/>
				<polygon fill="#E0F2FF" points="354.651,552.935 355.029,548.895 356.859,550.548 356.392,555.259 				"/>
				<path fill="#B8D1FF" d="M375.516,584.576c3.901,3.354,11.137-5.027,13.968-9.406c2.833-4.381,8.422-15.63,8.422-15.63
					l-5.318-3.716c0,0-16.594,18.398-17.454,19.602C374.277,576.627,371.544,581.162,375.516,584.576z"/>
				<polygon fill="#CEE0FF" points="396.129,564.067 388.542,559.557 391.67,555.259 398.284,559.188 				"/>
				<polygon fill="#4A0000" points="354.591,555.274 354.844,556.692 359.573,555.855 357.497,551.864 				"/>
				<polygon fill="#6D0000" points="355.032,555.09 355.789,556.316 351.693,558.832 350.595,554.469 				"/>
				<path fill="#6D0000" d="M355.258,557.02l0.106-0.027c0.421-0.116,0.671-0.557,0.558-0.979l-0.294-1.062
					c-0.117-0.422-0.556-0.672-0.977-0.557l-0.103,0.029c-0.421,0.116-0.676,0.555-0.558,0.975l0.288,1.065
					C354.397,556.885,354.836,557.135,355.258,557.02z"/>
				<path fill="#8D3B26" d="M333.474,532.01c0,0,1.326,2.877,1.519,4.264c0.189,1.387,0.24,3.109,0,3.54
					c-0.239,0.431-0.676,0.909-0.676,0.909s1.347,0.432,2.014-0.623c0.671-1.051,0.442-1.572,0.442-1.572s0.468,0.426,0.468,1.383
					s-0.335,1.852-0.621,1.954c-0.289,0.104,0.692,0.056,1.291-0.31c1.054-0.64,1.042-2.062,1.042-2.062s0.383,0.98,0.393,1.327
					c0.011,0.28-0.238,1.101-0.238,1.101s1.196-0.145,1.687-1.109c0.428-0.84,1.202-2.097,1.202-2.097L333.474,532.01z"/>
			</g>
			<g>
				<path fill="#7C7C7C" d="M317.968,559.584c-0.875,0-1.641-0.638-1.777-1.527c-0.299-1.986-1.976-3.43-3.988-3.43h-7.576
					c-0.992,0-1.799-0.807-1.799-1.799c0-0.994,0.807-1.801,1.799-1.801h7.576c3.807,0,6.978,2.729,7.548,6.489
					c0.146,0.984-0.527,1.9-1.512,2.05C318.149,559.578,318.056,559.584,317.968,559.584z"/>
				<rect x="367.667" y="631.584" fill="#7C7C7C" width="3.472" height="54.915"/>
				<path fill="#7C7C7C" d="M387.682,690.881l-19.5-60.891c-0.304-0.945,0.221-1.959,1.167-2.26c0.944-0.304,1.96,0.219,2.261,1.164
					l18.698,58.385l23.831-0.045c0.005,0,0.005,0,0.005,0c0.995,0,1.797,0.803,1.8,1.797c0,0.992-0.801,1.799-1.797,1.801
					L387.682,690.881z"/>
				<path fill="#515151" d="M346.417,683.136l-41.591-0.056c-0.995-0.004-1.801-0.809-1.798-1.801c0-0.993,0.806-1.798,1.798-1.798
					h0.003l40.555,0.058l21.626-13.599c0.843-0.527,1.955-0.276,2.479,0.564c0.53,0.841,0.278,1.952-0.564,2.481L346.417,683.136z"
					/>
				<path fill="#7C7C7C" d="M369.448,628.74h-2.402v-26.208c0-1.388-1.127-2.518-2.518-2.518h-3.072v-2.399h3.072
					c2.711,0,4.92,2.208,4.92,4.917V628.74z"/>
				<path fill="#242424" d="M371.587,632.639h-48.493v-6.396h48.493c1.766,0,3.196,1.433,3.196,3.197l0,0
					C374.783,631.207,373.353,632.639,371.587,632.639z"/>
				<rect x="320.956" y="591.66" fill="#7C7C7C" width="3.471" height="89.621"/>
				<rect x="344.165" y="628.904" fill="#515151" width="3.474" height="52.434"/>
				<path fill="#303030" d="M373.667,685.85c0,2.354-1.908,4.264-4.263,4.264c-2.358,0-4.266-1.91-4.266-4.264
					c0-2.357,1.907-4.268,4.266-4.268C371.759,681.582,373.667,683.492,373.667,685.85z"/>
				<g>
					<path fill="#D6D6D6" d="M322.693,695.087l-4.562-37.247l4.562-37.895l4.562,37.822L322.693,695.087z M322.693,624.951
						l-3.97,32.885l3.97,32.319l3.968-32.392L322.693,624.951z"/>
					<path fill="#D6D6D6" d="M335.536,692.822l-17.026-33.441l-8.672-37.17l17.222,33.979L335.536,692.822z M311.547,626.916
						l7.518,32.262l14.787,29.013l-7.352-31.798L311.547,626.916z"/>
					<path fill="#D6D6D6" d="M346.833,686.3l-27.442-25.598l-20.86-31.961l27.806,26.038L346.833,686.3z M301.748,632.574
						l18.099,27.742l23.815,22.207l-17.784-27.362L301.748,632.574z"/>
					<path fill="#D6D6D6" d="M355.212,676.311l-34.537-14.672l-30.534-22.898l35.035,14.957L355.212,676.311z M294.475,641.242
						l26.497,19.881l29.974,12.723l-26.068-19.633L294.475,641.242z"/>
					<path fill="#D6D6D6" d="M359.674,664.057l-37.476-1.976l-36.524-11.075l38.04,2.076L359.674,664.057z M290.604,651.875
						l31.697,9.622l32.517,1.704l-31.208-9.535L290.604,651.875z"/>
					<path fill="#D6D6D6" d="M285.674,664.064L322.126,653l37.548-1.988l-35.889,10.963L285.674,664.064z M354.818,651.87
						l-32.589,1.718l-31.629,9.604l33.082-1.803L354.818,651.87z"/>
					<path fill="#D6D6D6" d="M290.141,676.328l30.47-22.859l34.602-14.709l-29.975,22.574L290.141,676.328z M350.945,641.225
						l-30.034,12.759l-26.437,19.843l30.464-13.008L350.945,641.225z"/>
					<path fill="#D6D6D6" d="M298.53,686.33l20.816-31.907l27.486-25.652l-20.45,31.465L298.53,686.33z M343.662,632.545
						l-23.861,22.263l-18.053,27.687l24.177-22.641L343.662,632.545z"/>
					<path fill="#D6D6D6" d="M309.838,692.856l8.647-37.1l17.051-33.51l-8.451,36.565L309.838,692.856z M333.853,626.88
						l-14.812,29.08l-7.493,32.195l14.977-29.548L333.853,626.88z"/>
				</g>
				
					<rect x="318.099" y="557.319" transform="matrix(0.9903 -0.1388 0.1388 0.9903 -76.6835 50.0452)" fill="#303030" width="4.629" height="34.837"/>
				<path fill="#303030" d="M310.212,555.688H299.44c-1.581,0-2.861-1.282-2.861-2.862l0,0c0-1.577,1.281-2.858,2.861-2.858h10.772
					c1.58,0,2.861,1.281,2.861,2.858l0,0C313.073,554.405,311.792,555.688,310.212,555.688z"/>
				<rect x="368.738" y="677.803" fill="#303030" width="1.33" height="16.092"/>
				
					<rect x="368.738" y="677.801" transform="matrix(0.7064 -0.7078 0.7078 0.7064 -377.004 462.8627)" fill="#303030" width="1.329" height="16.092"/>
				<rect x="361.357" y="685.184" fill="#303030" width="16.09" height="1.328"/>
				
					<rect x="368.739" y="677.802" transform="matrix(-0.7071 -0.7071 0.7071 -0.7071 145.6414 1432.0229)" fill="#303030" width="1.327" height="16.092"/>
				<rect x="324.427" y="604.983" fill="#474747" width="45.642" height="17.264"/>
				<circle fill="#303030" cx="322.692" cy="657.803" r="4.264"/>
				<path fill="#191919" d="M322.693,623.207c19.072,0,34.593,15.52,34.593,34.596c0,19.074-15.521,34.594-34.593,34.594
					c-19.077,0-34.597-15.52-34.597-34.594C288.097,638.727,303.616,623.207,322.693,623.207L322.693,623.207z M322.693,618.409
					c-21.755,0-39.395,17.636-39.395,39.394c0,21.755,17.639,39.391,39.395,39.391c21.756,0,39.392-17.636,39.392-39.391
					C362.085,636.045,344.449,618.409,322.693,618.409L322.693,618.409z"/>
				<path fill="#191919" d="M369.404,679.3c3.609,0,6.546,2.937,6.546,6.55c0,3.608-2.937,6.547-6.546,6.547
					c-3.613,0-6.549-2.938-6.549-6.547C362.855,682.236,365.791,679.3,369.404,679.3L369.404,679.3z M369.404,674.502
					c-6.268,0-11.348,5.079-11.348,11.348c0,6.266,5.08,11.344,11.348,11.344c6.265,0,11.343-5.078,11.343-11.344
					C380.747,679.581,375.669,674.502,369.404,674.502L369.404,674.502z"/>
				<rect x="324.427" y="595.723" fill="#191919" width="39.934" height="6.186"/>
			</g>
			<g>
				<path fill="#CEE0FF" d="M333.466,557.059c-3.744,2.895-2.464,6.854,0.616,10.348c3.084,3.494,17.33,16.119,24.043,18.02
					c1.445,0.411,7.139-5.23,6.424-7.275c-0.717-2.045-15.919-15.603-18.95-18.035C342.562,557.682,337.854,553.672,333.466,557.059
					z"/>
				<path fill="#FFBD95" d="M356.691,582.082c-1.381,4.957,10.303,7.862,15.471,8.57c5.168,0.706,20.425,1.241,20.425,1.241
					l1.103-5.541c0,0-26.232-8.181-27.685-8.449C364.549,577.636,358.101,577.041,356.691,582.082z"/>
				<path fill="#FFBD95" d="M393.689,586.353c0,0,5.411,0.681,6.513,0.874c1.099,0.19,7.844,6.331,7.844,6.777
					c0,0.445-2.008,0.989-3.827,0c-1.815-0.988-2.725-1.764-4.495-1.695c-1.772,0.068-4.319,1.327-6.034,0.611
					c-1.716-0.72-3.396-1.113-3.396-1.113L393.689,586.353z"/>
			</g>
			<path fill="#CEE0FF" d="M355.102,581.547c-1.385,4.959,11.928,8.928,17.097,9.634c5.168,0.708,18.435,1.128,18.435,1.128
				l0.439-6.771c0,0-23.842-7.434-25.619-7.93C361.39,576.474,356.509,576.505,355.102,581.547z"/>
			
				<rect x="385.393" y="583.889" transform="matrix(-0.9913 -0.1318 0.1318 -0.9913 696.0447 1222.8911)" fill="#B8D1FF" width="6.222" height="9.03"/>
		</g>
		<g>
			<path fill="#6A6A6A" d="M489.594,559.584l-13.865-98.746c0,0,3.912,0,13.098,0c30.62,0,51.276,27.785,69.184,31.898
				c28.322,6.508,94.63,6.376,94.63,36.996c0,17.605-21.815,29.852-43.632,29.852C574.562,559.584,489.594,559.584,489.594,559.584z
				"/>
			<rect x="414.573" y="562.619" fill="#3F3F3F" width="238.066" height="42.102"/>
			<path fill="#3F3F3F" d="M480.555,617.733H395.29c-1.609,0-2.914-1.306-2.914-2.914V596.92c0-1.611,1.305-2.916,2.914-2.916
				h85.265c1.609,0,2.912,1.305,2.912,2.916v17.899C483.467,616.428,482.164,617.733,480.555,617.733z"/>
			<path fill="#2D2D2D" d="M462.783,626.92h-42.83c-2.972,0-5.38-2.406-5.38-5.379v-3.808h53.586v3.808
				C468.159,624.514,465.752,626.92,462.783,626.92z"/>
			<path fill="#2D2D2D" d="M640.181,613.906h-18.713c-3.499,0-6.334-2.836-6.334-6.333v-2.853h31.382v2.853
				C646.516,611.07,643.68,613.906,640.181,613.906z"/>
			<rect x="436.39" y="626.92" fill="#2D2D2D" width="9.953" height="68.893"/>
			<rect x="625.848" y="613.906" fill="#2D2D2D" width="9.953" height="68.895"/>
			<path fill="#191919" d="M489.594,562.619l-13.398-98.747c0,0,3.445,0,12.631,0c30.62,0,51.276,27.783,69.184,31.897
				c28.322,6.508,94.63,6.377,94.63,36.996c0,17.605-21.815,29.854-43.632,29.854C574.562,562.619,489.594,562.619,489.594,562.619z
				"/>
			<polygon fill="#2D2D2D" points="468.159,562.619 483.467,491.43 491.123,491.43 476.195,562.619 			"/>
			<polygon fill="#3F3F3F" points="427.591,562.619 436.39,527.025 441.366,527.025 434.479,562.619 			"/>
			<polygon fill="#191919" points="436.39,552.731 446.343,562.619 451.318,562.619 436.39,548.076 			"/>
			<rect x="455.146" y="626.92" fill="#191919" width="5.615" height="55.881"/>
			<polygon fill="#8D3B26" points="460.761,682.801 491.123,604.721 488.316,604.721 457.954,682.801 			"/>
			<rect x="447.406" y="677.652" fill="#191919" width="15.565" height="5.148"/>
			<path fill="#2D2D2D" d="M448.574,634.622h-14.413c-2.001,0-3.64-1.638-3.64-3.637v-4.065h21.689v4.065
				C452.211,632.984,450.576,634.622,448.574,634.622z"/>
			<path fill="#191919" d="M446.171,695.812h-9.809c-0.68,0-1.233-0.556-1.233-1.235l0,0c0-0.682,0.554-1.235,1.233-1.235h9.809
				c0.678,0,1.235,0.554,1.235,1.235l0,0C447.406,695.257,446.849,695.812,446.171,695.812z"/>
			<path fill="#191919" d="M635.729,683.482h-9.811c-0.678,0-1.234-0.556-1.234-1.236l0,0c0-0.68,0.557-1.236,1.234-1.236h9.811
				c0.677,0,1.233,0.557,1.233,1.236l0,0C636.963,682.927,636.406,683.482,635.729,683.482z"/>
			<polygon fill="#191919" points="468.159,617.733 414.573,617.733 414.639,622.326 468.159,619.312 			"/>
			<polygon fill="#191919" points="452.211,626.92 430.521,626.92 430.521,630.985 452.211,628.952 			"/>
			<polygon fill="#191919" points="446.343,634.622 436.39,634.622 436.362,693.342 			"/>
			<polygon fill="#191919" points="646.516,604.721 615.134,604.721 615.402,609.312 646.516,605.87 			"/>
			<polygon fill="#191919" points="635.801,613.906 625.848,613.906 625.919,681.01 			"/>
			<rect x="414.573" y="562.619" fill="#6A6A6A" width="238.066" height="2.217"/>
		</g>
	</g>
</g>
<g>
	<ellipse fill="#D3C4DF" cx="164.637" cy="418.955" rx="119.031" ry="12.566"/>
	<g>
		<g>
			<path fill="#8D3B26" d="M189.3,215.724c-0.132,0.539-6.18-0.438-13.509-2.183c-7.334-1.744-13.173-3.594-13.047-4.132
				c0.127-0.537,6.176,0.441,13.509,2.188C183.587,213.339,189.426,215.187,189.3,215.724z"/>
			<polygon fill="#F2EEE7" points="184.225,213.699 183.856,215.25 189.527,216.297 189.765,215.289 			"/>
			<path fill="#CB8159" d="M189.765,215.289c0,0,0.895-0.399,1.709-0.074c0.821,0.326,1.702,0.791,2.213,0.734
				c0.512-0.054,0.963-0.492,0.963-0.492s-0.343,1.658-1.145,2.088c-2.082,1.124-3.979-1.247-3.979-1.247L189.765,215.289z"/>
			<path fill="#FFBD95" d="M123.451,404.024c0.282,4.144-1.448,7.5-1.425,8.895c0.031,1.678,1.361,3.141,2.322,3.404
				c2.63,0.725,3.584,0.5,7.973,1.211c2.791,0.451,10.092,2.278,12.118,1.77c2.026-0.51,6.345-1.889,6.148-2.881
				c-0.196-0.993-6.043-1.168-8.747-2.615c-6.971-3.746-12.803-9.783-12.803-9.783S123.428,403.65,123.451,404.024z"/>
			<path fill="#303030" d="M122.958,409.308c-0.438,1.384-0.947,2.774-0.932,3.61c0.031,1.678,1.361,3.141,2.322,3.404
				c2.63,0.725,3.584,0.5,7.973,1.211c2.791,0.451,10.092,2.278,12.118,1.77c2.026-0.51,6.345-1.889,6.148-2.881
				c-0.196-0.993-6.043-1.168-8.747-2.615l-2.325,1.343L122.958,409.308z"/>
			<path fill="#002D56" d="M114.967,281.306c-3.285,1.155-3.372,20.396-1.094,33.24c3.075,17.311,4.988,31.361,6.048,32.24
				c1.055,0.876,9.687,0.941,11.106,0.023c1.42-0.917,3.488-49.224,3.596-51.759C134.731,292.517,129.188,276.304,114.967,281.306z"
				/>
			<path fill="#002D56" d="M119.74,344.483c-5.144,5.679-4.347,22.048-3.73,27.385c0.615,5.336,7.507,30.743,7.326,32.695
				c-0.181,1.949,6.741,1.388,7.007,0.327c0.261-1.061,0.123-40.902,0.4-43.753c0.278-2.854,0.988-15.857,0.927-17.129
				C131.362,337.459,122.681,341.236,119.74,344.483z"/>
			<path fill="#002D56" d="M108.966,270.741c-1.823,2.417-3.498,4.702-4.637,6.712c-3.869,6.815,15.568,24.232,16.404,24.551
				c0.836,0.317,13.139-3.134,13.89-6.952c0.577-2.938-0.186-6.235,0.407-12.692C124.256,278.258,119.74,274.839,108.966,270.741z"
				/>
			<path fill="#27547C" d="M108.966,270.741c-8.321,9.458-9.506,15.876-8.767,25.96c0.419,5.685,1.583,15.65,2.102,20.321
				c1.358,12.306,1.606,29.051,2.575,30.024c0.971,0.971,9.925,2.931,11.426,2.153c1.501-0.78,12.35-57.803,12.696-60.316
				c0.112-0.801,5.899-5.997,5.899-5.997S110.37,269.146,108.966,270.741z"/>
			<path fill="#B8D1FF" d="M155.084,223.857c0,0-6.53-2.528-9.162,5.979c-2.739,8.838-1.148,14.188-1.148,14.188l16.11-1.177
				C160.885,242.847,162.929,226.083,155.084,223.857z"/>
			<path fill="#27547C" d="M106.192,343.32c-7.299,2.341-14.802,16.91-16.939,21.839c-2.135,4.929-8.893,30.372-10.027,31.97
				c-1.132,1.6,5.139,4.574,5.901,3.79c0.759-0.785,20.581-35.345,22.251-37.675c1.666-2.33,8.785-13.205,9.37-14.335
				C119.76,343.085,110.367,341.983,106.192,343.32z"/>
			<path fill="#FFA47C" d="M79.091,397.15c-1.536,0.974-3.458,3.39-4.166,4.591c-0.851,1.449-0.531,3.973,0.146,4.699
				c1.867,1.989,3.923,2.965,6.218,4.617c2.297,1.649,7.418,7.216,9.411,7.84c1.99,0.624,6.746,0.756,7.095-0.193
				c0.35-0.948-4.893-3.202-6.439-5.853c-3.988-6.833-6.229-11.933-6.229-11.933S79.407,396.949,79.091,397.15z"/>
			<path fill="#FFA47C" d="M149.952,224.895c2.133,0.986,3.237-1.505,4.201-3.563c-0.035-0.133-0.054-0.245-0.031-0.317
				c0.309-1.008,6.259-13.026,6.259-13.026l-10.285-10.352c0,0-5.017,12.709-6.68,14.676
				C144.844,217.185,145.291,222.732,149.952,224.895z"/>
			<path fill="#CEE0FF" d="M139.477,270.511c3.472-6.579,10.438-13.423,11.519-13.906c1.078-0.479,7.375-4.762,8.767-7.729
				c2.019-4.317-1.132-11.706-1.414-13.627c-0.239-1.648-0.277-6.552-0.577-7.848c-0.558-2.4-3.143-4.327-3.619-6.069
				c-1.879,0.956-9.308-4.146-10.737-9.02c-0.122,0.141-0.228,0.232-0.308,0.259c-3.812,1.001-9.169,2.841-12.893,5.947
				c-4.515,3.764-1.07,18.14-9.309,35.146c-2.486,5.14-7.172,11.628-11.939,17.076c10.439,4.888,15.491,7.258,25.931,12.146
				C136.648,277.931,138.449,272.456,139.477,270.511z"/>
			<path fill="#FFBD95" d="M167.903,188.9c-2.817-3.805-12.246-8.551-18.302-2.717c-6.052,5.835-5.085,12.87-3.168,17.467
				c1.495,3.585,3.176,5.725,6.811,8.281c0.742,0.521,7.827,3.162,9.378,2.92c1.062-0.169,3.145-7.521,3.433-7.438
				c0.285,0.083,1.174-0.214,1.324-0.817c0.219-0.874,0.235-6.431,0.544-6.962C168.235,199.105,171.129,193.257,167.903,188.9z"/>
			<path fill="#191919" d="M77.116,398.924c-0.932,1.006-1.775,2.112-2.19,2.816c-0.851,1.449-0.531,3.973,0.146,4.699
				c1.867,1.989,3.923,2.965,6.218,4.617c2.297,1.649,7.418,7.216,9.411,7.84c1.99,0.624,6.746,0.756,7.095-0.193
				c0.35-0.948-4.893-3.202-6.439-5.853c0,0-2.865-0.337-4.017-1.311C86.197,410.571,77.201,399.042,77.116,398.924z"/>
			<path fill="#8D3B26" d="M169.22,191.869c0,0-6.837,2.173-9.182,2.363c-2.344,0.188-5.771,6.525-6.99,7.643
				c-0.936,0.857-6.037,3.07-6.037,3.07s-4.15-7.128-0.923-14.128c3.226-6.998,8.261-7.983,13.666-6.956
				C165.158,184.886,167.267,186.055,169.22,191.869z"/>
			<path fill="#B8D1FF" d="M154.991,253.886c-3.372-0.044-9.986-0.857-13.185-1.864c-2.757-0.871-11.134-4.444-10.482-9.045
				c0.915-6.523,8.057-2.458,8.057-2.458s9.393-22.67-7.107-22.67c-7.691,0-7.972,27.447-9.858,32.242
				c-3.148,8.009-13.449,20.649-13.449,20.649s13.676,6.804,19.39,9.083c2.702,1.076-2.011-8.788,0.746-13.488
				c2.761-4.699,18.864-7.027,19.758-8.016C150.014,257.039,154.991,253.886,154.991,253.886z"/>
			<path fill="#8D3B26" d="M151.781,188.026c0,0-1.152-7.066-6.691-5.859c-5.537,1.206-8.535,8.084-7.573,11.153
				c0.963,3.065-0.173,13.973-0.89,13.8c-0.719-0.171-0.63,1.815,0.967,2.265c1.598,0.449,6.56,0.635,7.31-4.688
				c0.748-5.32,3.643-8.389,3.643-8.389L151.781,188.026z"/>
			
				<ellipse transform="matrix(0.9923 0.1236 -0.1236 0.9923 25.9077 -17.634)" fill="#FFBD95" cx="155.12" cy="200.053" rx="2.035" ry="3.747"/>
			<path fill="#CEE0FF" d="M135.874,218.147c0,0-6.186-3.282-9.805,4.854c-3.761,8.453-2.814,13.954-2.814,13.954l16.137,0.735
				C139.392,237.691,143.4,221.287,135.874,218.147z"/>
			<path fill="#CA9E67" d="M144.859,230.289c0,0,9.212,1.367,10.132,1.367s3.115,0,3.115,0s3.515,10.301,3.017,14.893
				c-0.495,4.594-22.215,31.615-22.588,33.805c-0.375,2.195-0.994,55.818-1.49,56.065c-0.497,0.248-26.74,1.491-28.078,0.994
				c-1.34-0.497,9.045-61.24,9.562-62.024c0.518-0.786,23.356-28.218,24.225-30.826
				C143.624,241.957,144.859,230.289,144.859,230.289z"/>
			<path fill="#CA9E67" d="M144.859,230.289c0,0-1.779-10.543-4.401-13.282c-2.624-2.739-4.26-2.062-4.26-2.062l2.768-1.099
				c0,0,2.67,0.554,3.788,2.54c1.118,1.984,5.083,14.337,5.083,14.337L144.859,230.289z"/>
			<path fill="#C6975B" d="M158.106,231.656c0,0,0.49-4.065-1.066-6.813c-1.079-1.903-2.442-2.558-2.442-2.558
				s1.903,2.248,2.184,4.685c0.331,2.88,0,4.687,0,4.687H158.106z"/>
			<path fill="#CA9E67" d="M120.429,273.03l-10.626-3.339l-1.859,2.24c0,0,9.991,6.226,10.061,5.865
				C118.073,277.438,120.429,273.03,120.429,273.03z"/>
			<path fill="#D7B78D" d="M156.782,231.656c0,0,3.353,10.982,1.396,14.147c-1.959,3.167-23.017,31.122-23.148,34.101
				c-0.133,2.982-2.703,56.862-2.703,56.862l4.717-0.348c0,0,0.754-52.11,2.606-56.515c1.379-3.28,19.614-28.092,21.165-32.304
				c1.548-4.214-2.709-15.944-2.709-15.944H156.782z"/>
			<path fill="#CB2E0E" d="M194.651,215.457c0,0-1.19,0.525-1.521,0.416c-0.331-0.109-0.564-0.199-0.564-0.199v2.176
				C192.565,217.849,194.355,218.126,194.651,215.457z"/>
		</g>
		<g>
			
				<rect x="188.455" y="192.592" transform="matrix(0.9714 0.2375 -0.2375 0.9714 62.7616 -38.0746)" fill="#B8D1FF" width="1.858" height="97.643"/>
			<polygon fill="#935709" points="187.775,417.024 183.317,417.024 210.782,162.015 215.243,162.015 			"/>
			<polygon fill="#935709" points="243.3,417.024 239.834,417.024 208.551,190.844 212.022,190.844 			"/>
			<rect x="172.607" y="289.068" fill="#DEC3A1" width="58.28" height="5.521"/>
			<rect x="195.146" y="190.844" fill="#DEC3A1" width="18.622" height="5.829"/>
			<rect x="172.607" y="287.744" fill="#DEC3A1" width="4.316" height="2.952"/>
			<rect x="179.294" y="287.744" fill="#DEC3A1" width="4.313" height="2.395"/>
			<rect x="201.457" y="195.808" fill="#DEC3A1" width="2.999" height="2.642"/>
			<rect x="195.146" y="195.808" fill="#DEC3A1" width="2.999" height="2.642"/>
			<polygon fill="#8F3E00" points="196.506,294.588 200.964,294.588 199.575,307.495 195.089,307.724 			"/>
			<polygon fill="#8F3E00" points="222.9,294.588 224.616,306.993 228.082,306.993 226.368,294.588 			"/>
			<polygon fill="#8F3E00" points="207.05,196.673 212.825,196.673 214.857,211.378 211.394,211.378 210.584,205.521 
				209.927,211.378 205.468,211.378 			"/>
		</g>
	</g>
</g>
</svg>
