<?xml version="1.0" encoding="utf-8"?>
<!-- Generator: Adobe Illustrator 19.2.1, SVG Export Plug-In . SVG Version: 6.00 Build 0)  -->
<svg version="1.1" id="Capa_1" xmlns="http://www.w3.org/2000/svg" xmlns:xlink="http://www.w3.org/1999/xlink" x="0px" y="0px"
	 viewBox="0 0 595.3 841.9" style="enable-background:new 0 0 595.3 841.9;" xml:space="preserve">
<style type="text/css">
	.st0{fill:#BFD017;}
	.st1{fill:#FFFFFF;}
</style>
<g>
	<path class="st0" d="M184.9,465.3L185,453h3.5l-0.1,12.3H184.9z"/>
	<path class="st0" d="M201.4,453.5c0.4-0.2,0.9-0.3,1.3-0.4c0.5-0.1,0.9-0.1,1.4-0.1c0.9,0,1.8,0.2,2.6,0.5c0.9,0.3,1.6,0.7,2.3,1.3
		c0.7,0.6,1.2,1.3,1.6,2.1c0.4,0.8,0.6,1.7,0.6,2.8c0,2-0.7,3.4-2,4.4c-1.3,1-3.3,1.5-5.9,1.5c-0.4,0-0.8,0-1.2,0
		c-0.4,0-0.9-0.1-1.3-0.1L201.4,453.5z M204.3,462.1c0.1,0,0.2,0,0.2,0c0.1,0,0.2,0,0.2,0c0.4,0,0.7-0.1,1.1-0.2
		c0.4-0.1,0.7-0.3,1-0.5c0.3-0.2,0.5-0.5,0.7-0.9c0.2-0.4,0.3-0.8,0.3-1.3c0-0.8-0.3-1.4-0.8-1.8s-1.3-0.6-2.2-0.6h-0.2L204.3,462.1
		z"/>
	<path class="st0" d="M227.5,462.1l5.8-0.3v3.5h-8.9l-0.8-12l8.9-0.4l0.2,3.3l-5.6,0.1l0.1,1.3l4.6-0.3l0.2,3.1l-4.6,0.3
		L227.5,462.1z"/>
	<path class="st0" d="M254.2,462.7h-4.2l-1.4,2.7l-3.2-1.3l5.4-11.1l3.8,0c0.3,1,0.6,2,1,3c0.3,1,0.7,2,1.1,3c0.4,1,0.7,2,1,2.9
		c0.3,1,0.7,2,1,3l-3.5,0.8L254.2,462.7z M253.7,459.6l-1.1-3.2l-1.4,3.2H253.7z"/>
	<path class="st0" d="M278.6,457.3c-0.4-0.3-0.9-0.6-1.3-0.8c-0.5-0.2-1-0.3-1.5-0.3c-0.1,0-0.3,0-0.4,0c-0.2,0-0.3,0-0.5,0.1
		c-0.1,0-0.3,0.1-0.4,0.2c-0.1,0.1-0.1,0.2-0.1,0.4c0,0.1,0,0.2,0.1,0.3c0.1,0.1,0.1,0.1,0.2,0.2c0.1,0.1,0.2,0.1,0.3,0.1
		c0.1,0,0.2,0,0.3,0c0.1,0,0.2,0,0.3,0c0.1,0,0.2,0,0.3,0c0.5,0,1.1,0.1,1.6,0.2c0.5,0.1,1,0.4,1.5,0.7c0.4,0.3,0.8,0.7,1.1,1.2
		c0.3,0.5,0.4,1,0.4,1.7c0,0.6-0.2,1.2-0.5,1.8c-0.3,0.5-0.7,1-1.1,1.3c-0.5,0.4-1,0.6-1.5,0.8c-0.6,0.2-1.1,0.3-1.7,0.3
		c-0.5,0-0.9,0-1.4-0.1c-0.5-0.1-0.9-0.2-1.4-0.4c-0.4-0.2-0.9-0.4-1.3-0.7c-0.4-0.3-0.8-0.6-1.1-0.9l2.2-2.4
		c0.4,0.4,0.8,0.7,1.3,0.9c0.5,0.2,1,0.3,1.5,0.3c0.2,0,0.3,0,0.5,0c0.2,0,0.4-0.1,0.6-0.1c0.2-0.1,0.3-0.2,0.5-0.3
		c0.1-0.1,0.2-0.2,0.2-0.4c0-0.1,0-0.2-0.1-0.3c-0.1-0.1-0.2-0.1-0.3-0.2c-0.1,0-0.2-0.1-0.4-0.1c-0.1,0-0.3,0-0.4,0
		c-0.1,0-0.2,0-0.4,0c-0.1,0-0.2,0-0.3,0c-0.5,0-1.1-0.1-1.6-0.3c-0.5-0.2-1-0.5-1.4-0.8c-0.4-0.3-0.7-0.8-1-1.3s-0.4-1-0.4-1.6
		c0-0.7,0.1-1.2,0.4-1.7c0.3-0.5,0.7-0.9,1.1-1.2c0.5-0.3,1-0.6,1.5-0.7c0.6-0.2,1.1-0.2,1.7-0.2c0.9,0,1.7,0.2,2.5,0.5
		c0.8,0.3,1.5,0.8,2.2,1.4L278.6,457.3z"/>
	<path class="st0" d="M309.3,465.3l0.1-12.3h3.5l-0.1,12.3H309.3z"/>
	<path class="st0" d="M333.8,465.3l-4.4-5.1v5.1h-3.7l-0.1-12.1l3.1,0.2l4.6,5.3l0-5.8l3.6-0.1v12.4H333.8z"/>
	<path class="st0" d="M360.9,461.3c-0.1,0.6-0.3,1.2-0.7,1.7c-0.4,0.5-0.8,0.9-1.3,1.3c-0.5,0.4-1.1,0.6-1.7,0.8
		c-0.6,0.2-1.2,0.3-1.9,0.3c-0.8,0-1.6-0.2-2.3-0.5c-0.7-0.3-1.4-0.8-1.9-1.3c-0.6-0.6-1-1.2-1.3-1.9c-0.3-0.7-0.5-1.5-0.5-2.3
		c0-0.8,0.1-1.6,0.4-2.4c0.3-0.8,0.6-1.5,1.1-2.1c0.5-0.6,1.1-1.1,1.8-1.5c0.7-0.4,1.5-0.5,2.3-0.5c1.6,0,3,0.4,4,1.1
		c1.1,0.8,1.7,1.8,2,3.2l-3.1,0.6c-0.1-0.2-0.2-0.4-0.4-0.5c-0.2-0.2-0.4-0.3-0.6-0.4c-0.2-0.1-0.4-0.2-0.7-0.2
		c-0.2-0.1-0.5-0.1-0.7-0.1c-0.4,0-0.7,0.1-1,0.2c-0.3,0.1-0.6,0.3-0.8,0.6c-0.2,0.2-0.4,0.5-0.5,0.8c-0.1,0.3-0.2,0.6-0.2,0.9
		c0,0.3,0.1,0.6,0.2,0.9c0.1,0.3,0.3,0.5,0.6,0.8c0.2,0.2,0.5,0.4,0.9,0.5c0.3,0.1,0.7,0.2,1,0.2c0.2,0,0.5,0,0.7-0.1
		c0.2,0,0.5-0.1,0.7-0.2c0.2-0.1,0.4-0.2,0.6-0.4c0.2-0.2,0.3-0.3,0.3-0.5L360.9,461.3z"/>
	<path class="st0" d="M381.7,461.6v3.7h-7.8v-12.4h3.7v8.7H381.7z"/>
	<path class="st0" d="M403,452.7c0.3,0.7,0.5,1.6,0.6,2.5c0.2,1,0.2,1.9,0.2,2.9c0,0.9-0.1,1.8-0.2,2.7c-0.2,0.9-0.4,1.6-0.8,2.3
		c-0.4,0.7-0.9,1.2-1.6,1.6c-0.6,0.4-1.5,0.6-2.4,0.6c-1.1,0-2-0.2-2.7-0.6c-0.7-0.4-1.3-1-1.7-1.7c-0.4-0.7-0.7-1.5-0.9-2.4
		s-0.3-1.8-0.3-2.7c0-0.9,0.1-1.7,0.2-2.6c0.1-0.8,0.3-1.6,0.5-2.3l3.8,0.9c-0.2,0.9-0.4,1.7-0.5,2.6c-0.1,0.9-0.2,1.7-0.2,2.6
		c0,0.2,0,0.5,0.1,0.8c0.1,0.3,0.1,0.5,0.3,0.8c0.1,0.2,0.3,0.4,0.5,0.6c0.2,0.2,0.4,0.2,0.7,0.2c0.3,0,0.6-0.1,0.7-0.3
		c0.2-0.2,0.3-0.4,0.4-0.6c0.1-0.2,0.2-0.5,0.2-0.8c0-0.3,0-0.6,0-0.8c0-0.9-0.1-1.8-0.3-2.7c-0.2-0.9-0.3-1.8-0.6-2.6L403,452.7z"
		/>
	<path class="st0" d="M423.4,457.3c-0.4-0.3-0.9-0.6-1.3-0.8c-0.5-0.2-1-0.3-1.5-0.3c-0.1,0-0.3,0-0.4,0c-0.2,0-0.3,0-0.5,0.1
		c-0.2,0-0.3,0.1-0.4,0.2c-0.1,0.1-0.2,0.2-0.2,0.4c0,0.1,0.1,0.2,0.1,0.3c0.1,0.1,0.1,0.1,0.2,0.2c0.1,0.1,0.2,0.1,0.3,0.1
		c0.1,0,0.2,0,0.3,0c0.1,0,0.2,0,0.3,0c0.1,0,0.2,0,0.3,0c0.5,0,1.1,0.1,1.6,0.2c0.5,0.1,1,0.4,1.5,0.7c0.4,0.3,0.8,0.7,1.1,1.2
		c0.3,0.5,0.4,1,0.4,1.7c0,0.6-0.2,1.2-0.5,1.8c-0.3,0.5-0.7,1-1.1,1.3c-0.5,0.4-1,0.6-1.5,0.8c-0.6,0.2-1.1,0.3-1.7,0.3
		c-0.5,0-0.9,0-1.4-0.1s-0.9-0.2-1.4-0.4c-0.4-0.2-0.9-0.4-1.3-0.7c-0.4-0.3-0.8-0.6-1.1-0.9l2.2-2.4c0.4,0.4,0.8,0.7,1.3,0.9
		c0.5,0.2,1,0.3,1.5,0.3c0.2,0,0.3,0,0.5,0c0.2,0,0.4-0.1,0.6-0.1c0.2-0.1,0.3-0.2,0.5-0.3c0.1-0.1,0.2-0.2,0.2-0.4
		c0-0.1,0-0.2-0.1-0.3c-0.1-0.1-0.2-0.1-0.3-0.2c-0.1,0-0.2-0.1-0.4-0.1c-0.2,0-0.3,0-0.4,0c-0.1,0-0.2,0-0.4,0c-0.1,0-0.2,0-0.3,0
		c-0.5,0-1.1-0.1-1.6-0.3c-0.5-0.2-1-0.5-1.4-0.8s-0.7-0.8-1-1.3c-0.3-0.5-0.4-1-0.4-1.6c0-0.7,0.1-1.2,0.4-1.7s0.7-0.9,1.1-1.2
		c0.5-0.3,1-0.6,1.5-0.7c0.6-0.2,1.1-0.2,1.7-0.2c0.9,0,1.7,0.2,2.5,0.5c0.8,0.3,1.5,0.8,2.2,1.4L423.4,457.3z"/>
	<path class="st0" d="M437.7,465.3l0.1-12.3h3.5l-0.1,12.3H437.7z"/>
	<path class="st0" d="M458.9,465.8l-5.2-11.4l3.3-1.5l3.1,6.6l1.9-6.5l3.5,0.9l-3.2,11.3L458.9,465.8z"/>
	<path class="st0" d="M483.5,462.7h-4.2l-1.4,2.7l-3.2-1.3l5.4-11.1l3.8,0c0.3,1,0.6,2,1,3c0.3,1,0.7,2,1.1,3c0.4,1,0.7,2,1,2.9
		c0.3,1,0.7,2,1,3l-3.5,0.8L483.5,462.7z M483,459.6l-1.1-3.2l-1.4,3.2H483z"/>
	<path class="st0" d="M507.9,457.3c-0.4-0.3-0.9-0.6-1.3-0.8c-0.5-0.2-1-0.3-1.5-0.3c-0.1,0-0.3,0-0.4,0c-0.2,0-0.3,0-0.5,0.1
		c-0.2,0-0.3,0.1-0.4,0.2c-0.1,0.1-0.2,0.2-0.2,0.4c0,0.1,0.1,0.2,0.1,0.3c0.1,0.1,0.1,0.1,0.2,0.2c0.1,0.1,0.2,0.1,0.3,0.1
		c0.1,0,0.2,0,0.3,0c0.1,0,0.2,0,0.3,0c0.1,0,0.2,0,0.3,0c0.5,0,1.1,0.1,1.6,0.2c0.5,0.1,1,0.4,1.5,0.7c0.4,0.3,0.8,0.7,1.1,1.2
		c0.3,0.5,0.4,1,0.4,1.7c0,0.6-0.2,1.2-0.5,1.8c-0.3,0.5-0.7,1-1.1,1.3c-0.5,0.4-1,0.6-1.5,0.8c-0.6,0.2-1.1,0.3-1.7,0.3
		c-0.5,0-0.9,0-1.4-0.1s-0.9-0.2-1.4-0.4c-0.4-0.2-0.9-0.4-1.3-0.7c-0.4-0.3-0.8-0.6-1.1-0.9l2.2-2.4c0.4,0.4,0.8,0.7,1.3,0.9
		c0.5,0.2,1,0.3,1.5,0.3c0.2,0,0.3,0,0.5,0c0.2,0,0.4-0.1,0.6-0.1c0.2-0.1,0.3-0.2,0.5-0.3c0.1-0.1,0.2-0.2,0.2-0.4
		c0-0.1,0-0.2-0.1-0.3c-0.1-0.1-0.2-0.1-0.3-0.2c-0.1,0-0.2-0.1-0.4-0.1c-0.2,0-0.3,0-0.4,0c-0.1,0-0.2,0-0.4,0c-0.1,0-0.2,0-0.3,0
		c-0.5,0-1.1-0.1-1.6-0.3c-0.5-0.2-1-0.5-1.4-0.8s-0.7-0.8-1-1.3c-0.3-0.5-0.4-1-0.4-1.6c0-0.7,0.1-1.2,0.4-1.7s0.7-0.9,1.1-1.2
		c0.5-0.3,1-0.6,1.5-0.7c0.6-0.2,1.1-0.2,1.7-0.2c0.9,0,1.7,0.2,2.5,0.5c0.8,0.3,1.5,0.8,2.2,1.4L507.9,457.3z"/>
</g>
<path class="st1" d="M184.8,443.9l0.5-53.9h15.5l-0.5,53.9H184.8z"/>
<path class="st1" d="M207.7,392.2c1.9-0.8,3.8-1.3,5.8-1.7c2-0.4,4-0.5,6.1-0.5c3.9,0,7.8,0.7,11.6,2c3.8,1.3,7.2,3.3,10.1,5.8
	c3,2.5,5.3,5.6,7.1,9.1c1.8,3.6,2.7,7.6,2.7,12.1c0,8.6-2.9,15-8.7,19.3c-5.8,4.3-14.4,6.4-25.8,6.4c-1.7,0-3.5,0-5.3-0.1
	c-1.8-0.1-3.8-0.2-5.8-0.4L207.7,392.2z M220.3,428.8c0,0.6,0.4,1.1,1,1.1c0,0,0,0,0,0c0.3,0,0.7,0,1.1,0c1.7,0,3.3-0.3,4.8-0.8
	c1.6-0.5,3-1.3,4.2-2.4c1.2-1,2.2-2.4,3-3.9c0.8-1.6,1.1-3.4,1.1-5.6c0-3.5-1.2-6.2-3.6-8.1c-2.4-1.9-5.6-2.8-9.5-2.8h0
	c-0.6,0-1,0.4-1.1,1L220.3,428.8z"/>
<path class="st1" d="M271.1,430.1l25.3-1.3v15.2h-39.1l-3.4-52.8l39.1-1.6l1,14.4l-24.7,0.4l0.5,5.9l20.3-1.5l0.8,13.6l-20.3,1.4
	L271.1,430.1z"/>
<path class="st1" d="M403.3,402.6l-13.9,0.7l-0.3,40.3l-16,1.6l0.3-41.4l-14.7,0.7l-1-14.1l44.3-1.9L403.3,402.6z"/>
<path class="st1" d="M457.9,416.8c0,3.8-0.8,7.4-2.4,10.8c-1.6,3.4-3.7,6.3-6.3,8.7c-2.6,2.5-5.7,4.4-9.1,5.9
	c-3.5,1.5-7.1,2.2-10.8,2.2c-3.6,0-7.1-0.7-10.5-2.2c-3.4-1.5-6.4-3.4-9-5.9c-2.6-2.5-4.7-5.4-6.3-8.7c-1.6-3.3-2.4-6.8-2.4-10.6
	c0-3.8,0.8-7.4,2.4-10.7c1.6-3.3,3.7-6.2,6.3-8.7c2.6-2.5,5.6-4.4,9.1-5.9c3.4-1.5,7-2.2,10.7-2.2c3.7,0,7.3,0.7,10.7,2.2
	c3.4,1.4,6.4,3.4,9,5.8c2.6,2.4,4.7,5.3,6.3,8.6C457.1,409.5,457.9,413,457.9,416.8z M429.1,428.3c1.5,0,2.9-0.3,4.3-0.9
	c1.4-0.6,2.6-1.4,3.7-2.4c1.1-1,1.9-2.2,2.6-3.6c0.7-1.4,1-2.8,1-4.3c0-1.5-0.3-3-0.9-4.4c-0.6-1.4-1.5-2.6-2.6-3.7
	c-1.1-1.1-2.3-1.9-3.8-2.6c-1.4-0.6-2.9-0.9-4.4-0.9c-1.6,0-3.1,0.3-4.5,1c-1.4,0.7-2.7,1.5-3.8,2.6c-1.1,1.1-2,2.3-2.6,3.8
	c-0.6,1.4-0.9,2.9-0.9,4.5c0,1.5,0.4,2.9,1.1,4.2c0.7,1.3,1.7,2.5,2.8,3.5c1.1,1,2.4,1.8,3.8,2.4C426.2,428,427.7,428.3,429.1,428.3
	z"/>
<path class="st1" d="M495.8,443.9l-19.2-22.2v22.2h-16.3l-0.5-52.9l13.8,1l20.2,23.3l-0.1-25.2l16-0.5v54.4H495.8z"/>
<g>
	<path class="st1" d="M368.3,412.6l0.4,9.4l-23.3,1l-0.4-9.4L368.3,412.6z"/>
</g>
<path class="st0" d="M438.3,387.7c0.1,0.1,0.2,0.1,0.3,0.1c2-0.5,19.3-4.6,18-12.7c-1.3-8-11.4-5.9-13.8-2.2
	c-0.1,0.2-0.5,0.1-0.5-0.1c-0.5-2.4-2.4-8.9-8.9-7.6C423.5,367.3,437,385.8,438.3,387.7z"/>
<path class="st1" d="M352.5,428.9c-0.4-1.2-0.8-2.4-1.3-3.5l-8.5,0.4l-0.6-14.8l3.9-0.2c-0.9-2.6-1.8-5.1-2.7-7.7
	c-1.5-4.3-3-8.7-4.3-13l-16.8-0.1l0,0l-23.5,48.8l13.9,5.7l6.3-12h18.2l4.2,13.2l15.4-3.7l0,0C355.4,437.6,354,433.3,352.5,428.9z
	 M335,419.1h-11.4l6.3-14L335,419.1z"/>
<path class="st0" d="M145.8,360c-2.5-3.8-6-5.5-10.3-5.8c-7.4-0.5-13.4,5.5-12.7,12.8c0.4,3.8,2.4,6.6,5.2,9
	c2.1,1.8,4.3,3.3,6.5,5.1c2.4,2,4.3,4.3,4.9,7.5c0.1,0.4,0.6,0.8,1,0.9c0.3,0.1,0.9-0.5,0.9-0.8c0.1-1.2,0.3-2.5,0-3.6
	c-0.9-3.6-3.5-6.1-6.3-8.3c-1.7-1.3-3.7-2.5-5.2-4.1c-1.6-1.7-3-3.7-4.1-5.7c-1.2-2.2-0.5-4.3,1.3-6.1c3.9-3.9,11-4.2,14.8-0.3
	c1.8,1.9,3.1,2.3,5.7,1.7c6.8-1.5,12,3.2,10.9,9.6c-0.2,1.2-0.7,2.4-1.2,3.5c-2.1,4.3-5,7.9-8.9,10.9c-2.5,1.9-4.7,4.2-7,6.4
	c-1.1,1.1-1.5,2.5-1,4c0.2,0.5,0.6,0.9,0.9,1.3c0.4-0.3,1-0.6,1.3-1c0.9-1.3,1.6-2.7,2.6-3.8c3-3.2,6.1-6.2,9.2-9.2
	c3.2-3.2,6.2-6.4,8-10.6c2.4-5.6,1.3-11.8-6.4-14C152.5,358.3,149.2,358.8,145.8,360z"/>
<path class="st1" d="M143.8,430c3.5-0.1,7.1,0.4,10.6,0.5c2.2,0.1,2.7-0.6,2.2-2.8c-1.3-6-2.9-12-3.6-18.1
	c-0.8-7.3,1.1-14.2,6.7-19.4c2.6-2.5,5.8-4.4,8.9-6.4c10.3-6.8,19.6-14.5,26.9-24.5c3.7-5.1,6.6-10.6,7.3-17
	c1.7-14.9-6-27.8-20.1-33.4c-8.1-3.2-16.7-4.1-25.3-3.9c-13.8,0.2-27,2.9-39.4,9.1c-13.5,6.8-23.3,17.1-29.3,30.9
	c-2,4.5-2.9,9.2-2,14.2c1.1,6.1,5,10.1,10.1,13.1c3.7,2.2,7.7,3.6,12,4.5c9.7,2,16,8,19.1,17.2c2,5.9,3.2,11.9,3.2,18.2
	c0,1.3-0.1,2.6-0.3,3.8c-0.3,2.3-1.6,3.2-4.1,3.3c-2.1,0.1-3.8-1-3.9-3.2c-0.1-2.9,0.3-5.9,0.8-8.7c0.6-3.4,1-6.7,0-10
	c-1.8-5.8-6-9-11.7-10.3c-7.5-1.7-14.7-4.1-21.1-8.5c-9.3-6.4-13.4-15.4-13.2-26.5c0.2-10,3.7-18.7,9.7-26.6
	c14.1-18.6,33-28.9,55.6-32.8c14.2-2.5,28.5-2.4,42.4,1.8c8.7,2.7,16.2,7.1,21.5,14.7c4.1,5.9,6,12.5,6.5,19.6
	c1.1,16.1-5,29.6-15.7,41.2c-4.8,5.3-10.6,9.4-16.7,13.1c-5.2,3.2-10,7.1-14.4,11.3c-5.1,4.9-7,10.6-5.7,17.7
	c0.9,5.4,1.8,10.8,3.7,16c0.6,1.8,0.8,3.9,0.7,5.9c-0.1,3.5-2.4,5.4-6,5.3c-5-0.2-10-0.6-15-0.7c-4.2-0.1-8.5-0.1-12.6,1.3
	c-3.1,1.1-5.6-0.1-6.3-2.9c-0.6-2.1,0.2-4,2.5-4.9c2-0.8,4.2-1.4,6.3-1.6C137.6,430.1,143.1,430,143.8,430z"/>
<path class="st1" d="M149.3,455.9c3.7,0,7.4-0.1,11.1,0c2.7,0.1,4.7,2.3,4.6,4.9c-0.1,2.2-2.5,4-5,4c-7.8,0-15.6-0.1-23.4,0.1
	c-2.7,0-5.3,0.5-8,0.9c-3.8,0.5-6.4-2.2-5.4-5.7c0.6-1.9,2-2.8,3.8-2.9C134.4,456.6,149.3,455.8,149.3,455.9z"/>
<path class="st1" d="M161.5,445.8c-0.4,0-0.8,0-1.1,0.1c-8.7,0.4-16.6-0.4-25.8-1.6c-2.6-0.2-4.2-0.2-5.5-0.1c0,0,0,0,0,0
	c-2.7,0-4.3,0.5-5.2,1c-0.4,0.2-0.7,0.4-1,0.7c-0.3,0.3-0.4,0.5-0.4,0.5l0,0c-0.6,1-0.7,2.3-0.5,3.5c0.3,1.8,1.7,2.8,3.9,2.9
	c0.8,0,1.6,0,2.4-0.1c6-0.4,15.7-0.9,18-0.9c2.1,0,4.3,0,6.4,0c2.1,0,4.3,0.1,6.4,0.1c2.4,0,4.4-1.6,4.7-3.6
	C164.1,446.4,163.4,445.7,161.5,445.8z"/>
</svg>
