<?xml version="1.0" encoding="utf-8"?>
<!-- Generator: Adobe Illustrator 16.0.0, SVG Export Plug-In . SVG Version: 6.00 Build 0)  -->
<!DOCTYPE svg PUBLIC "-//W3C//DTD SVG 1.1//EN" "http://www.w3.org/Graphics/SVG/1.1/DTD/svg11.dtd">
<svg version="1.1" id="Capa_1" xmlns="http://www.w3.org/2000/svg" xmlns:xlink="http://www.w3.org/1999/xlink" x="0px" y="0px"
	 width="160px" height="68px" viewBox="0 0 160 68" enable-background="new 0 0 160 68" xml:space="preserve">
<g>
	<path fill="#BFD017" d="M39.998,66.096l0.037-4.545h1.287l-0.036,4.545H39.998z"/>
	<path fill="#BFD017" d="M46.068,61.736c0.147-0.074,0.331-0.109,0.478-0.148c0.184-0.037,0.331-0.037,0.514-0.037
		c0.332,0,0.663,0.076,0.958,0.186c0.331,0.111,0.588,0.26,0.845,0.482c0.258,0.221,0.442,0.479,0.589,0.773
		c0.147,0.297,0.222,0.629,0.222,1.035c0,0.738-0.258,1.258-0.736,1.625c-0.479,0.371-1.214,0.557-2.171,0.557
		c-0.146,0-0.293,0-0.44,0c-0.147,0-0.332-0.037-0.479-0.037L46.068,61.736z M47.135,64.914c0.036,0,0.072,0,0.072,0
		c0.038,0,0.075,0,0.075,0c0.147,0,0.257-0.037,0.404-0.074c0.147-0.035,0.257-0.109,0.368-0.184
		c0.111-0.074,0.183-0.184,0.258-0.332c0.073-0.148,0.109-0.297,0.109-0.482c0-0.295-0.109-0.516-0.293-0.664
		c-0.185-0.146-0.479-0.223-0.81-0.223h-0.073L47.135,64.914z"/>
	<path fill="#BFD017" d="M55.668,64.914l2.134-0.109v1.291h-3.274l-0.294-4.434l3.274-0.148l0.072,1.221l-2.06,0.035l0.038,0.482
		l1.691-0.111l0.074,1.146l-1.693,0.109L55.668,64.914z"/>
	<path fill="#BFD017" d="M65.491,65.137h-1.545l-0.515,0.998l-1.178-0.482l1.987-4.102h1.398c0.11,0.371,0.22,0.74,0.367,1.111
		c0.111,0.369,0.258,0.736,0.405,1.107c0.147,0.369,0.257,0.74,0.367,1.07c0.111,0.369,0.258,0.74,0.369,1.109l-1.289,0.295
		L65.491,65.137z M65.306,63.99l-0.404-1.18l-0.515,1.18H65.306z"/>
	<path fill="#BFD017" d="M74.466,63.141c-0.147-0.109-0.332-0.223-0.479-0.295c-0.183-0.076-0.367-0.111-0.551-0.111
		c-0.037,0-0.11,0-0.147,0c-0.074,0-0.11,0-0.184,0.035c-0.038,0-0.11,0.041-0.147,0.076c-0.037,0.037-0.037,0.072-0.037,0.146
		c0,0.039,0,0.074,0.037,0.111c0.038,0.037,0.038,0.037,0.074,0.074c0.036,0.035,0.074,0.035,0.111,0.035c0.037,0,0.073,0,0.109,0
		c0.038,0,0.075,0,0.111,0c0.037,0,0.074,0,0.111,0c0.184,0,0.404,0.039,0.589,0.076c0.184,0.037,0.367,0.148,0.552,0.258
		c0.147,0.111,0.293,0.258,0.404,0.443c0.111,0.186,0.147,0.371,0.147,0.629c0,0.221-0.074,0.441-0.184,0.666
		c-0.111,0.184-0.258,0.367-0.405,0.479c-0.184,0.148-0.367,0.225-0.551,0.297c-0.221,0.074-0.404,0.111-0.626,0.111
		c-0.184,0-0.331,0-0.514-0.037c-0.184-0.039-0.331-0.074-0.515-0.146c-0.147-0.076-0.332-0.148-0.479-0.26
		s-0.294-0.223-0.403-0.332l0.809-0.887c0.147,0.146,0.294,0.256,0.478,0.33c0.184,0.074,0.369,0.113,0.552,0.113
		c0.073,0,0.11,0,0.184,0s0.147-0.039,0.221-0.039c0.074-0.037,0.11-0.074,0.185-0.109c0.036-0.039,0.072-0.074,0.072-0.148
		c0-0.039,0-0.074-0.036-0.111c-0.036-0.035-0.074-0.035-0.111-0.072c-0.036,0-0.073-0.039-0.147-0.039c-0.037,0-0.11,0-0.147,0
		c-0.036,0-0.073,0-0.147,0c-0.037,0-0.073,0-0.11,0c-0.184,0-0.404-0.037-0.588-0.109c-0.185-0.076-0.369-0.186-0.516-0.297
		c-0.147-0.109-0.257-0.295-0.367-0.48c-0.111-0.186-0.147-0.369-0.147-0.59c0-0.26,0.036-0.443,0.147-0.631
		c0.11-0.184,0.257-0.33,0.404-0.443c0.185-0.109,0.368-0.221,0.552-0.256c0.222-0.076,0.405-0.076,0.625-0.076
		c0.332,0,0.626,0.076,0.92,0.186c0.294,0.111,0.551,0.295,0.81,0.518L74.466,63.141z"/>
	<path fill="#BFD017" d="M85.761,66.096l0.035-4.545h1.287l-0.037,4.545H85.761z"/>
	<path fill="#BFD017" d="M94.771,66.096l-1.617-1.883v1.883h-1.361l-0.037-4.469l1.141,0.072l1.691,1.959v-2.145l1.324-0.035v4.582
		h-1.141V66.096z"/>
	<path fill="#BFD017" d="M104.741,64.617c-0.039,0.223-0.111,0.443-0.258,0.631c-0.148,0.184-0.295,0.332-0.479,0.48
		c-0.184,0.146-0.404,0.221-0.625,0.295c-0.223,0.072-0.441,0.111-0.699,0.111c-0.295,0-0.59-0.074-0.848-0.186
		c-0.256-0.109-0.514-0.297-0.697-0.48c-0.223-0.221-0.369-0.443-0.479-0.703c-0.109-0.256-0.186-0.553-0.186-0.848
		c0-0.297,0.039-0.592,0.148-0.887c0.111-0.297,0.221-0.557,0.404-0.777c0.184-0.223,0.406-0.406,0.662-0.555
		c0.258-0.148,0.553-0.186,0.846-0.186c0.59,0,1.104,0.148,1.473,0.408c0.406,0.297,0.625,0.664,0.736,1.182l-1.141,0.223
		c-0.037-0.074-0.074-0.148-0.148-0.186c-0.072-0.074-0.146-0.109-0.219-0.148c-0.076-0.037-0.148-0.074-0.258-0.074
		c-0.074-0.035-0.184-0.035-0.26-0.035c-0.146,0-0.256,0.035-0.365,0.072c-0.111,0.037-0.223,0.111-0.295,0.223
		c-0.074,0.074-0.148,0.184-0.184,0.297c-0.039,0.109-0.074,0.221-0.074,0.33c0,0.113,0.035,0.223,0.074,0.334
		c0.035,0.109,0.109,0.186,0.219,0.295c0.076,0.076,0.184,0.148,0.332,0.184c0.109,0.039,0.258,0.076,0.369,0.076
		c0.072,0,0.184,0,0.256-0.037c0.074,0,0.186-0.039,0.258-0.074c0.074-0.037,0.146-0.072,0.221-0.148
		c0.074-0.072,0.109-0.109,0.109-0.186L104.741,64.617z"/>
	<path fill="#BFD017" d="M112.392,64.73v1.365h-2.867v-4.582h1.359v3.217H112.392L112.392,64.73z"/>
	<path fill="#BFD017" d="M120.228,61.439c0.109,0.26,0.184,0.592,0.221,0.926c0.074,0.369,0.074,0.701,0.074,1.072
		c0,0.332-0.039,0.664-0.074,0.996c-0.074,0.332-0.148,0.592-0.295,0.852c-0.146,0.258-0.33,0.443-0.59,0.59
		c-0.219,0.148-0.549,0.221-0.883,0.221c-0.402,0-0.734-0.072-0.992-0.221c-0.258-0.146-0.477-0.369-0.625-0.627
		c-0.146-0.26-0.258-0.555-0.332-0.887c-0.072-0.334-0.109-0.666-0.109-1c0-0.33,0.037-0.627,0.072-0.959
		c0.037-0.297,0.111-0.592,0.184-0.852l1.4,0.332c-0.074,0.336-0.148,0.631-0.186,0.963s-0.072,0.629-0.072,0.959
		c0,0.076,0,0.186,0.035,0.297c0.037,0.111,0.037,0.186,0.111,0.295c0.037,0.076,0.111,0.148,0.184,0.221
		c0.074,0.076,0.146,0.076,0.258,0.076s0.221-0.037,0.258-0.111c0.072-0.072,0.109-0.148,0.148-0.221
		c0.035-0.074,0.072-0.186,0.072-0.297s0-0.223,0-0.295c0-0.332-0.037-0.666-0.111-1c-0.072-0.33-0.109-0.664-0.219-0.959
		L120.228,61.439z"/>
	<path fill="#BFD017" d="M127.731,63.141c-0.146-0.109-0.332-0.223-0.479-0.295c-0.184-0.076-0.367-0.111-0.551-0.111
		c-0.039,0-0.111,0-0.146,0c-0.076,0-0.111,0-0.186,0.035c-0.074,0-0.109,0.041-0.148,0.076c-0.035,0.037-0.072,0.072-0.072,0.146
		c0,0.039,0.037,0.074,0.037,0.111c0.035,0.037,0.035,0.037,0.074,0.074c0.035,0.035,0.072,0.035,0.109,0.035s0.074,0,0.109,0
		c0.037,0,0.076,0,0.111,0c0.037,0,0.072,0,0.111,0c0.184,0,0.402,0.039,0.588,0.076c0.184,0.037,0.367,0.148,0.551,0.258
		c0.146,0.111,0.295,0.258,0.406,0.443c0.109,0.186,0.146,0.371,0.146,0.629c0,0.221-0.074,0.441-0.184,0.666
		c-0.111,0.184-0.258,0.367-0.404,0.479c-0.184,0.148-0.367,0.225-0.553,0.297c-0.221,0.074-0.404,0.111-0.625,0.111
		c-0.184,0-0.332,0-0.516-0.037c-0.184-0.039-0.33-0.074-0.516-0.146c-0.146-0.076-0.33-0.148-0.477-0.26
		c-0.148-0.111-0.295-0.223-0.406-0.332l0.811-0.887c0.146,0.146,0.295,0.256,0.479,0.33s0.367,0.113,0.553,0.113
		c0.072,0,0.107,0,0.182,0s0.148-0.039,0.221-0.039c0.074-0.037,0.111-0.074,0.186-0.109c0.037-0.039,0.072-0.074,0.072-0.148
		c0-0.039,0-0.074-0.035-0.111c-0.037-0.035-0.076-0.035-0.111-0.072c-0.037,0-0.072-0.039-0.148-0.039c-0.072,0-0.109,0-0.146,0
		s-0.072,0-0.146,0c-0.037,0-0.072,0-0.111,0c-0.184,0-0.404-0.037-0.588-0.109c-0.184-0.076-0.367-0.186-0.516-0.297
		c-0.146-0.109-0.258-0.295-0.367-0.48s-0.146-0.369-0.146-0.59c0-0.26,0.037-0.443,0.146-0.631c0.109-0.184,0.256-0.33,0.404-0.443
		c0.186-0.109,0.369-0.221,0.553-0.256c0.221-0.076,0.404-0.076,0.625-0.076c0.33,0,0.625,0.076,0.918,0.186
		c0.295,0.111,0.553,0.295,0.811,0.518L127.731,63.141z"/>
	<path fill="#BFD017" d="M132.991,66.096l0.037-4.545h1.287l-0.037,4.545H132.991z"/>
	<path fill="#BFD017" d="M140.79,66.281l-1.912-4.211l1.215-0.557l1.139,2.439l0.699-2.402l1.287,0.332l-1.176,4.178L140.79,66.281z
		"/>
	<path fill="#BFD017" d="M149.839,65.137h-1.545l-0.514,0.998l-1.178-0.482l1.986-4.102h1.396c0.111,0.371,0.223,0.74,0.369,1.111
		c0.111,0.369,0.258,0.736,0.406,1.107c0.146,0.369,0.256,0.74,0.365,1.07c0.111,0.369,0.26,0.74,0.367,1.109l-1.285,0.295
		L149.839,65.137z M149.655,63.99l-0.404-1.18l-0.516,1.18H149.655z"/>
	<path fill="#BFD017" d="M158.815,63.141c-0.148-0.109-0.332-0.223-0.479-0.295c-0.184-0.076-0.369-0.111-0.553-0.111
		c-0.035,0-0.109,0-0.146,0c-0.072,0-0.109,0-0.184,0.035c-0.072,0-0.111,0.041-0.148,0.076c-0.035,0.037-0.072,0.072-0.072,0.146
		c0,0.039,0.037,0.074,0.037,0.111c0.035,0.037,0.035,0.037,0.072,0.074c0.039,0.035,0.074,0.035,0.111,0.035
		c0.035,0,0.074,0,0.111,0c0.035,0,0.072,0,0.107,0c0.039,0,0.076,0,0.111,0c0.184,0,0.406,0.039,0.59,0.076
		s0.367,0.148,0.551,0.258c0.148,0.111,0.295,0.258,0.404,0.443c0.111,0.186,0.146,0.371,0.146,0.629
		c0,0.221-0.072,0.441-0.184,0.666c-0.107,0.184-0.256,0.367-0.402,0.479c-0.186,0.148-0.369,0.225-0.553,0.297
		c-0.223,0.074-0.406,0.111-0.625,0.111c-0.184,0-0.33,0-0.516-0.037c-0.184-0.039-0.332-0.074-0.516-0.146
		c-0.146-0.076-0.33-0.148-0.477-0.26c-0.148-0.111-0.295-0.223-0.406-0.332l0.809-0.887c0.148,0.146,0.295,0.256,0.48,0.33
		c0.184,0.074,0.367,0.113,0.551,0.113c0.074,0,0.111,0,0.184,0c0.074,0,0.146-0.039,0.221-0.039
		c0.072-0.037,0.111-0.074,0.184-0.109c0.037-0.039,0.074-0.074,0.074-0.148c0-0.039,0-0.074-0.037-0.111
		c-0.037-0.035-0.072-0.035-0.109-0.072c-0.039,0-0.074-0.039-0.146-0.039c-0.076,0-0.111,0-0.148,0s-0.074,0-0.146,0
		c-0.037,0-0.074,0-0.111,0c-0.184,0-0.404-0.037-0.588-0.109c-0.184-0.076-0.367-0.186-0.514-0.297
		c-0.148-0.109-0.26-0.295-0.369-0.48s-0.148-0.369-0.148-0.59c0-0.26,0.039-0.443,0.148-0.631c0.109-0.184,0.258-0.33,0.404-0.443
		c0.184-0.109,0.367-0.221,0.553-0.256c0.219-0.076,0.402-0.076,0.625-0.076c0.33,0,0.625,0.076,0.92,0.186
		c0.293,0.111,0.553,0.295,0.809,0.518L158.815,63.141z"/>
</g>
<path fill="#FFFFFF" d="M39.961,58.189l0.183-19.92h5.702l-0.184,19.92H39.961z"/>
<path fill="#FFFFFF" d="M48.385,39.082c0.7-0.295,1.398-0.48,2.133-0.629c0.736-0.146,1.472-0.184,2.244-0.184
	c1.436,0,2.869,0.26,4.268,0.74c1.398,0.479,2.648,1.219,3.715,2.143c1.104,0.924,1.95,2.07,2.612,3.363
	c0.662,1.33,0.993,2.809,0.993,4.471c0,3.18-1.066,5.545-3.2,7.133c-2.133,1.59-5.296,2.365-9.49,2.365c-0.625,0-1.289,0-1.95-0.037
	c-0.663-0.037-1.397-0.074-2.133-0.146L48.385,39.082z M53.02,52.609c0,0.223,0.147,0.406,0.367,0.406l0,0c0.111,0,0.258,0,0.405,0
	c0.625,0,1.213-0.111,1.766-0.295c0.589-0.186,1.103-0.48,1.544-0.889c0.441-0.371,0.81-0.887,1.104-1.441
	c0.293-0.592,0.404-1.256,0.404-2.07c0-1.293-0.442-2.291-1.325-2.992c-0.882-0.703-2.06-1.033-3.494-1.033l0,0
	c-0.221,0-0.368,0.146-0.405,0.367L53.02,52.609z"/>
<path fill="#FFFFFF" d="M71.707,53.088l9.306-0.479v5.615H66.63l-1.25-19.512l14.384-0.59l0.367,5.32l-9.085,0.146l0.184,2.184
	l7.466-0.557l0.294,5.025l-7.466,0.52L71.707,53.088z"/>
<path fill="#FFFFFF" d="M120.337,42.926l-5.113,0.258l-0.109,14.895l-5.885,0.59l0.109-15.299l-5.408,0.258l-0.367-5.209
	l16.295-0.703L120.337,42.926z"/>
<path fill="#FFFFFF" d="M140.423,48.172c0,1.406-0.295,2.738-0.883,3.994c-0.59,1.254-1.361,2.328-2.316,3.213
	c-0.959,0.924-2.098,1.627-3.35,2.182c-1.287,0.555-2.611,0.812-3.973,0.812c-1.324,0-2.611-0.258-3.863-0.812
	c-1.25-0.555-2.352-1.258-3.311-2.182c-0.955-0.924-1.729-1.994-2.316-3.213c-0.588-1.221-0.883-2.514-0.883-3.918
	s0.295-2.734,0.883-3.953c0.588-1.221,1.361-2.291,2.316-3.217c0.959-0.924,2.061-1.625,3.35-2.182
	c1.25-0.553,2.574-0.811,3.936-0.811s2.686,0.258,3.936,0.811c1.25,0.52,2.354,1.258,3.311,2.145
	c0.955,0.887,1.729,1.957,2.316,3.178C140.128,45.477,140.423,46.77,140.423,48.172z M129.827,52.424
	c0.553,0,1.068-0.111,1.582-0.332c0.516-0.223,0.957-0.518,1.361-0.887c0.406-0.371,0.699-0.814,0.955-1.33
	c0.26-0.52,0.369-1.035,0.369-1.592c0-0.553-0.109-1.107-0.33-1.625s-0.553-0.961-0.957-1.369c-0.404-0.404-0.846-0.699-1.398-0.959
	c-0.514-0.221-1.066-0.332-1.619-0.332c-0.588,0-1.139,0.111-1.654,0.369c-0.514,0.258-0.992,0.555-1.398,0.961
	c-0.404,0.406-0.734,0.85-0.955,1.404c-0.221,0.516-0.332,1.072-0.332,1.664c0,0.553,0.146,1.07,0.404,1.551
	s0.625,0.926,1.031,1.293c0.404,0.369,0.883,0.666,1.396,0.889C128.761,52.312,129.313,52.424,129.827,52.424z"/>
<path fill="#FFFFFF" d="M154.362,58.189l-7.061-8.207v8.207h-5.996l-0.186-19.551l5.076,0.371l7.434,8.609l-0.039-9.312l5.885-0.184
	v20.102h-5.113V58.189z"/>
<g>
	<path fill="#FFFFFF" d="M107.462,46.621l0.148,3.475l-8.572,0.371l-0.146-3.475L107.462,46.621z"/>
</g>
<path fill="#BFD017" d="M133.212,37.418c0.037,0.039,0.072,0.039,0.111,0.039c0.736-0.186,7.1-1.701,6.621-4.693
	c-0.48-2.958-4.193-2.182-5.076-0.814c-0.037,0.075-0.184,0.036-0.184-0.036c-0.186-0.888-0.883-3.29-3.275-2.81
	C127.769,29.88,132.735,36.719,133.212,37.418z"/>
<path fill="#FFFFFF" d="M101.649,52.645c-0.146-0.443-0.293-0.887-0.477-1.291L98.046,51.5l-0.221-5.471l1.434-0.072
	c-0.33-0.963-0.662-1.885-0.992-2.846c-0.553-1.59-1.105-3.215-1.582-4.805l-6.18-0.037l0,0L81.86,56.303l5.113,2.107l2.316-4.434
	h6.697l1.543,4.877l5.664-1.367l0,0C102.716,55.861,102.202,54.271,101.649,52.645z M95.212,49.023h-4.191l2.316-5.174
	L95.212,49.023z"/>
<path fill="#BFD017" d="M25.615,27.182c-0.919-1.404-2.207-2.033-3.789-2.144c-2.723-0.185-4.929,2.033-4.672,4.73
	c0.147,1.406,0.883,2.441,1.913,3.328c0.772,0.664,1.582,1.22,2.391,1.884c0.883,0.739,1.582,1.59,1.803,2.774
	c0.037,0.148,0.221,0.295,0.367,0.332c0.11,0.037,0.332-0.184,0.332-0.297c0.037-0.443,0.11-0.922,0-1.33
	c-0.332-1.332-1.288-2.254-2.317-3.067c-0.625-0.48-1.361-0.924-1.913-1.516c-0.588-0.627-1.104-1.366-1.508-2.108
	c-0.442-0.812-0.184-1.588,0.478-2.253c1.435-1.442,4.047-1.553,5.444-0.111c0.663,0.701,1.141,0.849,2.097,0.628
	c2.501-0.555,4.414,1.182,4.009,3.549c-0.074,0.443-0.257,0.887-0.441,1.292c-0.773,1.59-1.839,2.921-3.274,4.029
	c-0.92,0.703-1.729,1.551-2.575,2.365c-0.405,0.406-0.552,0.924-0.368,1.477c0.074,0.188,0.221,0.334,0.331,0.482
	c0.147-0.111,0.368-0.223,0.479-0.371c0.331-0.479,0.589-0.998,0.956-1.402c1.104-1.184,2.244-2.291,3.384-3.4
	c1.178-1.184,2.281-2.365,2.943-3.918c0.883-2.068,0.478-4.362-2.354-5.174C28.08,26.554,26.865,26.738,25.615,27.182z"/>
<path fill="#FFFFFF" d="M24.879,53.053c1.287-0.037,2.611,0.146,3.899,0.184c0.81,0.037,0.993-0.221,0.81-1.035
	c-0.479-2.219-1.067-4.434-1.324-6.688c-0.294-2.699,0.404-5.248,2.464-7.17c0.957-0.926,2.133-1.625,3.274-2.365
	c3.789-2.513,7.21-5.359,9.895-9.055c1.361-1.885,2.429-3.917,2.686-6.282c0.625-5.507-2.207-10.274-7.394-12.343
	c-2.979-1.183-6.143-1.515-9.307-1.441c-5.076,0.074-9.932,1.072-14.494,3.363c-4.966,2.514-8.57,6.319-10.778,11.419
	c-0.736,1.663-1.066,3.4-0.736,5.248c0.405,2.254,1.839,3.733,3.715,4.843c1.361,0.812,2.833,1.331,4.414,1.663
	c3.568,0.739,5.886,2.956,7.026,6.356c0.736,2.18,1.177,4.398,1.177,6.725c0,0.48-0.037,0.963-0.11,1.406
	c-0.11,0.848-0.589,1.182-1.509,1.219c-0.772,0.037-1.397-0.371-1.435-1.182c-0.037-1.072,0.11-2.182,0.294-3.215
	c0.221-1.258,0.368-2.477,0-3.697c-0.662-2.143-2.207-3.326-4.304-3.807c-2.759-0.627-5.408-1.514-7.762-3.141
	c-3.421-2.366-4.929-5.692-4.855-9.793c0.074-3.696,1.361-6.911,3.568-9.83C9.282,7.56,16.234,3.753,24.548,2.312
	c5.224-0.924,10.484-0.887,15.597,0.665c3.202,0.998,5.96,2.624,7.91,5.432c1.508,2.18,2.207,4.62,2.391,7.243
	c0.404,5.95-1.84,10.938-5.775,15.227c-1.766,1.958-3.899,3.473-6.144,4.84c-1.913,1.184-3.678,2.625-5.297,4.178
	c-1.876,1.811-2.575,3.916-2.097,6.541c0.331,1.994,0.662,3.99,1.361,5.912c0.221,0.666,0.294,1.441,0.257,2.182
	c-0.037,1.293-0.883,1.994-2.207,1.959c-1.839-0.076-3.679-0.223-5.518-0.26c-1.545-0.037-3.127-0.037-4.635,0.48
	c-1.14,0.406-2.06-0.037-2.317-1.072c-0.221-0.775,0.074-1.479,0.919-1.811c0.736-0.297,1.545-0.518,2.318-0.592
	C22.598,53.088,24.622,53.053,24.879,53.053z"/>
<path fill="#FFFFFF" d="M26.902,62.623c1.362,0,2.723-0.037,4.083,0c0.993,0.039,1.729,0.852,1.692,1.811
	c-0.037,0.814-0.919,1.479-1.839,1.479c-2.869,0-5.738-0.037-8.608,0.037c-0.993,0-1.95,0.186-2.943,0.332
	c-1.398,0.186-2.354-0.812-1.986-2.105c0.221-0.701,0.736-1.035,1.397-1.072C21.421,62.883,26.902,62.586,26.902,62.623z"/>
<path fill="#FFFFFF" d="M31.39,58.891c-0.147,0-0.294,0-0.405,0.037c-3.2,0.148-6.106-0.146-9.49-0.59
	c-0.957-0.076-1.545-0.076-2.023-0.037l0,0c-0.993,0-1.582,0.184-1.913,0.367c-0.147,0.076-0.257,0.148-0.368,0.26
	s-0.147,0.186-0.147,0.186l0,0c-0.22,0.369-0.257,0.85-0.184,1.293c0.11,0.664,0.625,1.033,1.435,1.072c0.294,0,0.588,0,0.883-0.039
	c2.208-0.148,5.775-0.332,6.622-0.332c0.772,0,1.582,0,2.354,0c0.772,0,1.582,0.039,2.354,0.039c0.883,0,1.619-0.592,1.729-1.33
	C32.346,59.113,32.089,58.854,31.39,58.891z"/>
</svg>
