<?xml version="1.0" encoding="utf-8"?>
<!-- Generator: Adobe Illustrator 16.0.0, SVG Export Plug-In . SVG Version: 6.00 Build 0)  -->
<!DOCTYPE svg PUBLIC "-//W3C//DTD SVG 1.1//EN" "http://www.w3.org/Graphics/SVG/1.1/DTD/svg11.dtd">
<svg version="1.1" id="Capa_1" xmlns="http://www.w3.org/2000/svg" xmlns:xlink="http://www.w3.org/1999/xlink" x="0px" y="0px"
	 width="300px" height="300px" viewBox="0 0 300 300" enable-background="new 0 0 300 300" xml:space="preserve">
<rect x="0.5" y="-0.5" display="none" fill="#5A910D" stroke="#000000" stroke-miterlimit="10" width="300" height="300"/>
<g display="none">
	<path display="inline" fill="#BFD017" d="M108.823,205.804l0.036-4.384h1.247l-0.036,4.384H108.823z"/>
	<path display="inline" fill="#BFD017" d="M114.703,201.599c0.143-0.071,0.321-0.106,0.463-0.143
		c0.178-0.036,0.32-0.036,0.499-0.036c0.321,0,0.642,0.072,0.927,0.179c0.321,0.106,0.57,0.249,0.819,0.464
		c0.25,0.213,0.428,0.463,0.57,0.748s0.214,0.605,0.214,0.998c0,0.712-0.25,1.211-0.713,1.567s-1.176,0.534-2.103,0.534
		c-0.142,0-0.285,0-0.427,0s-0.321-0.035-0.463-0.035L114.703,201.599z M115.736,204.663c0.036,0,0.071,0,0.071,0
		c0.036,0,0.071,0,0.071,0c0.143,0,0.25-0.036,0.392-0.071s0.25-0.107,0.356-0.178c0.107-0.071,0.178-0.178,0.25-0.32
		c0.071-0.143,0.106-0.285,0.106-0.464c0-0.285-0.106-0.499-0.285-0.642s-0.463-0.214-0.784-0.214h-0.071L115.736,204.663z"/>
	<path display="inline" fill="#BFD017" d="M124.003,204.663l2.067-0.106v1.247h-3.171l-0.285-4.276l3.171-0.143l0.071,1.176
		l-1.996,0.036l0.036,0.463l1.639-0.106l0.071,1.104l-1.639,0.106L124.003,204.663z"/>
	<path display="inline" fill="#BFD017" d="M133.517,204.877h-1.497l-0.499,0.963l-1.14-0.464l1.924-3.956h1.354
		c0.107,0.357,0.214,0.713,0.356,1.07c0.107,0.355,0.25,0.712,0.392,1.068s0.249,0.713,0.356,1.033
		c0.107,0.356,0.25,0.713,0.356,1.069l-1.247,0.285L133.517,204.877z M133.339,203.772l-0.392-1.14l-0.499,1.14H133.339z"/>
	<path display="inline" fill="#BFD017" d="M142.212,202.953c-0.143-0.107-0.321-0.214-0.463-0.285
		c-0.178-0.071-0.356-0.107-0.535-0.107c-0.036,0-0.107,0-0.143,0c-0.071,0-0.106,0-0.178,0.036c-0.036,0-0.107,0.036-0.143,0.071
		s-0.036,0.071-0.036,0.143c0,0.035,0,0.071,0.036,0.106c0.036,0.036,0.036,0.036,0.071,0.071s0.071,0.035,0.107,0.035
		s0.071,0,0.106,0c0.036,0,0.071,0,0.107,0s0.071,0,0.107,0c0.178,0,0.392,0.036,0.57,0.072c0.178,0.035,0.356,0.143,0.535,0.249
		c0.143,0.106,0.285,0.249,0.392,0.428s0.143,0.356,0.143,0.606c0,0.213-0.071,0.427-0.178,0.641
		c-0.107,0.178-0.249,0.356-0.392,0.463c-0.178,0.143-0.356,0.215-0.535,0.285c-0.214,0.072-0.392,0.107-0.606,0.107
		c-0.178,0-0.32,0-0.499-0.035c-0.178-0.036-0.321-0.072-0.499-0.143c-0.143-0.072-0.321-0.143-0.463-0.25s-0.285-0.214-0.392-0.32
		l0.784-0.855c0.143,0.143,0.285,0.249,0.463,0.32s0.356,0.107,0.534,0.107c0.071,0,0.107,0,0.178,0s0.143-0.036,0.214-0.036
		c0.071-0.036,0.107-0.071,0.178-0.106c0.036-0.036,0.071-0.072,0.071-0.143c0-0.036,0-0.071-0.036-0.107
		c-0.036-0.035-0.071-0.035-0.107-0.07c-0.036,0-0.071-0.036-0.143-0.036c-0.036,0-0.107,0-0.143,0s-0.071,0-0.143,0
		c-0.036,0-0.071,0-0.107,0c-0.178,0-0.392-0.036-0.57-0.106c-0.178-0.072-0.356-0.179-0.499-0.285
		c-0.143-0.107-0.25-0.285-0.356-0.464s-0.143-0.356-0.143-0.569c0-0.25,0.036-0.428,0.143-0.606s0.25-0.321,0.392-0.428
		c0.178-0.106,0.356-0.214,0.535-0.249c0.214-0.072,0.392-0.072,0.605-0.072c0.321,0,0.606,0.072,0.891,0.179
		s0.535,0.285,0.784,0.499L142.212,202.953z"/>
	<path display="inline" fill="#BFD017" d="M153.151,205.804l0.036-4.384h1.246l-0.035,4.384H153.151z"/>
	<path display="inline" fill="#BFD017" d="M161.881,205.804l-1.567-1.817v1.817h-1.318l-0.036-4.312l1.105,0.07l1.639,1.889v-2.066
		l1.283-0.035v4.418h-1.105V205.804z"/>
	<path display="inline" fill="#BFD017" d="M171.538,204.378c-0.036,0.214-0.106,0.428-0.249,0.606
		c-0.143,0.178-0.285,0.32-0.463,0.463c-0.179,0.143-0.393,0.214-0.606,0.285s-0.427,0.107-0.677,0.107
		c-0.285,0-0.57-0.072-0.82-0.179c-0.249-0.106-0.498-0.285-0.676-0.464c-0.215-0.213-0.357-0.428-0.464-0.677
		s-0.179-0.534-0.179-0.819s0.036-0.57,0.143-0.855c0.107-0.285,0.215-0.534,0.393-0.748s0.392-0.393,0.641-0.535
		c0.25-0.143,0.535-0.178,0.82-0.178c0.57,0,1.068,0.143,1.426,0.393c0.392,0.285,0.605,0.641,0.712,1.14l-1.104,0.214
		c-0.035-0.071-0.071-0.143-0.143-0.178c-0.071-0.072-0.143-0.107-0.214-0.143c-0.071-0.036-0.143-0.071-0.249-0.071
		c-0.071-0.036-0.178-0.036-0.25-0.036c-0.143,0-0.249,0.036-0.355,0.071c-0.107,0.036-0.215,0.106-0.285,0.214
		c-0.072,0.071-0.143,0.178-0.179,0.285s-0.071,0.214-0.071,0.32c0,0.107,0.035,0.215,0.071,0.321s0.106,0.179,0.214,0.285
		c0.071,0.071,0.178,0.143,0.32,0.178c0.107,0.036,0.25,0.071,0.357,0.071c0.07,0,0.178,0,0.248-0.035
		c0.072,0,0.179-0.036,0.25-0.071c0.071-0.036,0.143-0.071,0.214-0.143s0.106-0.106,0.106-0.179L171.538,204.378z"/>
	<path display="inline" fill="#BFD017" d="M178.95,204.484v1.319h-2.779v-4.419h1.318v3.101L178.95,204.484L178.95,204.484z"/>
	<path display="inline" fill="#BFD017" d="M186.54,201.313c0.106,0.249,0.179,0.57,0.214,0.892c0.071,0.355,0.071,0.676,0.071,1.033
		c0,0.32-0.036,0.641-0.071,0.962c-0.071,0.32-0.143,0.569-0.285,0.819s-0.32,0.428-0.57,0.57c-0.213,0.143-0.534,0.214-0.855,0.214
		c-0.392,0-0.713-0.071-0.961-0.214c-0.25-0.143-0.464-0.356-0.606-0.605c-0.143-0.25-0.249-0.535-0.321-0.855
		c-0.07-0.32-0.106-0.642-0.106-0.963c0-0.32,0.036-0.605,0.071-0.926c0.035-0.285,0.107-0.57,0.178-0.82l1.354,0.321
		c-0.071,0.321-0.143,0.606-0.179,0.927c-0.035,0.32-0.07,0.605-0.07,0.926c0,0.072,0,0.179,0.035,0.285
		c0.035,0.107,0.035,0.179,0.107,0.285c0.035,0.072,0.106,0.143,0.178,0.214s0.143,0.071,0.25,0.071
		c0.106,0,0.213-0.035,0.249-0.106c0.071-0.071,0.106-0.143,0.143-0.214s0.071-0.178,0.071-0.285s0-0.214,0-0.285
		c0-0.32-0.035-0.642-0.107-0.962c-0.07-0.321-0.106-0.642-0.213-0.927L186.54,201.313z"/>
	<path display="inline" fill="#BFD017" d="M193.81,202.953c-0.143-0.107-0.321-0.214-0.464-0.285
		c-0.178-0.071-0.355-0.107-0.534-0.107c-0.036,0-0.106,0-0.143,0c-0.071,0-0.106,0-0.179,0.036c-0.07,0-0.106,0.036-0.143,0.071
		c-0.035,0.035-0.07,0.071-0.07,0.143c0,0.035,0.035,0.071,0.035,0.106c0.035,0.036,0.035,0.036,0.071,0.071
		s0.071,0.035,0.106,0.035c0.036,0,0.072,0,0.107,0s0.071,0,0.107,0c0.035,0,0.07,0,0.106,0c0.179,0,0.392,0.036,0.57,0.072
		c0.179,0.035,0.356,0.143,0.534,0.249c0.143,0.106,0.285,0.249,0.393,0.428c0.106,0.179,0.143,0.356,0.143,0.606
		c0,0.213-0.072,0.427-0.179,0.641c-0.106,0.178-0.249,0.356-0.392,0.463c-0.178,0.143-0.356,0.215-0.535,0.285
		c-0.213,0.072-0.392,0.107-0.605,0.107c-0.178,0-0.32,0-0.499-0.035c-0.178-0.036-0.32-0.072-0.499-0.143
		c-0.143-0.072-0.32-0.143-0.463-0.25s-0.285-0.214-0.393-0.32l0.785-0.855c0.143,0.143,0.285,0.249,0.463,0.32
		s0.355,0.107,0.534,0.107c0.071,0,0.106,0,0.179,0c0.07,0,0.143-0.036,0.213-0.036c0.072-0.036,0.107-0.071,0.179-0.106
		c0.036-0.036,0.071-0.072,0.071-0.143c0-0.036,0-0.071-0.035-0.107c-0.036-0.035-0.072-0.035-0.107-0.07
		c-0.035,0-0.071-0.036-0.143-0.036s-0.107,0-0.143,0s-0.071,0-0.143,0c-0.035,0-0.071,0-0.107,0c-0.178,0-0.391-0.036-0.569-0.106
		c-0.179-0.072-0.356-0.179-0.499-0.285c-0.143-0.107-0.25-0.285-0.356-0.464s-0.143-0.356-0.143-0.569
		c0-0.25,0.036-0.428,0.143-0.606s0.249-0.321,0.392-0.428c0.179-0.106,0.357-0.214,0.535-0.249
		c0.214-0.072,0.392-0.072,0.605-0.072c0.32,0,0.605,0.072,0.891,0.179s0.535,0.285,0.784,0.499L193.81,202.953z"/>
	<path display="inline" fill="#BFD017" d="M198.904,205.804l0.036-4.384h1.247l-0.035,4.384H198.904z"/>
	<path display="inline" fill="#BFD017" d="M206.459,205.981l-1.853-4.062l1.176-0.535l1.104,2.352l0.678-2.316l1.246,0.321
		l-1.14,4.026L206.459,205.981z"/>
	<path display="inline" fill="#BFD017" d="M215.225,204.877h-1.496l-0.499,0.963l-1.14-0.464l1.924-3.956h1.354
		c0.107,0.357,0.215,0.713,0.357,1.07c0.106,0.355,0.249,0.712,0.392,1.068s0.249,0.713,0.356,1.033
		c0.106,0.356,0.249,0.713,0.355,1.069l-1.246,0.285L215.225,204.877z M215.047,203.772l-0.392-1.14l-0.499,1.14H215.047z"/>
	<path display="inline" fill="#BFD017" d="M223.92,202.953c-0.143-0.107-0.32-0.214-0.463-0.285
		c-0.179-0.071-0.357-0.107-0.535-0.107c-0.035,0-0.106,0-0.143,0c-0.07,0-0.106,0-0.178,0.036c-0.071,0-0.107,0.036-0.143,0.071
		s-0.071,0.071-0.071,0.143c0,0.035,0.036,0.071,0.036,0.106c0.035,0.036,0.035,0.036,0.07,0.071
		c0.036,0.035,0.072,0.035,0.107,0.035s0.071,0,0.107,0c0.035,0,0.07,0,0.105,0c0.036,0,0.072,0,0.107,0
		c0.178,0,0.393,0.036,0.57,0.072c0.178,0.035,0.356,0.143,0.535,0.249c0.143,0.106,0.285,0.249,0.391,0.428
		c0.107,0.179,0.143,0.356,0.143,0.606c0,0.213-0.07,0.427-0.178,0.641c-0.106,0.178-0.249,0.356-0.392,0.463
		c-0.179,0.143-0.356,0.215-0.534,0.285c-0.215,0.072-0.393,0.107-0.606,0.107c-0.178,0-0.32,0-0.499-0.035
		c-0.178-0.036-0.32-0.072-0.498-0.143c-0.143-0.072-0.321-0.143-0.464-0.25s-0.284-0.214-0.392-0.32l0.783-0.855
		c0.143,0.143,0.285,0.249,0.464,0.32s0.356,0.107,0.534,0.107c0.071,0,0.107,0,0.178,0c0.072,0,0.143-0.036,0.215-0.036
		c0.07-0.036,0.106-0.071,0.178-0.106c0.035-0.036,0.071-0.072,0.071-0.143c0-0.036,0-0.071-0.036-0.107
		c-0.035-0.035-0.07-0.035-0.106-0.07c-0.036,0-0.071-0.036-0.143-0.036s-0.106,0-0.143,0s-0.071,0-0.143,0
		c-0.035,0-0.071,0-0.106,0c-0.178,0-0.393-0.036-0.57-0.106c-0.178-0.072-0.356-0.179-0.499-0.285
		c-0.143-0.107-0.249-0.285-0.356-0.464c-0.106-0.179-0.143-0.356-0.143-0.569c0-0.25,0.036-0.428,0.143-0.606
		c0.107-0.179,0.25-0.321,0.393-0.428c0.178-0.106,0.355-0.214,0.534-0.249c0.214-0.072,0.392-0.072,0.605-0.072
		c0.321,0,0.606,0.072,0.892,0.179s0.534,0.285,0.783,0.499L223.92,202.953z"/>
</g>
<path display="none" fill="#FFFFFF" d="M108.788,198.178l0.178-19.207h5.523l-0.178,19.207H108.788z"/>
<path display="none" fill="#FFFFFF" d="M116.947,179.756c0.677-0.285,1.354-0.464,2.067-0.606c0.713-0.143,1.425-0.179,2.174-0.179
	c1.39,0,2.779,0.25,4.133,0.713c1.354,0.464,2.566,1.176,3.599,2.067c1.069,0.891,1.889,1.995,2.53,3.243
	c0.642,1.282,0.962,2.707,0.962,4.311c0,3.064-1.034,5.346-3.1,6.878c-2.067,1.532-5.131,2.28-9.193,2.28
	c-0.606,0-1.248,0-1.889-0.035c-0.642-0.036-1.354-0.072-2.067-0.143L116.947,179.756z M121.438,192.797
	c0,0.215,0.143,0.393,0.356,0.393l0,0c0.107,0,0.25,0,0.392,0c0.606,0,1.176-0.107,1.71-0.285c0.57-0.178,1.069-0.463,1.497-0.855
	c0.428-0.356,0.784-0.855,1.069-1.39c0.285-0.57,0.392-1.212,0.392-1.995c0-1.248-0.427-2.209-1.283-2.887
	c-0.855-0.677-1.996-0.998-3.385-0.998l0,0c-0.214,0-0.356,0.143-0.392,0.356L121.438,192.797z"/>
<path display="none" fill="#FFFFFF" d="M139.539,193.26l9.016-0.463v5.416h-13.933l-1.211-18.814l13.933-0.569l0.356,5.131
	l-8.801,0.143l0.178,2.103l7.233-0.535l0.285,4.847l-7.234,0.499L139.539,193.26z"/>
<path display="none" fill="#FFFFFF" d="M186.646,183.461l-4.953,0.25l-0.106,14.359l-5.701,0.57l0.106-14.752l-5.238,0.25
	l-0.355-5.025l15.785-0.676L186.646,183.461z"/>
<path display="none" fill="#FFFFFF" d="M206.104,188.521c0,1.354-0.285,2.637-0.855,3.848c-0.57,1.212-1.318,2.246-2.245,3.101
	c-0.927,0.891-2.031,1.567-3.243,2.103c-1.246,0.534-2.529,0.783-3.848,0.783c-1.283,0-2.53-0.249-3.742-0.783
	c-1.211-0.535-2.28-1.212-3.207-2.103c-0.926-0.891-1.674-1.925-2.244-3.101s-0.855-2.423-0.855-3.777
	c0-1.354,0.285-2.637,0.855-3.812s1.318-2.209,2.244-3.1c0.927-0.891,1.996-1.568,3.243-2.103c1.212-0.534,2.494-0.784,3.812-0.784
	s2.602,0.25,3.813,0.784c1.211,0.499,2.279,1.212,3.207,2.067c0.926,0.854,1.674,1.888,2.244,3.064
	C205.818,185.92,206.104,187.167,206.104,188.521z M195.84,192.619c0.535,0,1.034-0.107,1.533-0.32
	c0.498-0.215,0.926-0.5,1.318-0.855c0.392-0.356,0.677-0.784,0.926-1.283c0.25-0.498,0.357-0.998,0.357-1.532
	s-0.107-1.069-0.321-1.567c-0.214-0.499-0.534-0.927-0.927-1.318c-0.392-0.393-0.819-0.678-1.354-0.927
	c-0.499-0.214-1.033-0.321-1.568-0.321c-0.57,0-1.104,0.107-1.604,0.357c-0.498,0.249-0.962,0.533-1.354,0.926
	c-0.393,0.393-0.713,0.82-0.927,1.354c-0.214,0.5-0.321,1.034-0.321,1.604c0,0.535,0.143,1.034,0.393,1.497
	c0.25,0.464,0.605,0.892,0.998,1.247c0.392,0.356,0.855,0.642,1.354,0.855C194.807,192.512,195.342,192.619,195.84,192.619z"/>
<path display="none" fill="#FFFFFF" d="M219.607,198.178l-6.841-7.91v7.91h-5.809l-0.179-18.85l4.918,0.355l7.198,8.303
	l-0.036-8.979l5.701-0.179v19.385h-4.953V198.178z"/>
<g display="none">
	<path display="inline" fill="#FFFFFF" d="M174.176,187.024l0.143,3.35l-8.303,0.356l-0.143-3.35L174.176,187.024z"/>
</g>
<path display="none" fill="#BFD017" d="M199.119,178.152c0.035,0.035,0.07,0.035,0.106,0.035c0.713-0.178,6.878-1.639,6.414-4.525
	c-0.464-2.852-4.062-2.103-4.917-0.784c-0.036,0.071-0.179,0.036-0.179-0.036c-0.179-0.854-0.854-3.171-3.171-2.707
	C193.846,170.883,198.656,177.475,199.119,178.152z"/>
<path display="none" fill="#FFFFFF" d="M168.545,192.833c-0.143-0.428-0.285-0.855-0.463-1.247l-3.029,0.143l-0.213-5.273
	l1.389-0.072c-0.32-0.926-0.641-1.816-0.962-2.744c-0.534-1.531-1.069-3.1-1.532-4.632l-5.986-0.036l0,0l-8.374,17.39l4.953,2.031
	l2.245-4.276h6.485l1.497,4.704l5.486-1.318l0,0C169.578,195.934,169.08,194.4,168.545,192.833z M162.309,189.341h-4.062
	l2.245-4.989L162.309,189.341z"/>
<g opacity="0.3">
	<path fill="#BFD017" d="M154.77,226.158c-0.217-2.316-1.428-4.006-3.367-5.312c-3.339-2.241-7.655-1.305-9.161,2.022
		c-0.768,1.744-0.534,3.494,0.174,5.292c0.531,1.349,1.185,2.595,1.763,3.972c0.621,1.517,0.934,3.024,0.41,4.564
		c-0.053,0.2,0.08,0.509,0.242,0.66c0.116,0.124,0.547,0.032,0.623-0.098c0.349-0.489,0.769-0.992,0.905-1.548
		c0.482-1.793-0.107-3.578-0.865-5.291c-0.47-1.023-1.106-2.087-1.406-3.186c-0.323-1.168-0.476-2.411-0.488-3.571
		c-0.01-1.273,0.845-1.984,2.14-2.266c2.805-0.606,6.206,1.207,7.005,3.923c0.366,1.31,0.874,1.837,2.243,2.291
		c3.561,1.216,4.815,4.658,2.692,7.107c-0.395,0.461-0.93,0.841-1.44,1.178c-2.064,1.271-4.326,2.025-6.905,2.246
		c-1.649,0.134-3.256,0.52-4.887,0.836c-0.792,0.171-1.33,0.664-1.473,1.444c-0.032,0.27,0.055,0.551,0.095,0.805
		c0.263-0.019,0.619,0.016,0.86-0.074c0.748-0.312,1.428-0.722,2.171-0.921c2.209-0.554,4.414-0.994,6.618-1.435
		c2.304-0.499,4.512-1.055,6.41-2.366c2.53-1.751,3.572-4.714,0.519-7.768C158.333,227.262,156.663,226.573,154.77,226.158z"/>
	<path fill="#FFFFFF" d="M136.25,255.693c1.665,0.914,3.225,2.113,4.838,3.115c1.006,0.645,1.416,0.481,1.733-0.6
		c0.898-2.935,1.655-5.953,2.861-8.767c1.459-3.354,4.081-5.8,8.01-6.501c1.845-0.362,3.821-0.305,5.775-0.315
		c6.531-0.104,12.82-0.866,18.751-3.166c3.012-1.179,5.753-2.748,7.688-5.307c4.538-5.939,4.172-13.59-1.023-19.857
		c-2.989-3.591-6.791-6.331-10.868-8.601c-6.512-3.69-13.372-6.142-20.737-6.872c-8.029-0.772-15.205,0.971-21.48,5.259
		c-2.067,1.386-3.67,3.162-4.505,5.557c-1.016,2.921-0.195,5.709,1.44,8.393c1.18,1.959,2.701,3.655,4.489,5.219
		c4.04,3.515,5.483,7.817,4.624,12.62c-0.545,3.082-1.49,5.988-3.073,8.696c-0.327,0.56-0.7,1.091-1.095,1.553
		c-0.718,0.905-1.554,0.938-2.75,0.295c-1.008-0.532-1.528-1.47-1.022-2.443c0.682-1.273,1.622-2.452,2.56-3.52
		c1.136-1.297,2.152-2.605,2.512-4.298c0.615-2.984-0.55-5.509-2.891-7.628c-3.086-2.784-5.854-5.786-7.747-9.428
		c-2.748-5.296-2.407-10.287,0.474-15c2.607-4.245,6.431-7.024,11.224-8.777c11.274-4.135,22.713-3.389,34.275,1.122
		c7.278,2.812,13.949,6.769,19.403,12.378c3.396,3.542,5.803,7.485,6.376,12.202c0.439,3.657-0.331,7.015-1.88,10.202
		c-3.527,7.22-9.775,11.352-17.7,13.408c-3.579,0.964-7.325,1.139-11.111,1.059c-3.238-0.049-6.466,0.315-9.58,0.916
		c-3.619,0.708-5.941,2.638-7.116,6.046c-0.935,2.566-1.871,5.135-2.285,7.888c-0.171,0.938-0.605,1.896-1.155,2.728
		c-0.926,1.477-2.48,1.663-4.141,0.636c-2.292-1.455-4.532-2.994-6.847-4.407c-1.942-1.191-3.957-2.369-6.228-2.891
		c-1.729-0.375-2.597-1.574-2.222-2.97c0.246-1.067,1.098-1.664,2.401-1.421c1.138,0.204,2.318,0.548,3.353,1.037
		C133.322,254.038,135.922,255.502,136.25,255.693z"/>
	<path fill="#FFFFFF" d="M132.32,268.329c1.733,1.013,3.492,1.982,5.198,3.038c1.24,0.781,1.624,2.274,0.925,3.364
		c-0.6,0.918-2.175,1.033-3.347,0.349c-3.652-2.134-7.28-4.312-10.983-6.36c-1.264-0.739-2.608-1.235-3.972-1.804
		c-1.906-0.824-2.445-2.695-1.098-3.926c0.757-0.652,1.64-0.657,2.507-0.206C125.167,264.552,132.346,268.285,132.32,268.329z"/>
	<path fill="#FFFFFF" d="M140.571,267.328c-0.188-0.109-0.375-0.219-0.541-0.259c-4.174-2.209-7.672-4.716-11.679-7.75
		c-1.167-0.798-1.916-1.235-2.551-1.547l0,0c-1.264-0.739-2.139-0.963-2.686-0.995c-0.239-0.021-0.428-0.02-0.645,0.027
		c-0.216,0.048-0.312,0.105-0.312,0.105l0,0c-0.533,0.268-0.906,0.799-1.114,1.369c-0.311,0.854,0.093,1.667,1.098,2.313
		c0.374,0.219,0.749,0.438,1.149,0.612c2.911,1.471,7.578,3.911,8.655,4.541c0.984,0.575,2.013,1.177,2.997,1.752
		c0.983,0.574,1.988,1.221,2.971,1.795c1.125,0.657,2.462,0.517,3.105-0.262C141.638,268.297,141.485,267.804,140.571,267.328z"/>
</g>
<g opacity="0.3">
	<path fill="#BFD017" d="M250.612,138.461c-0.217-2.316-1.428-4.006-3.367-5.312c-3.339-2.241-7.655-1.305-9.161,2.022
		c-0.768,1.744-0.534,3.494,0.175,5.292c0.531,1.349,1.184,2.595,1.762,3.972c0.621,1.517,0.934,3.024,0.41,4.564
		c-0.053,0.2,0.08,0.509,0.242,0.66c0.116,0.124,0.547,0.032,0.623-0.098c0.349-0.489,0.77-0.992,0.904-1.548
		c0.482-1.793-0.106-3.578-0.864-5.291c-0.47-1.023-1.106-2.087-1.405-3.186c-0.323-1.168-0.477-2.411-0.488-3.571
		c-0.01-1.273,0.845-1.984,2.141-2.266c2.805-0.606,6.205,1.207,7.005,3.923c0.366,1.31,0.874,1.837,2.243,2.291
		c3.561,1.216,4.815,4.658,2.692,7.107c-0.395,0.461-0.93,0.841-1.44,1.178c-2.064,1.271-4.326,2.025-6.905,2.246
		c-1.649,0.134-3.257,0.52-4.887,0.836c-0.792,0.171-1.33,0.664-1.473,1.444c-0.032,0.27,0.056,0.551,0.095,0.805
		c0.264-0.019,0.619,0.016,0.861-0.074c0.748-0.312,1.428-0.722,2.171-0.921c2.21-0.554,4.413-0.994,6.618-1.435
		c2.304-0.499,4.512-1.055,6.41-2.366c2.53-1.751,3.572-4.714,0.519-7.768C254.176,139.564,252.506,138.876,250.612,138.461z"/>
	<path fill="#FFFFFF" d="M232.093,167.996c1.665,0.914,3.226,2.113,4.839,3.115c1.006,0.645,1.415,0.481,1.733-0.6
		c0.898-2.935,1.655-5.953,2.861-8.767c1.459-3.354,4.08-5.8,8.01-6.501c1.845-0.362,3.821-0.305,5.775-0.315
		c6.531-0.104,12.82-0.866,18.751-3.166c3.012-1.179,5.753-2.748,7.688-5.307c4.538-5.939,4.172-13.59-1.023-19.857
		c-2.989-3.591-6.791-6.331-10.868-8.601c-6.512-3.69-13.372-6.142-20.737-6.872c-8.029-0.772-15.205,0.971-21.48,5.259
		c-2.067,1.386-3.67,3.162-4.505,5.557c-1.016,2.921-0.194,5.709,1.44,8.393c1.18,1.959,2.701,3.655,4.488,5.219
		c4.041,3.515,5.484,7.817,4.625,12.62c-0.545,3.082-1.49,5.988-3.074,8.696c-0.326,0.56-0.699,1.091-1.094,1.553
		c-0.719,0.905-1.555,0.938-2.75,0.295c-1.008-0.532-1.527-1.47-1.021-2.443c0.682-1.273,1.621-2.452,2.559-3.52
		c1.137-1.297,2.152-2.605,2.513-4.298c0.614-2.984-0.55-5.509-2.892-7.628c-3.086-2.784-5.854-5.786-7.746-9.428
		c-2.748-5.296-2.407-10.287,0.475-15c2.606-4.245,6.43-7.024,11.224-8.777c11.274-4.135,22.713-3.389,34.275,1.122
		c7.278,2.812,13.949,6.769,19.403,12.378c3.396,3.542,5.803,7.485,6.376,12.202c0.439,3.657-0.331,7.015-1.88,10.202
		c-3.527,7.22-9.775,11.352-17.7,13.408c-3.579,0.964-7.325,1.139-11.111,1.059c-3.238-0.049-6.466,0.315-9.58,0.916
		c-3.619,0.708-5.941,2.638-7.116,6.046c-0.935,2.566-1.871,5.135-2.285,7.888c-0.172,0.938-0.605,1.896-1.154,2.728
		c-0.926,1.477-2.48,1.663-4.142,0.636c-2.292-1.455-4.532-2.994-6.847-4.407c-1.943-1.191-3.957-2.369-6.229-2.891
		c-1.729-0.375-2.597-1.574-2.221-2.97c0.246-1.067,1.098-1.664,2.4-1.421c1.138,0.204,2.318,0.548,3.353,1.037
		C229.165,166.341,231.765,167.805,232.093,167.996z"/>
	<path fill="#FFFFFF" d="M228.163,180.632c1.732,1.013,3.491,1.982,5.197,3.038c1.24,0.781,1.624,2.274,0.926,3.364
		c-0.601,0.918-2.176,1.033-3.348,0.349c-3.652-2.134-7.279-4.312-10.982-6.36c-1.265-0.739-2.609-1.235-3.973-1.804
		c-1.905-0.824-2.445-2.695-1.098-3.926c0.758-0.652,1.641-0.657,2.508-0.206C221.011,176.854,228.188,180.588,228.163,180.632z"/>
	<path fill="#FFFFFF" d="M236.413,179.631c-0.188-0.109-0.375-0.219-0.541-0.259c-4.174-2.209-7.672-4.716-11.679-7.75
		c-1.167-0.798-1.916-1.235-2.551-1.547l0,0c-1.265-0.739-2.139-0.963-2.686-0.995c-0.239-0.021-0.429-0.02-0.646,0.027
		c-0.216,0.048-0.312,0.105-0.312,0.105l0,0c-0.532,0.268-0.905,0.799-1.113,1.369c-0.311,0.854,0.093,1.667,1.098,2.313
		c0.375,0.219,0.749,0.438,1.149,0.612c2.911,1.471,7.578,3.911,8.655,4.541c0.984,0.575,2.014,1.177,2.997,1.752
		c0.983,0.574,1.987,1.221,2.972,1.795c1.124,0.657,2.462,0.517,3.104-0.262C237.481,180.6,237.327,180.106,236.413,179.631z"/>
</g>
<g opacity="0.3">
	<path fill="#BFD017" d="M50.779,138.461c-0.217-2.316-1.428-4.006-3.367-5.312c-3.339-2.241-7.655-1.305-9.161,2.022
		c-0.768,1.744-0.534,3.494,0.174,5.292c0.531,1.349,1.185,2.595,1.763,3.972c0.621,1.517,0.934,3.024,0.41,4.564
		c-0.053,0.2,0.08,0.509,0.242,0.66c0.116,0.124,0.547,0.032,0.623-0.098c0.349-0.489,0.769-0.992,0.905-1.548
		c0.482-1.793-0.107-3.578-0.865-5.291c-0.47-1.023-1.106-2.087-1.406-3.186c-0.323-1.168-0.476-2.411-0.488-3.571
		c-0.01-1.273,0.845-1.984,2.14-2.266c2.805-0.606,6.206,1.207,7.005,3.923c0.366,1.31,0.874,1.837,2.243,2.291
		c3.561,1.216,4.815,4.658,2.692,7.107c-0.395,0.461-0.93,0.841-1.44,1.178c-2.064,1.271-4.326,2.025-6.905,2.246
		c-1.649,0.134-3.256,0.52-4.887,0.836c-0.792,0.171-1.33,0.664-1.473,1.444c-0.032,0.27,0.055,0.551,0.095,0.805
		c0.263-0.019,0.619,0.016,0.86-0.074c0.748-0.312,1.428-0.722,2.171-0.921c2.209-0.554,4.414-0.994,6.618-1.435
		c2.304-0.499,4.512-1.055,6.41-2.366c2.53-1.751,3.572-4.714,0.519-7.768C54.342,139.564,52.672,138.876,50.779,138.461z"/>
	<path fill="#FFFFFF" d="M32.26,167.996c1.665,0.914,3.225,2.113,4.838,3.115c1.006,0.645,1.416,0.481,1.733-0.6
		c0.898-2.935,1.655-5.953,2.861-8.767c1.459-3.354,4.081-5.8,8.01-6.501c1.845-0.362,3.821-0.305,5.775-0.315
		c6.531-0.104,12.82-0.866,18.751-3.166c3.012-1.179,5.753-2.748,7.688-5.307c4.538-5.939,4.172-13.59-1.023-19.857
		c-2.989-3.591-6.791-6.331-10.868-8.601c-6.512-3.69-13.372-6.142-20.737-6.872c-8.029-0.772-15.205,0.971-21.48,5.259
		c-2.067,1.386-3.67,3.162-4.505,5.557c-1.016,2.921-0.195,5.709,1.44,8.393c1.18,1.959,2.701,3.655,4.489,5.219
		c4.04,3.515,5.483,7.817,4.624,12.62c-0.545,3.082-1.49,5.988-3.073,8.696c-0.327,0.56-0.7,1.091-1.095,1.553
		c-0.718,0.905-1.554,0.938-2.75,0.295c-1.008-0.532-1.528-1.47-1.022-2.443c0.682-1.273,1.622-2.452,2.56-3.52
		c1.136-1.297,2.152-2.605,2.512-4.298c0.615-2.984-0.55-5.509-2.891-7.628c-3.086-2.784-5.854-5.786-7.747-9.428
		c-2.748-5.296-2.407-10.287,0.474-15c2.607-4.245,6.431-7.024,11.224-8.777c11.274-4.135,22.713-3.389,34.275,1.122
		c7.278,2.812,13.949,6.769,19.403,12.378c3.396,3.542,5.803,7.485,6.376,12.202c0.439,3.657-0.331,7.015-1.88,10.202
		c-3.527,7.22-9.775,11.352-17.7,13.408c-3.579,0.964-7.325,1.139-11.111,1.059c-3.238-0.049-6.466,0.315-9.58,0.916
		c-3.619,0.708-5.941,2.638-7.116,6.046c-0.935,2.566-1.871,5.135-2.285,7.888c-0.171,0.938-0.605,1.896-1.155,2.728
		c-0.926,1.477-2.48,1.663-4.141,0.636c-2.292-1.455-4.532-2.994-6.847-4.407c-1.942-1.191-3.957-2.369-6.228-2.891
		c-1.729-0.375-2.597-1.574-2.222-2.97c0.246-1.067,1.098-1.664,2.401-1.421c1.138,0.204,2.318,0.548,3.353,1.037
		C29.332,166.341,31.932,167.805,32.26,167.996z"/>
	<path fill="#FFFFFF" d="M28.329,180.632c1.733,1.013,3.492,1.982,5.198,3.038c1.24,0.781,1.624,2.274,0.925,3.364
		c-0.6,0.918-2.175,1.033-3.347,0.349c-3.652-2.134-7.28-4.312-10.983-6.36c-1.264-0.739-2.608-1.235-3.972-1.804
		c-1.906-0.824-2.445-2.695-1.098-3.926c0.757-0.652,1.64-0.657,2.507-0.206C21.177,176.854,28.355,180.588,28.329,180.632z"/>
	<path fill="#FFFFFF" d="M36.58,179.631c-0.188-0.109-0.375-0.219-0.541-0.259c-4.174-2.209-7.672-4.716-11.679-7.75
		c-1.167-0.798-1.916-1.235-2.551-1.547l0,0c-1.264-0.739-2.139-0.963-2.686-0.995c-0.239-0.021-0.428-0.02-0.645,0.027
		c-0.216,0.048-0.312,0.105-0.312,0.105l0,0c-0.533,0.268-0.906,0.799-1.114,1.369c-0.311,0.854,0.093,1.667,1.098,2.313
		c0.374,0.219,0.749,0.438,1.149,0.612c2.911,1.471,7.578,3.911,8.655,4.541c0.984,0.575,2.013,1.177,2.997,1.752
		c0.983,0.574,1.988,1.221,2.971,1.795c1.125,0.657,2.462,0.517,3.105-0.262C37.647,180.6,37.494,180.106,36.58,179.631z"/>
</g>
<g opacity="0.3">
	<path fill="#BFD017" d="M154.77,44.804c-0.217-2.316-1.428-4.006-3.367-5.312c-3.339-2.241-7.655-1.305-9.161,2.022
		c-0.768,1.744-0.534,3.494,0.174,5.292c0.531,1.349,1.185,2.595,1.763,3.972c0.621,1.517,0.934,3.024,0.41,4.564
		c-0.053,0.2,0.08,0.509,0.242,0.66c0.116,0.124,0.547,0.032,0.623-0.098c0.349-0.489,0.769-0.992,0.905-1.548
		c0.482-1.793-0.107-3.578-0.865-5.291c-0.47-1.023-1.106-2.087-1.406-3.186c-0.323-1.168-0.476-2.411-0.488-3.571
		c-0.01-1.273,0.845-1.984,2.14-2.266c2.805-0.606,6.206,1.207,7.005,3.923c0.366,1.31,0.874,1.837,2.243,2.291
		c3.561,1.216,4.815,4.658,2.692,7.107c-0.395,0.461-0.93,0.841-1.44,1.178c-2.064,1.271-4.326,2.025-6.905,2.246
		c-1.649,0.134-3.256,0.52-4.887,0.836c-0.792,0.171-1.33,0.664-1.473,1.444c-0.032,0.27,0.055,0.551,0.095,0.805
		c0.263-0.019,0.619,0.016,0.86-0.074c0.748-0.312,1.428-0.722,2.171-0.921c2.209-0.554,4.414-0.994,6.618-1.435
		c2.304-0.499,4.512-1.055,6.41-2.366c2.53-1.751,3.572-4.714,0.519-7.768C158.333,45.908,156.663,45.219,154.77,44.804z"/>
	<path fill="#FFFFFF" d="M136.25,74.339c1.665,0.914,3.225,2.113,4.838,3.115c1.006,0.645,1.416,0.481,1.733-0.6
		c0.898-2.935,1.655-5.953,2.861-8.767c1.459-3.354,4.081-5.8,8.01-6.501c1.845-0.362,3.821-0.305,5.775-0.315
		c6.531-0.104,12.82-0.866,18.751-3.166c3.012-1.179,5.753-2.748,7.688-5.307c4.538-5.939,4.172-13.59-1.023-19.857
		c-2.989-3.591-6.791-6.331-10.868-8.601c-6.512-3.69-13.372-6.142-20.737-6.872c-8.029-0.772-15.205,0.971-21.48,5.259
		c-2.067,1.386-3.67,3.162-4.505,5.557c-1.016,2.921-0.195,5.709,1.44,8.393c1.18,1.959,2.701,3.655,4.489,5.219
		c4.04,3.515,5.483,7.817,4.624,12.62c-0.545,3.082-1.49,5.988-3.073,8.696c-0.327,0.56-0.7,1.091-1.095,1.553
		c-0.718,0.905-1.554,0.938-2.75,0.295c-1.008-0.532-1.528-1.47-1.022-2.443c0.682-1.273,1.622-2.452,2.56-3.52
		c1.136-1.297,2.152-2.605,2.512-4.298c0.615-2.984-0.55-5.509-2.891-7.628c-3.086-2.784-5.854-5.786-7.747-9.428
		c-2.748-5.296-2.407-10.287,0.474-15c2.607-4.245,6.431-7.024,11.224-8.777c11.274-4.135,22.713-3.389,34.275,1.122
		c7.278,2.812,13.949,6.769,19.403,12.378c3.396,3.542,5.803,7.485,6.376,12.202c0.439,3.657-0.331,7.015-1.88,10.202
		c-3.527,7.22-9.775,11.352-17.7,13.408c-3.579,0.964-7.325,1.139-11.111,1.059c-3.238-0.049-6.466,0.315-9.58,0.916
		c-3.619,0.708-5.941,2.638-7.116,6.046c-0.935,2.566-1.871,5.135-2.285,7.888c-0.171,0.938-0.605,1.896-1.155,2.728
		c-0.926,1.477-2.48,1.663-4.141,0.636c-2.292-1.455-4.532-2.994-6.847-4.407c-1.942-1.191-3.957-2.369-6.228-2.891
		c-1.729-0.375-2.597-1.574-2.222-2.97c0.246-1.067,1.098-1.664,2.401-1.421c1.138,0.204,2.318,0.548,3.353,1.037
		C133.322,72.684,135.922,74.148,136.25,74.339z"/>
	<path fill="#FFFFFF" d="M132.32,86.975c1.733,1.013,3.492,1.982,5.198,3.038c1.24,0.781,1.624,2.274,0.925,3.364
		c-0.6,0.918-2.175,1.033-3.347,0.349c-3.652-2.134-7.28-4.312-10.983-6.36c-1.264-0.739-2.608-1.235-3.972-1.804
		c-1.906-0.824-2.445-2.695-1.098-3.926c0.757-0.652,1.64-0.657,2.507-0.206C125.167,83.198,132.346,86.931,132.32,86.975z"/>
	<path fill="#FFFFFF" d="M140.571,85.974c-0.188-0.109-0.375-0.219-0.541-0.259c-4.174-2.209-7.672-4.716-11.679-7.75
		c-1.167-0.798-1.916-1.235-2.551-1.547l0,0c-1.264-0.739-2.139-0.963-2.686-0.995c-0.239-0.021-0.428-0.02-0.645,0.027
		c-0.216,0.048-0.312,0.105-0.312,0.105l0,0c-0.533,0.268-0.906,0.799-1.114,1.369c-0.311,0.854,0.093,1.667,1.098,2.313
		c0.374,0.219,0.749,0.438,1.149,0.612c2.911,1.471,7.578,3.911,8.655,4.541c0.984,0.575,2.013,1.177,2.997,1.752
		c0.983,0.574,1.988,1.221,2.971,1.795c1.125,0.657,2.462,0.517,3.105-0.262C141.638,86.943,141.485,86.45,140.571,85.974z"/>
</g>
</svg>
