<?xml version="1.0" encoding="utf-8"?>
<!-- Generator: Adobe Illustrator 15.0.0, SVG Export Plug-In . SVG Version: 6.00 Build 0)  -->
<!DOCTYPE svg PUBLIC "-//W3C//DTD SVG 1.1//EN" "http://www.w3.org/Graphics/SVG/1.1/DTD/svg11.dtd">
<svg version="1.1" id="Capa_1" xmlns="http://www.w3.org/2000/svg" xmlns:xlink="http://www.w3.org/1999/xlink" x="0px" y="0px"
	 width="448px" height="448px" viewBox="0 0 448 448" enable-background="new 0 0 448 448" xml:space="preserve">
<g>
	<path fill="#444" d="M273.629,255.29c-9.302-1.48-9.514-27.061-9.514-27.061s27.335-27.062,33.294-63.451
		c16.027,0,25.927-38.688,9.896-52.299C307.978,98.151,327.906,0,227,0c-100.907,0-80.975,98.151-80.307,112.479
		c-16.029,13.61-6.131,52.299,9.896,52.299c5.957,36.39,33.294,63.451,33.294,63.451s-0.212,25.579-9.516,27.061
		C150.402,260.057,38.5,309.414,38.5,363.535H227h188.5C415.5,309.414,303.596,260.057,273.629,255.29z"/>
</g>
</svg>
